{"glyphs":{"0":{"ha":692,"x_min":53,"x_max":672,"o":"m 672 294 q 649 425 672 364 q 583 532 625 486 q 481 605 540 578 q 351 632 422 632 q 234 606 289 632 q 139 538 179 581 q 76 438 99 494 q 53 319 53 382 q 69 210 53 264 q 116 111 85 156 q 192 34 147 67 q 294 -10 238 1 q 332 -15 314 -12 q 369 -17 350 -17 q 490 8 435 -17 q 586 74 546 32 q 649 173 626 117 q 672 294 672 229 m 633 297 q 622 213 633 256 q 589 135 611 171 q 533 73 567 100 q 457 35 500 46 q 353 22 407 22 q 245 47 293 22 q 163 113 197 72 q 110 206 129 153 q 92 315 92 258 q 103 399 92 357 q 138 476 115 440 q 194 540 161 513 q 269 579 228 567 q 357 592 311 592 q 471 569 419 592 q 558 506 522 546 q 614 412 594 465 q 633 297 633 358 z "},"1":{"ha":199,"x_min":69,"x_max":129,"o":"m 129 -17 q 126 6 126 -6 q 126 28 126 17 q 123 177 124 103 q 122 326 122 251 l 122 403 q 123 512 122 457 q 128 619 124 567 l 128 624 q 122 629 128 629 q 99 617 111 629 q 79 606 86 606 q 69 592 69 606 q 78 568 69 585 q 88 524 88 551 q 88 354 88 439 q 89 185 89 269 l 89 115 l 89 4 q 88 -15 89 0 q 94 -29 88 -29 q 110 -24 97 -29 q 129 -17 124 -18 z "},"2":{"ha":521,"x_min":22,"x_max":513,"o":"m 513 43 q 397 30 457 31 q 281 29 338 29 q 178 31 229 29 q 74 29 126 32 q 119 99 88 63 q 188 174 150 136 q 267 250 226 211 q 340 328 307 289 q 395 407 374 368 q 417 483 417 446 q 407 538 417 511 q 380 584 397 564 q 339 616 363 604 q 286 628 315 628 q 200 599 238 628 q 143 526 163 569 q 135 510 140 524 q 129 493 129 496 q 143 483 129 486 q 161 479 157 479 q 167 482 167 479 q 171 500 169 492 q 175 517 172 508 q 217 570 188 550 q 282 590 246 590 q 354 560 326 590 q 382 486 382 529 q 353 406 382 450 q 286 319 325 363 q 207 238 247 276 q 143 174 167 199 q 83 105 111 140 q 32 29 54 69 q 26 17 29 24 q 22 4 22 11 q 25 -3 22 -1 q 151 -1 88 -1 q 276 0 214 0 l 331 0 q 415 -1 374 0 q 500 -4 457 -1 q 510 18 507 4 q 513 43 513 32 z "},"3":{"ha":546,"x_min":35,"x_max":525,"o":"m 525 238 q 346 422 525 415 q 390 467 375 439 q 404 528 404 496 q 372 601 404 572 q 296 631 339 631 q 235 616 264 631 q 183 582 207 601 q 204 550 183 560 q 245 584 219 569 q 294 599 271 599 q 345 578 322 599 q 368 529 368 557 q 337 459 368 488 q 269 419 306 431 q 263 408 263 415 q 271 393 263 400 q 285 382 279 386 q 336 389 313 389 q 446 355 401 389 q 490 251 490 321 q 474 159 490 201 q 427 85 457 117 q 355 35 397 53 q 263 17 313 17 q 177 30 218 17 q 99 65 136 43 q 82 78 90 72 q 64 89 74 83 l 61 90 q 44 78 51 90 q 35 60 38 67 q 140 6 83 26 q 257 -15 197 -15 q 360 3 311 -15 q 445 56 408 22 q 503 135 482 89 q 525 238 525 182 z "},"4":{"ha":553,"x_min":40,"x_max":547,"o":"m 547 143 q 543 164 547 153 q 543 178 543 167 q 536 189 543 189 l 533 189 q 496 180 514 182 q 458 178 478 178 q 439 178 449 178 q 419 179 429 179 q 421 312 422 246 q 419 444 419 378 q 421 526 419 485 q 422 608 422 568 q 418 624 422 617 q 403 631 414 631 q 375 615 388 631 q 349 583 361 600 q 325 550 338 565 q 276 485 300 518 q 228 421 251 453 q 138 301 183 360 q 49 181 92 243 q 40 164 40 169 q 46 151 40 156 q 56 142 51 147 q 385 142 219 146 q 385 94 385 122 q 384 38 385 67 q 382 -19 383 8 q 376 -62 381 -46 q 396 -71 383 -67 q 418 -75 408 -75 q 421 -75 418 -75 q 425 -72 425 -75 l 424 -69 q 425 -61 425 -67 q 422 14 425 -24 q 419 89 419 51 l 419 144 q 440 145 431 144 q 458 146 449 146 q 502 142 479 146 q 544 135 525 139 q 547 143 547 136 m 385 224 l 385 179 q 349 177 367 176 q 314 178 332 178 q 213 178 264 178 q 113 179 163 179 l 90 179 q 192 313 140 246 q 294 446 243 379 q 340 506 318 476 q 385 567 363 535 q 383 419 382 492 q 385 271 385 346 l 385 224 z "},"5":{"ha":544,"x_min":14,"x_max":503,"o":"m 503 218 q 485 316 503 272 q 437 392 468 360 q 362 441 406 424 q 264 458 318 458 q 197 451 231 458 q 132 431 164 443 q 144 501 136 467 q 158 571 153 535 q 215 575 186 574 q 271 576 243 576 q 317 576 294 576 q 361 571 339 575 q 367 596 361 585 q 374 614 374 607 q 369 617 374 617 q 344 615 357 617 q 317 611 331 613 q 242 610 279 610 q 165 607 204 610 q 150 607 158 607 q 138 604 143 607 q 128 594 129 601 q 125 579 126 586 q 110 494 117 536 q 92 410 103 453 q 106 397 97 406 q 121 389 114 389 q 129 392 124 389 q 197 415 161 407 q 268 424 232 424 q 348 409 311 424 q 412 367 385 394 q 453 303 439 340 q 468 224 468 267 q 449 135 468 174 q 397 69 429 96 q 322 29 364 43 q 232 15 279 15 q 126 38 167 15 q 51 115 86 60 q 30 108 46 114 q 14 96 14 103 q 17 93 14 96 q 115 9 63 36 q 240 -18 168 -18 q 340 -2 293 -18 q 424 44 388 14 q 481 119 460 75 q 503 218 503 163 z "},"6":{"ha":547,"x_min":42,"x_max":522,"o":"m 522 200 q 505 284 522 247 q 458 347 488 321 q 388 385 428 372 q 304 399 349 399 q 181 372 240 399 q 81 294 121 346 q 110 386 89 340 q 161 472 131 432 q 229 543 192 511 q 311 593 267 575 q 313 611 310 603 q 315 629 315 619 q 315 632 315 629 q 313 635 315 635 l 310 635 q 261 613 286 628 q 217 582 236 597 q 147 515 179 553 q 92 433 115 476 q 55 341 68 389 q 42 246 42 293 q 79 92 42 163 q 169 6 111 31 q 292 -18 226 -18 q 382 -3 340 -18 q 455 41 424 13 q 504 110 486 69 q 522 200 522 150 m 486 206 q 471 130 486 165 q 429 69 456 94 q 367 28 403 43 q 292 14 332 14 q 206 29 244 14 q 138 73 167 44 q 93 140 110 101 q 75 226 76 179 q 166 327 106 292 q 297 363 226 363 q 365 352 332 363 q 426 322 399 342 q 469 273 453 303 q 486 206 486 243 z "},"7":{"ha":472,"x_min":26,"x_max":447,"o":"m 447 596 q 438 607 447 604 q 422 610 428 610 q 372 609 397 610 q 321 608 346 608 q 203 610 263 608 q 86 611 144 611 q 58 611 72 611 q 32 610 46 611 q 28 610 29 613 q 26 604 26 607 q 31 588 26 597 q 39 571 35 578 q 121 579 79 579 q 203 579 163 579 q 301 578 251 579 q 399 578 350 578 q 199 178 303 375 q 142 69 172 126 q 76 -32 113 13 q 91 -53 79 -39 q 110 -67 103 -67 q 113 -64 113 -67 q 127 -34 119 -49 q 143 -4 135 -19 q 178 67 161 32 q 215 138 196 101 q 326 356 271 247 q 439 572 382 464 q 444 583 442 578 q 447 596 447 589 z "},"8":{"ha":486,"x_min":44,"x_max":444,"o":"m 444 178 q 409 292 444 239 q 317 369 374 346 q 360 419 344 389 q 375 483 375 450 q 365 539 375 513 q 338 585 356 565 q 295 616 319 604 q 240 628 271 628 q 190 617 213 628 q 149 587 167 606 q 122 544 132 568 q 113 493 113 519 q 128 425 113 458 q 171 371 143 392 q 81 299 118 347 q 44 190 44 250 q 60 110 44 147 q 104 44 76 72 q 169 -1 132 15 q 249 -17 206 -17 q 323 -1 288 -17 q 385 41 358 14 q 428 103 413 68 q 444 178 444 138 m 343 483 q 320 414 343 443 q 256 385 297 385 l 219 383 q 210 386 217 383 q 200 392 203 389 q 161 431 175 406 q 146 485 147 457 l 146 490 q 171 562 144 532 q 242 592 197 592 q 316 560 289 592 q 343 483 343 528 m 410 181 q 379 85 410 131 q 299 26 349 40 q 239 19 267 19 q 176 33 206 19 q 126 71 147 47 q 92 124 104 94 q 79 188 79 154 q 92 250 79 221 q 127 301 106 279 q 178 336 149 324 q 242 349 208 349 q 308 335 278 349 q 362 300 339 322 q 397 247 385 278 q 410 181 410 215 z "},"9":{"ha":524,"x_min":42,"x_max":483,"o":"m 483 372 q 468 474 483 426 q 423 556 453 521 q 349 612 393 592 q 249 632 306 632 q 169 617 207 632 q 103 576 132 603 q 58 514 75 550 q 42 435 42 478 q 76 331 42 372 q 160 267 110 290 q 270 235 211 244 q 378 226 329 226 l 413 226 q 332 103 383 160 q 213 18 281 46 q 211 0 214 8 q 208 -18 208 -8 q 209 -21 208 -18 q 211 -24 210 -24 l 214 -24 q 264 -1 239 -17 q 308 31 289 15 q 378 99 346 60 q 433 183 410 138 q 470 276 457 228 q 483 372 483 324 m 447 378 q 442 318 447 347 q 426 261 436 289 q 399 260 413 260 q 374 260 386 260 q 241 274 310 260 q 124 336 172 289 q 92 380 104 356 q 81 433 81 404 q 94 495 81 465 q 131 548 108 525 q 184 584 154 571 q 246 597 214 597 q 331 580 293 597 q 394 533 368 563 q 433 463 419 503 q 447 378 447 422 z "}," ":{"ha":417,"x_min":0,"x_max":0,"o":""},"!":{"ha":271,"x_min":97,"x_max":158,"o":"m 153 740 q 132 749 144 746 q 110 753 119 753 q 103 752 107 753 q 101 747 99 751 l 101 736 q 104 697 100 717 q 108 658 108 678 l 108 458 l 108 332 l 108 196 q 105 169 107 182 q 103 143 103 156 q 104 132 103 136 q 105 128 101 129 q 111 126 108 126 q 132 130 119 126 q 151 139 144 133 q 151 176 151 158 q 149 215 151 196 l 147 215 l 147 239 l 147 354 q 148 496 147 425 q 149 638 149 567 q 151 689 149 664 q 153 740 153 714 m 158 22 q 152 43 158 33 q 133 53 146 53 q 108 42 118 53 q 97 18 97 32 q 105 -1 97 7 q 124 -10 113 -10 q 147 -1 136 -10 q 158 22 158 8 z "},"\"":{"ha":228,"x_min":35,"x_max":193,"o":"m 193 828 q 172 851 193 851 q 160 849 168 851 q 144 841 147 851 q 140 822 140 831 q 141 796 140 814 q 144 758 142 778 q 149 722 146 739 q 156 699 151 706 l 160 699 q 172 701 164 699 q 186 749 186 729 q 189 796 186 768 q 192 812 190 804 q 193 828 193 819 m 89 742 q 87 767 89 754 q 85 793 85 781 q 86 808 85 800 q 88 822 88 815 q 83 842 88 833 q 67 851 79 851 q 50 849 61 851 q 38 842 42 849 q 35 829 35 836 q 38 802 35 821 q 46 762 42 783 q 56 722 50 740 q 65 699 61 704 l 68 699 q 75 700 71 699 q 82 703 79 701 q 89 742 89 724 z "},"#":{"ha":557,"x_min":29,"x_max":517,"o":"m 517 418 q 512 428 517 421 q 500 444 507 436 q 487 459 493 453 q 476 465 481 465 q 434 463 458 465 q 390 458 410 460 q 397 485 392 465 q 409 528 403 506 q 422 569 415 550 q 432 593 428 588 q 441 607 436 597 q 446 624 446 617 q 439 631 446 631 q 424 628 433 631 q 406 621 415 625 q 391 611 397 617 q 383 600 385 606 q 370 528 376 564 q 357 456 364 492 q 299 453 328 454 q 239 453 269 453 q 246 478 240 460 q 257 515 251 496 q 268 552 263 535 q 278 575 274 569 q 287 589 282 579 q 292 606 292 599 q 285 613 292 613 q 270 610 279 613 q 252 603 261 607 q 237 593 243 599 q 229 582 231 588 q 217 517 222 550 q 206 453 213 485 q 147 455 178 454 q 89 464 117 456 q 65 469 75 469 q 56 461 56 469 q 62 449 57 460 q 73 424 67 438 q 79 411 79 411 l 82 410 q 91 413 85 410 q 101 417 97 415 q 150 422 125 422 q 199 422 175 421 q 185 364 192 393 q 171 306 178 335 q 117 308 144 307 q 63 317 89 310 q 39 322 49 322 q 29 314 29 322 q 33 306 29 314 q 40 288 36 297 q 49 271 44 279 q 53 263 53 263 l 56 263 q 65 265 58 263 q 75 269 71 268 q 118 274 94 274 q 163 275 142 274 q 152 235 158 258 q 138 186 146 211 q 120 138 129 161 q 103 101 111 115 q 96 89 100 96 q 92 75 92 82 q 101 68 92 68 q 115 71 108 68 q 129 74 122 74 q 141 74 132 74 q 153 78 150 75 q 154 83 154 78 q 154 96 154 89 q 155 109 154 103 q 156 118 156 115 q 173 197 163 158 q 193 275 183 236 l 219 275 l 274 275 l 313 275 q 302 238 308 260 q 289 195 296 217 q 274 153 282 174 q 257 119 265 132 q 250 107 254 114 q 246 93 246 100 q 256 86 246 86 q 269 89 263 86 q 283 92 276 92 q 295 92 286 92 q 307 96 304 93 q 308 101 308 96 q 308 114 308 107 q 309 127 308 121 q 310 136 310 133 q 325 206 317 171 q 343 274 333 240 q 364 274 349 274 q 399 272 381 274 q 433 269 417 271 q 453 265 449 268 q 465 261 460 263 q 478 257 471 260 q 486 263 482 260 q 490 271 490 267 q 485 281 490 274 q 474 297 481 289 q 460 312 467 306 q 450 318 454 318 l 446 318 q 399 315 422 318 q 351 310 375 311 q 366 365 358 338 q 381 421 374 393 q 400 421 386 421 q 431 419 415 421 q 461 417 447 418 q 479 414 475 415 q 492 408 486 410 q 504 404 497 407 q 513 410 508 407 q 517 418 517 414 m 349 422 q 335 365 342 393 q 321 308 328 336 q 269 306 294 307 q 215 306 243 306 l 200 306 q 216 364 208 335 q 231 422 224 393 l 251 422 l 296 422 l 349 422 z "},"$":{"ha":706,"x_min":122,"x_max":644,"o":"m 644 192 q 598 347 644 290 q 463 436 551 404 q 399 456 431 447 q 336 475 368 464 l 336 593 q 369 574 356 586 q 396 546 383 561 q 401 540 396 540 q 409 544 407 540 q 411 553 411 549 q 410 577 411 565 q 410 601 408 589 l 410 611 l 404 622 q 387 615 394 619 q 371 611 379 611 q 353 615 361 611 q 336 621 344 618 l 336 683 q 347 738 336 711 q 358 775 358 764 q 354 779 358 779 q 330 771 344 779 q 306 758 315 763 q 291 755 303 757 q 279 750 279 753 q 285 735 279 742 q 293 719 290 728 q 297 705 296 713 q 299 689 297 697 q 300 657 300 674 q 301 625 300 640 q 246 598 269 621 q 222 543 222 575 q 247 485 222 506 q 303 453 271 465 q 301 234 303 343 q 299 15 299 125 q 215 28 256 19 q 133 44 174 36 q 126 35 129 40 q 122 22 122 29 q 124 11 122 14 q 210 -5 168 3 q 297 -17 253 -12 l 297 -93 q 293 -136 297 -115 q 285 -179 289 -157 l 285 -181 q 299 -175 289 -179 q 320 -165 310 -171 q 338 -153 331 -160 q 346 -142 346 -147 q 340 -103 346 -122 q 333 -62 333 -83 l 333 -19 q 441 -13 386 -22 q 541 20 496 -4 q 615 86 586 44 q 644 192 644 128 m 303 486 q 269 506 285 493 q 254 542 254 519 q 268 578 254 563 q 301 596 282 593 q 303 540 303 568 q 303 486 303 514 m 613 192 q 590 108 613 143 q 533 52 568 74 q 454 21 497 31 q 369 11 411 11 q 351 11 360 11 q 333 13 343 11 q 335 227 335 121 q 336 442 336 333 q 438 410 388 425 q 526 368 488 394 q 589 301 565 342 q 613 192 613 260 z "},"%":{"ha":854,"x_min":104,"x_max":750,"o":"m 404 500 q 372 599 404 558 q 281 649 339 640 q 268 638 268 650 q 274 614 268 628 l 288 613 q 322 601 307 613 q 349 574 338 590 q 366 538 360 557 q 372 501 372 518 q 344 426 372 457 q 269 393 317 394 q 264 371 264 383 q 265 362 264 367 q 272 357 267 357 l 275 357 q 369 403 333 367 q 404 500 404 439 m 750 125 q 717 225 750 185 q 626 275 685 265 l 624 275 q 616 271 618 275 q 614 263 614 267 q 619 239 614 253 l 633 239 q 668 228 653 239 q 694 200 683 217 q 712 164 706 183 q 718 128 718 144 q 690 51 718 83 q 615 19 663 19 q 611 8 613 13 q 610 -4 610 3 q 611 -12 610 -7 q 618 -18 613 -18 l 621 -18 q 715 28 679 -8 q 750 125 750 65 m 643 644 q 629 665 640 651 q 611 679 618 679 q 604 669 610 679 q 592 646 599 660 q 577 618 585 632 q 564 596 569 604 q 446 397 504 496 q 326 199 388 299 q 269 102 299 150 q 208 8 240 54 q 189 -20 199 -7 q 169 -49 179 -33 q 183 -69 172 -54 q 201 -83 194 -83 q 206 -79 206 -83 q 222 -53 215 -67 q 235 -26 228 -40 q 323 126 276 51 q 415 276 369 201 q 510 435 463 356 q 610 590 557 514 q 627 617 619 604 q 643 644 635 631 m 243 635 q 241 647 243 642 q 231 651 239 653 q 139 603 174 640 q 104 508 104 567 q 137 408 104 449 q 228 357 169 368 l 231 357 q 238 363 236 357 q 239 371 239 368 q 233 390 239 383 l 235 389 q 217 396 232 393 q 183 408 201 399 q 151 440 165 418 q 136 506 136 461 q 163 582 136 551 q 236 614 189 613 q 241 624 239 618 q 243 635 243 631 m 589 260 q 588 271 589 264 q 581 278 586 278 q 578 277 579 278 q 576 276 578 276 q 485 230 519 267 q 450 133 450 193 q 483 35 450 75 q 574 -17 515 -6 q 576 -17 575 -17 q 576 -18 576 -18 q 583 -12 582 -18 q 585 -4 585 -7 q 579 15 585 8 l 581 14 q 569 19 579 19 q 556 22 563 21 q 543 25 550 22 q 497 68 513 36 q 482 132 482 100 q 508 208 482 178 q 583 240 535 239 q 587 249 585 243 q 589 260 589 256 z "},"&":{"ha":765,"x_min":89,"x_max":679,"o":"m 679 192 q 674 199 679 197 q 663 201 668 201 q 649 199 656 201 q 635 197 642 197 q 622 199 628 197 q 608 200 615 200 q 586 193 597 200 q 578 150 589 174 q 550 115 567 126 l 311 485 q 365 556 342 514 q 389 640 389 597 q 380 680 389 661 q 356 712 371 699 q 323 733 342 725 q 283 740 304 740 q 215 713 243 740 q 188 644 188 685 q 195 604 188 625 q 214 563 203 583 q 238 524 225 543 q 263 492 251 506 q 200 428 231 464 q 144 353 169 393 q 104 270 119 314 q 89 183 89 226 q 108 99 89 136 q 158 35 126 61 q 230 -6 189 8 q 317 -19 271 -19 q 387 -14 357 -19 q 442 3 417 -8 q 493 30 468 14 q 550 67 518 46 q 569 43 558 57 q 579 15 579 29 q 576 6 579 11 q 578 -5 576 -1 q 588 -8 579 -8 q 601 -7 594 -8 q 615 -6 608 -6 q 636 -6 626 -6 q 657 -8 646 -7 q 667 1 663 -4 q 672 14 671 7 q 640 27 653 19 q 616 44 626 35 q 596 64 606 53 q 574 89 586 75 q 609 133 589 108 q 651 168 629 157 q 669 177 658 171 q 679 192 679 183 m 353 642 q 333 571 353 607 q 290 513 314 535 q 270 540 282 524 q 248 574 258 556 q 230 609 238 592 q 222 642 222 626 q 238 688 222 668 q 282 708 254 708 q 331 689 310 708 q 353 642 353 669 m 528 92 q 430 33 479 54 q 318 13 381 13 q 245 25 281 13 q 183 60 210 38 q 140 116 156 83 q 124 188 124 149 q 139 264 124 225 q 177 340 154 303 q 228 409 200 376 q 283 465 257 442 l 528 92 z "},"'":{"ha":144,"x_min":49,"x_max":121,"o":"m 118 806 l 118 817 q 111 844 121 831 q 86 858 101 858 q 63 847 71 858 q 56 822 56 836 q 60 808 56 814 q 69 796 64 801 q 78 785 74 790 q 82 772 82 779 q 83 769 82 769 q 83 765 83 768 q 78 749 83 756 q 66 737 72 743 q 54 725 60 731 q 49 711 49 719 q 49 706 49 708 q 50 701 50 704 q 57 697 51 697 q 79 710 68 697 q 99 742 90 724 q 113 778 107 760 q 118 806 118 796 z "},"(":{"ha":388,"x_min":104,"x_max":388,"o":"m 388 -203 q 378 -186 388 -193 q 371 -160 369 -179 l 371 -156 q 365 -153 368 -153 q 358 -153 361 -153 q 350 -154 354 -154 q 341 -153 344 -154 q 333 -151 338 -153 q 259 -95 290 -133 q 206 -10 228 -57 q 170 85 183 36 q 150 175 157 135 q 140 257 143 215 q 136 340 136 299 q 144 471 136 406 q 168 600 151 536 q 192 681 178 635 q 226 769 206 726 q 276 844 247 811 q 343 890 304 878 q 352 887 347 889 q 361 885 357 885 q 365 890 365 885 q 365 901 365 899 q 368 913 365 906 q 375 924 371 918 q 379 936 379 931 q 372 944 379 944 q 353 940 365 944 q 335 933 342 936 q 272 890 301 921 q 218 819 242 858 q 177 738 194 779 q 150 664 160 697 q 115 496 126 582 q 104 325 104 410 q 108 229 104 276 q 127 115 113 179 q 168 -11 142 50 q 234 -121 194 -72 q 329 -187 274 -169 l 329 -189 q 356 -199 340 -192 q 382 -207 371 -207 q 388 -203 388 -207 z "},")":{"ha":388,"x_min":0,"x_max":283,"o":"m 283 325 q 273 496 283 410 q 239 664 263 582 q 212 738 229 697 q 170 819 194 779 q 116 890 146 858 q 53 933 86 921 q 35 940 46 936 q 17 944 24 944 q 8 936 8 944 q 13 924 8 931 q 19 913 18 918 q 22 901 22 906 q 24 890 22 899 q 28 885 24 885 q 36 887 31 885 q 44 890 42 889 q 113 844 83 878 q 163 769 142 811 q 197 681 183 726 q 219 600 211 635 q 244 471 236 536 q 251 340 251 406 q 249 257 251 299 q 239 175 246 215 q 218 85 232 135 q 182 -10 204 36 q 128 -95 160 -57 q 56 -151 97 -133 q 39 -154 44 -154 q 31 -153 35 -154 q 22 -153 26 -153 q 18 -156 18 -153 q 10 -185 19 -178 q 0 -203 0 -192 q 7 -207 0 -207 q 33 -199 18 -207 q 58 -189 47 -192 l 58 -187 q 153 -121 114 -169 q 219 -11 193 -72 q 260 115 246 50 q 279 229 275 179 q 283 277 282 253 q 283 325 283 301 z "},"*":{"ha":456,"x_min":69,"x_max":386,"o":"m 386 479 q 386 489 386 488 q 378 497 386 492 q 361 503 369 503 q 346 511 353 504 q 339 514 340 514 q 326 507 332 514 q 317 493 319 500 q 281 422 306 453 q 232 360 257 392 q 201 403 217 382 q 169 446 185 424 q 159 467 165 453 q 151 489 153 482 q 149 501 150 493 q 143 511 147 510 l 140 511 q 130 509 138 511 q 119 506 122 507 q 108 508 115 507 q 97 506 101 508 q 90 497 94 503 q 85 485 85 490 q 92 475 85 478 q 103 469 100 472 q 124 448 108 467 q 158 407 140 429 q 192 365 176 385 q 214 338 208 344 q 191 309 207 329 q 156 267 175 289 q 120 228 138 246 q 94 206 103 210 q 78 197 88 203 q 69 183 69 190 q 82 170 69 172 q 101 168 94 168 l 108 168 q 131 163 119 163 q 137 172 135 163 q 140 183 139 181 q 153 213 142 194 q 179 250 165 231 q 208 288 193 269 q 231 315 222 306 q 259 276 246 296 q 288 238 272 257 q 310 207 301 222 q 325 172 318 192 q 330 159 326 169 q 338 149 333 149 q 345 156 342 149 q 360 164 349 164 q 380 167 375 164 q 386 186 385 171 q 375 193 381 190 q 364 201 369 196 q 353 213 358 207 q 340 224 347 218 q 292 277 317 243 q 249 338 268 311 q 274 369 260 351 q 305 405 289 388 q 336 438 321 422 q 364 464 351 454 q 375 472 369 468 q 386 479 381 475 z "},"+":{"ha":578,"x_min":69,"x_max":511,"o":"m 511 318 q 508 324 511 321 q 493 349 500 332 q 472 367 486 367 q 467 365 469 367 q 384 356 426 358 q 300 353 342 354 q 300 383 300 360 q 301 435 300 408 q 305 484 303 461 q 310 513 307 507 q 314 525 313 519 q 318 538 315 531 q 313 546 317 542 q 304 550 308 550 q 302 549 303 550 q 300 549 301 549 q 274 533 290 539 q 257 513 257 526 l 257 506 q 266 429 264 468 q 271 351 268 390 l 251 351 q 176 353 219 351 q 103 364 133 356 q 79 369 89 369 q 69 361 69 369 q 73 353 69 361 q 81 335 76 344 q 89 319 85 326 q 93 311 93 311 l 96 310 q 105 313 99 310 q 115 317 111 315 q 150 321 129 319 q 192 322 171 322 q 235 322 214 322 q 271 322 256 322 l 271 290 q 270 215 272 258 q 258 142 268 172 q 256 131 257 136 q 254 118 254 125 q 261 108 254 108 q 269 112 261 108 q 288 119 278 115 q 305 128 297 124 q 313 132 313 132 l 314 135 q 311 144 314 138 q 307 154 308 150 q 301 190 303 168 q 300 235 300 213 q 300 281 300 258 q 300 318 300 303 l 300 322 q 335 322 308 322 q 390 321 361 322 q 444 318 419 319 q 474 314 468 317 q 486 308 481 310 q 499 304 492 307 q 507 310 503 307 q 511 318 511 314 z "},",":{"ha":149,"x_min":47,"x_max":125,"o":"m 125 3 q 89 42 125 42 q 60 33 72 42 q 47 4 47 24 q 52 -10 47 -4 q 63 -21 57 -17 q 73 -29 68 -25 q 78 -37 78 -33 q 70 -69 78 -49 q 56 -96 63 -89 q 82 -85 69 -96 q 104 -58 94 -74 q 119 -26 114 -43 q 125 3 125 -10 z "},"-":{"ha":578,"x_min":69,"x_max":511,"o":"m 511 318 q 508 324 511 321 q 493 349 500 332 q 472 367 486 367 q 467 365 469 367 q 359 353 414 356 q 251 351 304 351 q 176 353 219 351 q 103 364 133 356 q 79 369 89 369 q 69 361 69 369 q 73 353 69 361 q 81 335 76 344 q 89 319 85 326 q 93 311 93 311 l 96 310 q 105 313 99 310 q 115 317 111 315 q 151 321 129 319 q 196 322 172 322 q 242 322 219 322 q 279 322 264 322 q 318 322 289 322 q 380 322 347 322 q 440 319 413 321 q 474 314 468 317 q 486 308 481 310 q 499 304 492 307 q 507 310 503 307 q 511 318 511 314 z "},".":{"ha":117,"x_min":42,"x_max":103,"o":"m 103 22 q 97 43 103 33 q 78 53 90 53 q 52 42 63 53 q 42 18 42 32 q 49 -1 42 7 q 68 -10 57 -10 q 92 -1 81 -10 q 103 22 103 8 z "},"/":{"ha":507,"x_min":43,"x_max":507,"o":"m 507 857 q 496 861 506 861 q 472 858 483 861 q 447 854 460 854 q 417 847 424 854 q 411 814 411 839 l 411 801 q 403 763 411 783 q 389 726 396 743 q 288 449 338 588 q 185 172 238 311 q 155 99 169 136 q 125 24 140 61 q 104 -26 114 0 q 79 -75 94 -53 q 58 -100 72 -85 q 43 -125 43 -115 q 51 -134 43 -132 q 63 -136 58 -136 q 88 -132 75 -136 q 99 -135 93 -133 q 111 -136 104 -136 q 126 -119 126 -136 q 128 -93 126 -106 q 133 -65 129 -81 q 163 22 146 -21 q 194 108 179 65 q 255 273 225 192 q 317 438 285 354 q 360 556 339 497 q 406 672 382 614 q 428 729 417 700 q 456 785 440 758 q 480 821 467 804 q 507 857 493 838 z "},":":{"ha":200,"x_min":69,"x_max":131,"o":"m 131 540 q 124 561 131 551 q 106 571 118 571 q 80 561 90 571 q 69 536 69 551 q 77 517 69 525 q 96 510 85 510 q 119 518 108 510 q 131 540 131 526 m 131 251 q 124 272 131 263 q 106 282 118 282 q 80 272 90 282 q 69 247 69 263 q 77 228 69 236 q 96 221 85 221 q 119 229 108 221 q 131 251 131 238 z "},";":{"ha":210,"x_min":69,"x_max":140,"o":"m 131 544 q 124 565 131 556 q 106 575 118 575 q 80 565 90 575 q 69 540 69 554 q 77 521 69 529 q 96 513 85 513 q 119 522 108 513 q 131 544 131 531 m 140 244 q 133 272 140 261 q 107 282 125 282 q 83 274 94 282 q 71 251 71 267 q 83 229 71 239 q 94 208 94 219 q 88 182 94 200 q 75 157 81 164 q 85 150 78 150 q 104 162 94 150 q 122 190 114 174 q 135 221 131 206 q 140 244 140 236 z "},"<":{"ha":388,"x_min":68,"x_max":283,"o":"m 283 533 q 267 544 283 539 q 246 549 251 549 q 234 544 239 549 q 224 535 229 540 q 163 460 193 497 q 96 389 132 422 q 80 376 92 386 q 68 358 68 365 q 74 345 68 354 q 89 327 81 336 q 106 310 97 318 q 117 299 114 301 q 165 237 144 271 q 211 174 185 203 q 221 164 215 168 q 233 160 226 160 q 253 165 238 160 q 269 175 269 169 q 264 182 269 179 q 184 266 217 218 q 115 360 151 314 q 172 423 146 388 q 228 485 199 458 q 252 506 240 496 q 278 526 264 517 q 281 529 279 528 q 283 533 283 531 z "},"=":{"ha":578,"x_min":69,"x_max":511,"o":"m 511 382 q 508 386 511 383 q 494 413 500 396 q 472 429 488 429 l 467 429 q 359 417 414 418 q 251 415 304 415 q 176 417 219 415 q 103 428 133 418 q 92 431 97 429 q 79 432 86 432 q 69 425 69 432 q 73 417 69 425 q 81 399 76 408 q 89 382 85 390 q 93 374 93 374 l 96 374 q 105 376 99 374 q 115 379 111 378 q 151 385 129 383 q 196 386 172 386 q 242 386 219 386 q 279 386 264 386 q 318 385 289 386 q 380 384 347 385 q 440 381 413 383 q 474 376 468 379 q 486 372 481 374 q 499 368 492 371 q 507 374 503 369 q 511 382 511 378 m 511 236 q 508 240 511 238 q 494 267 500 250 q 472 283 488 283 q 467 282 469 283 q 359 270 414 272 q 251 268 304 268 q 176 270 219 268 q 103 281 133 272 q 79 286 89 286 q 69 278 69 286 q 73 269 69 278 q 81 252 76 261 q 89 235 85 243 q 93 228 93 228 l 96 226 q 105 229 99 226 q 115 233 111 232 q 151 238 129 236 q 196 239 172 239 q 242 239 219 239 q 279 239 264 239 q 318 239 289 239 q 380 238 347 239 q 440 235 413 238 q 474 231 468 233 q 486 225 481 226 q 499 221 492 224 q 507 227 503 224 q 511 236 511 231 z "},">":{"ha":389,"x_min":69,"x_max":285,"o":"m 285 358 q 272 376 285 365 q 256 389 260 386 q 190 460 221 422 q 128 535 160 497 q 118 544 124 540 q 106 549 113 549 q 85 544 101 549 q 69 533 69 539 q 75 526 69 529 q 100 506 88 517 q 125 485 113 496 q 180 423 154 458 q 236 360 206 388 q 167 266 200 314 q 88 182 135 218 q 83 175 83 178 q 99 165 83 169 q 119 160 114 160 q 132 164 126 160 q 142 174 138 168 q 188 237 168 203 q 236 299 208 271 q 247 310 239 301 q 263 327 254 318 q 278 345 271 336 q 285 358 285 354 z "},"?":{"ha":611,"x_min":68,"x_max":542,"o":"m 542 619 q 497 732 542 694 q 379 769 453 769 q 272 751 326 769 q 174 706 218 733 q 153 690 163 699 q 132 675 143 682 q 118 667 124 669 q 102 660 111 663 q 85 656 93 658 q 73 650 78 654 q 69 636 68 646 q 83 620 78 626 q 90 607 88 614 q 94 592 93 600 q 97 572 96 585 q 107 568 101 568 q 115 571 113 568 q 125 583 122 576 q 131 597 128 590 q 147 628 138 614 q 167 657 156 643 q 208 690 182 675 q 263 716 233 706 q 322 732 292 726 q 375 738 351 738 q 472 708 436 738 q 507 614 507 678 q 507 603 507 608 q 506 592 507 599 q 470 499 499 540 q 401 424 442 457 q 313 367 361 392 q 222 325 265 343 q 184 310 203 317 q 146 297 165 304 q 140 293 143 294 q 136 286 136 292 q 137 282 136 283 q 138 278 138 281 q 145 238 143 258 q 149 196 147 217 q 150 153 150 175 q 153 111 150 132 q 158 104 153 104 q 176 112 165 104 q 189 125 186 119 q 180 198 182 161 q 176 271 178 235 q 299 322 235 292 q 417 394 363 351 q 506 492 471 436 q 542 619 542 547 m 214 17 q 203 37 214 29 q 181 44 192 44 q 162 36 168 44 q 156 17 156 28 q 166 -10 156 6 q 189 -25 176 -25 q 207 -8 200 -25 q 214 17 214 8 z "},"@":{"ha":872,"x_min":133,"x_max":738,"o":"m 738 394 q 722 502 738 450 q 676 594 707 554 q 600 657 646 633 q 494 681 554 681 q 349 646 415 681 q 234 554 282 611 q 160 426 186 497 q 133 279 133 354 q 159 163 133 211 q 228 82 185 114 q 328 35 272 50 q 446 19 385 19 q 525 26 486 19 q 600 50 564 33 q 604 54 604 50 q 593 74 604 61 q 576 93 582 88 q 515 62 544 72 q 449 51 486 51 q 347 65 397 51 q 256 106 296 78 q 192 176 217 133 q 168 276 168 218 q 193 410 168 343 q 262 529 218 476 q 366 615 306 582 q 497 647 426 647 q 588 626 549 647 q 652 571 626 606 q 690 492 678 536 q 703 401 703 449 q 661 285 703 332 q 549 239 619 239 q 529 244 536 239 q 519 258 522 250 q 515 276 515 267 q 515 297 515 288 q 525 367 515 333 q 535 436 535 400 q 523 463 535 456 q 494 469 511 469 q 431 458 461 469 q 379 427 401 447 q 344 378 357 407 q 331 315 331 350 q 335 276 331 297 q 350 238 340 256 q 376 210 360 221 q 413 199 392 199 q 456 203 438 199 q 490 228 475 207 q 513 208 501 211 q 543 204 524 204 q 619 219 583 204 q 681 259 654 233 q 722 319 707 285 q 738 394 738 354 m 489 410 q 488 376 489 399 q 483 331 486 354 q 476 286 481 307 q 468 257 472 265 q 449 240 461 246 q 424 235 436 235 q 381 259 396 235 q 365 308 365 283 q 394 390 365 357 q 469 432 424 422 q 473 433 472 432 q 475 433 474 433 q 487 425 485 433 q 489 410 489 417 z "},"A":{"ha":792,"x_min":14,"x_max":781,"o":"m 781 0 q 763 14 781 7 q 735 38 744 21 q 699 108 725 54 q 637 233 672 161 q 563 383 601 304 q 494 531 525 463 q 442 648 463 600 q 421 703 421 696 q 430 726 421 717 q 439 749 439 735 q 429 760 439 760 q 411 753 419 760 q 396 742 403 747 q 377 733 388 735 q 358 728 367 731 q 344 723 350 726 q 338 710 338 719 q 346 694 338 697 q 354 679 354 692 q 351 667 354 675 q 264 459 308 563 q 171 253 219 356 q 146 197 160 228 q 117 135 132 167 q 85 75 101 104 q 51 24 68 46 q 33 12 42 11 q 15 3 25 13 q 15 0 15 1 q 14 -1 14 -1 q 21 -12 14 -8 q 32 -10 26 -10 q 46 -10 39 -10 q 77 -10 61 -10 q 108 -11 93 -11 q 119 -11 113 -11 q 129 -8 126 -11 l 129 -4 q 126 6 129 3 q 120 10 124 8 q 113 15 117 13 q 110 25 110 18 q 119 59 110 38 q 140 104 128 81 q 165 150 153 128 q 182 185 176 172 q 287 167 235 174 q 392 161 339 161 q 504 169 449 161 q 617 189 560 176 q 635 151 624 172 q 659 109 647 131 q 679 66 671 88 q 688 25 688 44 q 685 11 688 15 q 674 4 678 8 q 671 -7 669 0 l 671 -11 l 674 -11 q 701 -9 688 -11 q 729 -7 715 -7 q 775 -11 751 -7 q 781 0 781 -6 m 601 221 q 501 203 551 211 q 400 196 451 196 q 299 203 349 196 q 199 218 249 210 q 297 443 249 331 q 390 669 346 556 q 493 444 442 557 q 601 221 544 332 z "},"B":{"ha":764,"x_min":47,"x_max":700,"o":"m 700 381 q 683 463 700 426 q 638 526 667 500 q 571 567 610 553 q 488 582 532 582 q 472 582 481 582 q 456 581 464 582 q 465 606 463 590 q 468 633 468 622 q 453 681 468 663 q 417 709 439 699 q 369 724 396 719 q 321 728 343 728 q 231 719 278 728 q 144 694 185 710 q 122 686 136 690 q 92 676 107 682 q 65 663 78 669 q 49 649 53 657 l 49 644 q 52 634 47 636 q 64 632 57 632 q 90 626 79 632 q 103 603 100 621 q 104 583 104 599 q 104 551 104 569 q 105 518 104 535 q 106 494 106 501 q 110 132 110 313 q 108 81 110 108 q 99 31 106 54 q 96 19 97 25 q 94 8 94 14 q 97 -8 94 -1 q 111 -15 100 -15 q 114 -15 113 -15 q 117 -14 115 -14 q 269 10 199 0 q 404 43 340 21 q 526 105 468 65 q 639 215 583 144 q 683 294 667 251 q 700 381 700 336 m 438 626 q 429 595 438 610 q 408 567 421 581 q 382 541 396 553 q 357 519 368 529 q 250 436 306 475 q 139 357 194 397 q 136 494 142 426 q 131 633 131 563 q 131 643 131 636 q 132 654 131 650 q 224 685 171 674 q 321 697 278 697 q 358 694 338 697 q 395 683 378 692 q 425 661 413 675 q 438 626 438 647 m 663 382 q 648 302 663 342 q 608 231 633 263 q 509 133 563 169 q 397 74 456 96 q 272 40 338 51 q 136 18 207 29 q 142 84 140 51 q 143 150 143 117 q 142 229 143 190 q 140 308 140 268 q 153 322 140 311 q 184 348 165 333 q 226 380 203 363 q 269 413 249 397 q 305 440 289 428 q 326 456 321 451 q 356 478 338 464 q 395 508 375 493 q 435 533 415 522 q 467 546 454 543 q 481 547 474 547 q 494 547 488 547 q 616 502 569 547 q 663 382 663 457 z "},"C":{"ha":654,"x_min":24,"x_max":601,"o":"m 601 613 q 590 634 596 624 q 585 658 585 644 q 585 678 585 668 q 588 697 586 688 q 571 711 582 711 q 542 704 557 711 q 513 697 528 697 q 489 697 501 697 q 465 700 476 697 q 394 715 429 708 q 321 722 358 722 q 194 698 250 722 q 101 631 139 674 q 44 529 64 588 q 24 403 24 471 q 38 281 24 342 q 77 163 51 219 q 140 58 103 107 q 225 -31 178 8 q 327 -106 274 -71 q 436 -174 381 -142 q 467 -190 451 -182 q 499 -207 483 -197 q 529 -223 514 -215 q 561 -237 544 -231 l 564 -239 q 572 -223 571 -235 q 574 -204 574 -211 l 574 -196 q 539 -184 556 -192 q 506 -169 522 -176 q 378 -99 440 -137 q 258 -17 317 -61 q 176 66 213 18 q 113 168 139 114 q 73 281 88 222 q 58 397 58 340 q 75 505 58 453 q 123 598 92 557 q 201 664 154 639 q 308 689 247 689 q 408 681 360 689 q 503 650 456 672 q 524 640 514 644 q 543 628 533 635 q 563 611 550 622 q 583 600 575 600 q 601 613 596 600 z "},"D":{"ha":710,"x_min":40,"x_max":661,"o":"m 661 492 q 636 600 661 554 q 569 675 611 646 q 474 718 528 704 q 365 732 421 732 q 311 728 338 732 q 226 711 268 722 q 143 688 185 700 q 127 683 139 686 q 103 675 115 679 q 79 668 90 671 q 64 665 68 665 l 63 665 q 48 655 56 661 q 40 640 40 649 q 42 635 40 636 q 74 628 57 629 q 101 611 92 626 q 114 501 113 557 q 115 392 115 446 q 115 310 115 351 q 117 228 115 268 q 117 175 117 201 q 118 122 118 149 q 117 56 118 89 q 117 -8 117 24 q 119 -29 119 -18 q 129 -47 119 -40 q 201 -22 160 -39 q 283 15 242 -6 q 360 57 324 35 q 422 100 397 79 q 506 178 464 135 q 583 273 549 222 q 639 379 617 324 q 661 492 661 435 m 628 496 q 603 383 628 440 q 542 274 579 326 q 459 177 504 222 q 372 101 414 132 q 324 69 351 86 q 267 38 297 53 q 208 13 238 24 q 154 0 179 3 q 149 161 150 81 q 147 321 147 242 q 145 482 147 401 q 138 643 143 563 q 245 685 182 669 q 361 700 308 700 q 456 689 408 700 q 542 653 504 678 q 604 590 581 629 q 628 496 628 551 z "},"E":{"ha":556,"x_min":56,"x_max":519,"o":"m 519 533 q 516 549 518 539 q 507 558 514 558 q 498 556 504 558 q 483 549 492 553 q 467 540 475 544 q 456 535 460 536 q 403 525 443 529 q 318 518 364 521 q 231 514 272 515 q 175 513 190 513 q 104 518 136 513 q 98 592 97 554 q 96 667 99 629 q 119 672 100 669 q 159 675 138 674 q 200 677 181 676 q 228 678 219 678 q 273 669 251 678 q 301 661 294 661 q 311 675 311 661 q 310 681 311 678 q 310 686 310 683 q 308 703 310 694 q 307 722 307 713 l 307 729 q 297 733 303 733 q 288 731 292 733 q 279 726 283 729 q 255 717 269 721 q 225 709 240 713 q 195 704 210 706 q 169 703 181 703 q 132 704 150 703 q 94 706 114 706 q 78 706 83 706 q 69 704 72 706 q 63 698 65 703 q 56 685 60 693 q 65 631 61 672 q 71 531 68 589 q 75 404 74 472 q 77 272 76 336 q 78 153 78 207 q 78 69 78 99 q 76 46 78 58 q 75 22 75 33 q 77 1 75 7 q 94 -8 79 -4 q 138 -5 115 -6 q 182 -4 160 -4 q 326 0 254 0 q 359 -6 344 0 q 389 -12 374 -12 q 397 -9 392 -12 q 403 -3 403 -6 q 398 6 403 1 q 393 17 393 10 q 395 33 393 26 q 399 49 397 40 q 385 60 393 60 q 378 58 381 60 q 372 54 375 57 q 346 42 364 47 q 317 35 328 36 q 219 31 268 29 q 121 29 169 32 q 113 46 113 33 q 110 81 113 64 q 107 115 108 97 q 105 155 106 135 q 104 194 104 175 q 106 280 104 238 q 107 365 107 322 q 107 415 107 390 q 104 467 107 442 l 114 479 q 249 486 182 479 q 385 493 317 493 q 405 492 392 493 q 431 491 418 492 q 457 488 444 490 q 475 483 469 486 q 484 475 478 481 q 493 469 490 469 q 499 474 497 469 q 501 483 501 479 q 503 499 501 492 q 507 513 506 506 q 514 523 510 517 q 519 533 518 529 z "},"F":{"ha":561,"x_min":42,"x_max":525,"o":"m 525 557 q 511 568 519 568 q 494 563 506 568 q 475 554 482 557 q 435 546 461 549 q 378 542 408 543 q 322 540 349 540 q 278 539 294 539 l 206 539 q 153 539 179 539 q 100 540 126 539 q 90 565 90 549 q 87 603 90 585 q 83 640 83 621 q 89 672 83 660 q 110 674 94 674 q 144 675 126 675 q 179 675 163 675 q 206 675 196 675 q 238 675 219 675 q 271 671 257 675 q 290 658 278 668 q 306 649 301 649 q 319 652 313 649 q 325 664 325 656 q 322 678 325 671 q 319 692 319 685 q 321 708 319 700 q 322 725 322 717 q 319 731 322 728 l 315 732 q 285 722 299 733 q 257 707 272 711 q 240 703 251 704 q 217 702 229 703 q 192 701 204 701 q 174 701 181 701 q 124 702 156 701 q 76 708 92 703 q 68 717 76 717 q 45 711 49 717 q 42 688 42 706 q 47 670 42 679 q 54 653 51 661 q 60 601 60 629 q 60 549 60 574 q 54 535 60 538 q 49 525 49 532 q 58 508 49 511 q 68 401 65 456 q 74 293 71 347 q 81 131 78 211 q 85 -31 85 51 q 83 -47 85 -39 q 82 -62 82 -56 q 83 -70 82 -65 q 86 -75 83 -75 q 103 -68 92 -75 q 119 -58 114 -61 q 111 115 115 29 q 104 288 107 200 q 100 398 101 343 q 94 510 99 453 q 224 513 160 511 q 353 514 288 514 q 382 514 365 514 q 418 512 400 514 q 452 506 436 510 q 479 496 468 503 q 492 488 486 492 q 504 481 497 483 q 512 496 510 486 q 515 516 514 506 q 519 538 517 526 q 525 557 521 549 z "},"G":{"ha":682,"x_min":25,"x_max":618,"o":"m 618 511 l 606 529 q 587 523 596 526 q 568 519 578 519 q 546 522 557 519 q 524 524 535 524 q 514 519 517 524 q 508 508 511 514 q 528 491 513 501 q 550 469 543 481 q 558 447 557 458 q 560 422 560 435 l 560 182 q 560 144 560 167 q 560 100 560 124 q 558 57 560 78 q 554 22 557 36 q 541 18 547 19 q 528 17 535 17 q 524 17 525 17 q 519 18 522 18 q 363 78 432 42 q 221 165 294 115 q 105 290 150 214 q 60 453 60 365 q 81 560 60 515 q 140 636 103 606 q 228 681 178 667 q 338 696 279 696 q 421 688 381 696 q 460 670 442 683 q 486 638 479 657 q 492 625 489 632 q 503 618 496 618 q 513 626 510 618 q 515 639 515 633 q 515 681 515 658 q 531 719 515 704 q 525 726 528 722 q 518 729 522 729 q 498 722 511 729 q 471 714 485 714 q 462 715 465 714 q 453 717 458 715 q 401 726 428 724 q 346 728 374 728 q 226 713 285 728 q 124 665 168 697 q 52 584 79 633 q 25 465 25 535 q 58 302 25 378 q 158 171 92 226 q 239 113 192 143 q 338 54 286 82 q 440 6 389 26 q 535 -24 492 -15 q 547 -26 542 -25 q 560 -26 553 -26 q 581 -22 569 -26 q 589 -6 585 -14 q 593 13 593 3 q 592 206 593 110 q 592 400 592 303 q 597 458 592 429 q 618 511 603 486 z "},"H":{"ha":703,"x_min":46,"x_max":626,"o":"m 626 -26 q 607 0 622 -10 q 597 58 599 28 q 594 117 596 88 q 584 308 592 213 q 576 500 576 404 q 575 556 576 528 q 574 611 574 583 q 578 663 574 635 q 601 707 582 690 l 603 713 q 597 729 603 725 l 592 731 q 572 726 581 731 q 553 719 564 721 q 531 718 542 717 q 510 713 519 719 l 510 708 q 520 698 510 703 q 535 681 531 693 q 542 647 540 668 q 543 611 543 625 q 542 570 543 590 q 538 529 540 550 l 449 529 q 339 522 393 528 q 229 517 285 517 q 177 519 201 517 q 129 535 153 521 q 126 558 126 546 q 125 581 125 569 q 124 617 125 600 q 124 654 124 635 q 133 690 124 674 q 153 722 143 707 q 132 731 147 731 q 116 728 124 731 q 100 724 108 726 q 74 721 88 721 q 49 718 61 721 q 46 710 46 713 q 58 701 46 703 q 78 682 71 699 q 91 625 89 658 q 96 564 93 592 q 101 474 100 519 q 104 385 103 429 q 108 146 108 265 q 108 124 108 138 q 108 94 108 110 q 106 65 108 79 q 100 44 104 51 q 88 25 93 32 q 81 0 82 18 q 88 -6 83 -3 q 97 -10 92 -10 q 110 -6 104 -10 q 124 -3 117 -3 q 144 -6 135 -3 q 164 -10 154 -10 q 172 -6 169 -10 q 174 3 174 -1 q 160 26 174 10 q 144 61 147 42 q 142 136 142 99 q 139 211 142 174 q 134 331 136 271 q 132 450 132 390 q 132 469 132 460 q 133 489 132 479 q 210 485 171 485 q 343 491 276 485 q 478 497 410 497 q 509 497 493 497 q 542 494 525 496 q 553 290 544 392 q 563 85 563 188 l 563 14 q 551 -19 563 -7 q 539 -43 539 -32 q 542 -49 539 -47 q 549 -50 546 -50 q 590 -44 567 -50 q 626 -26 614 -39 z "},"I":{"ha":282,"x_min":75,"x_max":189,"o":"m 189 4 q 177 17 189 14 q 158 26 165 19 q 151 44 150 35 q 147 58 151 53 q 146 106 146 82 q 146 153 146 129 q 148 289 146 221 q 150 425 150 357 q 149 490 150 457 q 147 556 147 522 q 151 651 147 603 q 166 683 153 671 q 182 713 179 696 q 164 719 176 719 q 142 717 153 719 q 121 714 132 714 q 106 715 114 714 q 89 715 97 715 q 81 715 85 715 q 76 708 76 714 q 79 697 76 703 q 103 674 90 688 q 115 644 115 660 q 116 385 115 514 q 117 126 117 257 q 116 95 117 111 q 114 64 115 79 q 105 28 113 43 q 76 8 97 14 q 75 3 75 7 q 80 -5 75 -3 q 88 -11 85 -7 q 137 -7 113 -8 q 186 -6 161 -6 q 189 4 189 0 z "},"J":{"ha":333,"x_min":-356,"x_max":267,"o":"m 267 711 q 265 718 267 717 q 247 722 260 722 q 226 719 236 722 q 207 717 217 717 q 199 718 203 717 q 190 719 194 719 q 172 703 172 719 q 176 699 172 701 q 181 696 181 697 q 182 694 182 696 q 182 694 182 694 q 190 690 188 690 q 197 689 194 690 q 201 683 200 688 q 204 668 203 679 q 207 633 207 651 q 207 599 207 615 q 210 519 210 558 q 210 442 210 482 q 206 290 210 365 q 194 138 203 214 q 159 -22 188 58 q 81 -168 131 -103 q -37 -274 32 -233 q -196 -315 -107 -315 q -267 -308 -236 -315 q -332 -279 -299 -301 q -346 -292 -336 -282 q -356 -308 -356 -303 q -351 -312 -356 -312 q -282 -340 -314 -332 q -207 -347 -250 -347 q -27 -306 -104 -347 q 103 -197 50 -265 q 185 -43 156 -129 q 226 135 215 43 q 236 239 232 188 q 240 343 240 290 q 241 492 240 418 q 244 642 242 567 q 245 665 244 658 q 248 676 246 672 q 253 685 250 681 q 264 700 257 689 q 267 711 267 708 z "},"K":{"ha":801,"x_min":49,"x_max":765,"o":"m 765 10 q 764 19 765 15 q 763 28 763 24 q 763 32 763 31 q 764 36 764 33 q 637 170 699 101 q 518 313 575 239 q 421 439 469 376 q 322 564 372 501 q 376 620 350 589 q 435 671 403 651 q 447 675 440 674 q 461 678 454 676 q 473 685 468 681 q 478 699 478 689 q 467 708 478 708 l 435 708 q 412 714 422 708 q 389 721 401 719 q 383 710 386 715 q 381 700 381 706 q 382 693 381 697 q 383 685 383 689 q 367 654 383 674 q 325 611 350 635 q 269 561 300 588 q 208 512 238 535 q 156 472 179 489 q 122 447 132 454 q 121 469 121 458 q 121 492 121 481 q 122 575 121 533 q 124 658 124 617 q 128 672 126 665 q 133 686 129 679 q 140 695 136 690 q 144 703 144 700 q 135 712 144 710 q 119 714 125 714 q 98 710 108 714 q 76 706 88 706 q 58 706 67 706 q 49 692 49 707 q 56 684 49 686 q 68 679 64 682 q 74 670 71 676 q 81 660 78 664 q 86 642 83 656 q 90 628 89 629 q 90 586 90 618 q 88 519 89 554 q 86 456 88 485 q 83 426 85 428 q 78 424 81 424 q 75 418 75 425 q 69 406 69 410 q 76 391 69 397 q 88 382 82 385 q 92 238 92 310 q 93 94 93 167 q 92 61 93 72 q 78 31 92 50 q 69 11 69 19 q 74 -1 69 3 q 115 -3 94 -4 q 156 -4 135 -1 q 163 2 158 -1 q 167 10 167 6 q 161 19 167 15 q 149 29 156 24 q 135 41 142 35 q 129 56 129 47 q 124 113 126 82 q 122 174 122 143 q 121 236 121 206 q 121 293 121 267 q 121 349 121 321 q 124 406 121 378 q 207 474 164 442 q 293 539 250 507 q 431 368 363 453 q 569 200 499 283 q 659 97 614 149 q 754 -1 704 44 q 765 10 765 1 z "},"L":{"ha":578,"x_min":56,"x_max":542,"o":"m 542 3 q 525 38 529 21 q 517 61 521 56 q 512 65 515 63 q 506 67 508 67 q 501 65 503 67 q 496 61 499 63 q 464 43 476 47 q 428 36 451 39 q 277 28 353 32 q 126 18 201 24 q 115 322 114 171 q 113 628 115 474 l 113 632 q 115 665 113 647 q 126 696 118 683 l 133 721 q 122 726 129 724 q 111 729 114 729 q 97 724 104 729 q 83 718 90 719 q 68 715 81 717 q 56 706 56 713 q 63 688 56 701 q 72 669 69 675 q 78 647 76 658 q 81 625 79 636 q 83 517 83 571 q 85 408 83 463 q 87 217 86 313 q 88 25 88 121 q 87 6 88 15 q 88 -10 86 -3 q 97 -22 90 -18 q 115 -26 103 -26 q 129 -25 125 -26 q 192 -10 161 -14 q 258 -6 224 -7 q 349 -1 303 -4 q 439 1 394 1 q 461 1 450 1 q 485 -1 474 1 q 508 -10 497 -4 q 531 -19 518 -17 q 540 -10 538 -17 q 542 3 542 -4 z "},"M":{"ha":878,"x_min":42,"x_max":790,"o":"m 790 0 q 783 11 790 11 q 771 22 776 11 q 762 43 765 31 q 758 65 758 56 q 753 205 756 136 q 749 344 751 274 q 744 502 746 424 q 742 660 742 581 q 751 686 742 675 q 774 704 761 697 q 776 709 775 707 q 778 714 778 711 q 767 722 778 721 q 753 724 757 724 q 740 722 746 724 q 728 721 735 721 q 714 724 721 721 q 700 726 707 726 q 688 721 693 726 q 663 688 675 704 q 638 657 651 672 q 532 537 586 594 q 422 421 478 479 q 372 466 397 439 q 325 515 346 493 q 240 605 282 560 q 160 699 199 650 q 147 715 154 704 q 132 725 140 725 q 115 722 122 725 q 97 718 107 718 q 81 719 88 718 q 64 715 74 719 q 56 694 56 707 l 56 689 q 78 679 65 689 q 92 660 92 669 q 90 548 92 603 q 88 438 89 493 l 79 79 q 74 42 79 51 q 46 17 69 32 q 42 10 42 14 q 46 1 42 4 q 54 -3 50 -3 q 67 1 61 -3 q 82 4 74 4 q 100 2 92 4 q 117 0 108 0 q 135 -1 126 0 q 153 -1 144 -1 q 158 -1 156 -1 q 163 1 163 -1 q 147 22 163 8 q 128 46 132 36 q 120 74 122 56 q 117 113 118 93 q 117 153 117 133 q 117 185 117 172 q 121 426 117 307 q 131 668 125 546 q 220 573 175 619 q 310 479 265 526 q 355 430 331 457 q 400 383 379 403 q 410 376 404 379 q 424 372 417 372 q 440 382 433 372 q 499 444 469 411 q 557 510 529 478 q 632 594 594 551 q 704 681 669 636 l 704 674 q 710 388 701 531 q 719 103 719 246 q 715 60 719 85 q 697 22 710 35 q 689 13 696 19 q 682 4 682 7 q 688 1 682 1 q 707 3 697 1 q 728 4 717 4 q 756 0 743 4 q 783 -4 769 -4 q 790 0 790 -4 z "},"N":{"ha":739,"x_min":46,"x_max":656,"o":"m 656 742 q 647 750 656 750 q 636 746 640 750 q 628 738 632 742 q 619 731 621 733 q 611 725 618 729 q 587 716 603 721 q 572 700 571 711 q 593 675 588 692 q 604 644 599 658 q 611 600 608 633 q 615 528 614 567 q 615 453 615 489 q 615 401 615 417 q 614 224 615 313 q 613 49 613 136 q 567 106 589 76 q 521 165 544 136 q 451 256 485 210 q 382 349 417 303 q 248 524 315 436 q 117 703 181 611 q 86 710 103 710 q 75 697 75 710 q 76 686 75 690 q 78 654 78 671 q 78 622 78 639 q 80 390 78 506 q 82 157 82 275 q 82 133 82 149 q 82 101 82 118 q 81 71 82 85 q 76 51 79 57 q 67 34 72 43 q 56 18 61 25 q 49 13 53 15 q 46 7 46 11 q 50 1 46 4 q 57 -3 54 -1 q 68 0 63 0 q 79 0 74 0 q 104 -1 92 0 q 129 -1 117 -1 q 139 -1 131 -1 q 147 3 147 -1 q 144 8 147 3 q 138 20 142 14 q 130 33 133 26 q 125 42 126 39 q 117 83 118 61 q 115 124 117 104 q 113 297 114 211 q 113 471 113 383 q 113 557 113 515 q 115 644 113 600 q 272 437 194 540 q 429 229 350 333 q 485 156 457 193 q 540 83 513 119 q 577 36 558 60 q 615 -11 596 13 q 624 -10 617 -11 q 638 -7 631 -8 q 649 -3 644 -6 q 653 3 654 -1 q 649 186 649 94 q 650 319 649 253 q 651 451 651 385 q 649 541 651 496 q 647 631 647 586 q 649 667 647 649 q 651 704 650 685 q 654 722 653 713 q 656 742 656 732 z "},"O":{"ha":824,"x_min":56,"x_max":768,"o":"m 768 338 q 744 479 768 413 q 675 598 719 546 q 568 683 631 650 q 431 722 506 715 q 423 717 424 726 q 422 706 422 707 q 423 693 422 700 q 428 682 424 686 q 434 678 431 679 q 440 678 438 678 l 453 678 q 568 639 517 668 q 656 565 619 610 q 711 465 692 521 q 731 344 731 408 q 711 226 731 285 q 656 122 692 168 q 567 48 619 76 q 451 19 515 19 l 444 21 q 443 10 443 15 q 443 0 443 4 q 444 -14 443 -1 q 451 -22 444 -26 q 491 -15 471 -19 q 531 -3 511 -10 q 631 48 586 14 q 706 128 675 82 q 752 227 736 174 q 768 338 768 281 m 390 -8 q 389 7 390 -1 q 385 21 388 15 q 264 51 318 21 q 172 128 210 81 q 113 237 133 176 q 92 358 92 297 q 106 458 92 410 q 148 549 121 507 q 215 622 175 590 q 303 671 254 654 q 339 679 322 678 q 375 681 356 681 q 381 713 381 693 q 380 721 381 715 q 376 726 379 726 q 374 726 375 726 q 374 725 374 725 q 247 686 304 718 q 146 606 189 654 q 79 494 103 557 q 56 364 56 432 q 74 239 56 300 q 128 126 93 178 q 216 39 164 75 q 333 -11 268 3 q 343 -13 335 -11 q 360 -17 351 -15 q 377 -20 369 -18 q 385 -22 385 -22 q 390 -16 389 -21 q 390 -8 390 -11 z "},"P":{"ha":669,"x_min":58,"x_max":622,"o":"m 622 499 q 600 610 622 567 q 539 678 578 653 q 448 713 500 703 q 338 722 396 722 q 303 722 328 722 q 247 721 278 722 q 183 717 217 719 q 122 709 150 714 q 76 696 94 704 q 58 676 58 688 q 71 658 58 667 q 90 643 83 650 q 88 282 88 461 q 81 -78 88 104 q 117 -89 99 -89 q 121 -89 118 -89 q 124 -86 124 -89 l 124 -83 q 123 -9 124 -46 q 122 65 122 28 l 122 104 q 276 151 190 118 q 440 233 363 183 q 569 350 517 283 q 622 499 622 417 m 588 494 q 564 405 588 447 q 502 325 540 363 q 415 257 464 288 q 315 203 367 226 q 214 165 264 179 q 125 144 164 150 q 126 226 125 185 q 126 308 126 268 l 126 390 q 126 526 126 458 q 125 661 125 593 q 133 672 125 669 q 147 678 140 675 q 233 687 190 682 q 319 692 275 692 q 419 684 371 692 q 504 655 467 676 q 565 594 542 633 q 588 494 588 556 z "},"Q":{"ha":821,"x_min":46,"x_max":774,"o":"m 774 340 q 758 451 774 396 q 712 556 742 507 q 640 642 682 604 q 543 701 597 681 q 490 717 519 711 q 436 722 461 722 q 424 713 426 722 q 421 697 421 704 q 422 691 421 694 q 422 685 422 688 q 549 656 492 685 q 649 581 607 628 q 713 472 690 533 q 736 344 736 411 q 699 194 736 265 q 597 75 661 122 q 501 126 553 100 q 397 153 449 153 q 312 126 347 153 q 250 60 276 99 q 126 181 171 104 q 82 347 82 257 q 103 469 82 408 q 162 576 124 529 q 254 653 200 624 q 374 682 308 682 q 375 703 375 689 q 375 715 375 706 q 369 725 375 725 q 368 724 368 725 q 367 724 368 724 q 238 683 296 715 q 136 601 179 650 q 69 488 93 551 q 46 354 46 425 q 74 209 46 276 q 151 90 101 142 q 267 10 200 39 q 413 -19 335 -19 q 597 33 514 -19 q 617 22 601 31 q 649 4 632 14 q 681 -13 667 -6 q 697 -21 696 -21 q 716 -8 707 -21 q 725 13 725 4 q 721 18 725 15 q 675 35 697 26 q 631 57 653 44 q 734 183 694 108 q 774 340 774 257 m 565 54 q 418 15 497 15 q 285 42 353 15 q 333 99 304 78 q 403 121 363 121 q 489 100 446 121 q 565 54 532 79 z "},"R":{"ha":631,"x_min":42,"x_max":589,"o":"m 589 -1 q 548 20 574 6 q 492 54 522 35 q 428 95 461 74 q 366 138 396 117 q 313 176 336 158 q 276 206 289 194 q 353 269 311 232 q 432 351 396 307 q 492 443 468 394 q 517 540 517 492 q 483 634 517 599 q 402 689 450 669 q 299 715 354 708 q 201 721 244 721 q 135 719 174 721 q 71 710 96 717 q 59 706 64 707 q 47 703 54 704 q 42 694 42 701 q 43 685 42 688 q 58 672 51 676 q 72 662 65 667 q 83 650 78 657 q 89 629 88 643 q 91 603 92 617 q 90 578 90 590 l 93 460 q 99 268 96 364 q 103 76 101 172 l 104 72 q 102 48 104 65 q 94 25 100 31 q 77 15 89 18 q 67 0 65 11 l 67 -4 q 81 -11 74 -10 q 97 -12 89 -12 q 110 -11 104 -12 q 122 -10 115 -10 q 137 -11 129 -10 q 151 -12 144 -12 q 167 -10 161 -12 q 172 4 172 -7 q 163 11 172 4 q 151 22 154 18 q 138 58 140 35 q 135 96 135 81 q 135 112 135 104 q 136 126 136 119 q 160 138 144 131 q 193 154 176 146 q 224 172 210 163 q 244 186 238 181 q 274 163 249 181 q 333 120 299 144 q 406 69 367 96 q 480 19 446 42 q 537 -17 514 -3 q 563 -32 560 -32 q 578 -20 569 -32 q 589 -1 588 -8 m 479 540 q 443 424 479 482 q 355 314 407 365 q 242 223 303 263 q 135 163 182 183 l 135 175 q 129 417 138 297 q 121 658 121 536 q 128 678 121 675 q 150 685 135 682 q 182 688 165 688 q 217 688 200 688 q 298 683 253 688 q 383 663 343 678 q 451 618 424 647 q 479 540 479 589 z "},"S":{"ha":592,"x_min":-176,"x_max":549,"o":"m 549 217 q 531 324 549 276 q 481 407 513 371 q 404 469 449 443 q 308 517 360 496 q 264 533 296 522 q 199 555 232 543 q 138 578 165 567 q 104 597 110 589 q 86 647 86 619 q 110 682 86 672 q 156 692 135 692 q 210 678 186 692 q 253 650 235 665 q 281 622 271 635 q 293 608 290 608 q 303 613 300 608 q 306 624 306 618 q 302 646 306 635 q 299 668 299 657 q 301 681 299 675 q 303 694 303 688 q 302 702 303 697 q 296 707 301 707 q 276 700 285 707 q 257 693 268 693 q 210 704 233 693 q 164 715 188 715 q 126 713 146 715 q 89 703 106 710 q 61 681 72 696 q 50 644 50 667 q 75 581 50 607 q 133 544 93 561 q 220 511 174 528 q 312 478 267 494 q 386 443 357 461 q 480 347 444 406 q 515 218 515 289 q 463 54 515 121 q 333 -53 411 -12 q 163 -112 254 -94 q -8 -131 71 -131 q -87 -126 -49 -131 q -165 -114 -125 -121 l -172 -117 q -176 -140 -176 -129 q -174 -153 -176 -144 q -87 -161 -131 -158 q -1 -164 -44 -164 q 119 -155 56 -164 q 243 -127 182 -146 q 360 -78 304 -108 q 457 -6 415 -49 q 524 92 499 36 q 549 217 549 147 z "},"T":{"ha":649,"x_min":14,"x_max":610,"o":"m 610 731 l 603 742 q 596 744 600 744 q 589 742 592 744 q 583 738 586 740 q 558 721 574 726 q 528 713 543 715 q 439 706 483 706 q 350 707 394 707 q 247 708 299 707 q 144 707 196 708 q 123 708 138 707 q 93 712 108 710 q 64 717 78 714 q 44 725 50 721 q 35 731 38 731 q 24 732 33 731 q 14 721 14 729 q 21 701 14 713 q 28 678 28 689 q 26 669 28 672 q 25 661 25 665 q 36 650 25 650 q 58 658 44 650 q 78 669 71 667 q 118 677 92 676 q 160 678 144 678 q 216 677 188 678 q 272 676 244 676 l 292 676 q 296 289 296 482 l 296 140 l 296 107 q 294 69 296 92 q 282 32 293 46 q 272 20 278 25 q 264 8 267 15 q 282 -6 264 -6 q 303 -2 293 -6 q 324 1 313 1 q 337 -1 331 1 q 350 -4 343 -4 q 367 -3 361 -4 q 369 10 369 6 q 366 18 369 15 q 358 24 363 21 q 340 51 340 39 q 336 85 339 64 q 330 138 331 111 q 329 190 329 164 q 327 270 328 231 q 326 350 326 310 l 326 457 q 327 567 326 513 q 328 676 328 621 q 389 678 358 679 q 450 679 419 676 l 482 679 q 515 678 499 679 q 549 675 532 678 q 569 667 563 672 q 583 650 575 661 q 594 653 589 651 q 604 660 600 654 q 601 682 601 674 q 604 706 601 694 q 610 731 607 718 z "},"U":{"ha":756,"x_min":42,"x_max":685,"o":"m 685 706 q 672 714 681 714 q 647 710 660 714 q 624 707 635 707 q 602 712 613 707 q 581 717 592 717 q 569 714 576 717 q 563 706 563 711 q 576 687 563 694 q 597 672 590 679 q 616 634 614 654 q 619 590 618 614 q 625 492 622 542 q 628 392 628 442 q 620 263 628 328 q 588 145 613 197 q 517 59 564 93 q 392 24 471 25 q 388 8 389 17 q 386 -8 386 -1 q 387 -14 386 -10 q 390 -18 388 -18 q 393 -17 392 -18 q 433 -10 413 -14 q 474 0 454 -6 q 574 60 536 18 q 631 157 611 103 q 656 271 650 211 q 663 386 663 331 q 658 502 663 444 q 653 618 653 560 q 656 654 653 638 q 674 685 660 671 l 685 706 m 342 -7 q 336 24 342 11 q 300 26 318 25 q 264 33 282 28 q 174 88 207 49 q 125 179 142 128 q 103 287 108 231 q 99 392 99 343 q 101 492 99 442 q 107 590 104 542 q 110 634 107 614 q 129 672 113 654 q 150 687 136 679 q 164 706 164 694 q 157 714 164 711 q 146 717 150 717 q 124 712 135 717 q 101 707 113 707 q 78 710 90 707 q 54 714 67 714 q 42 706 43 714 l 53 685 q 70 654 67 671 q 74 618 74 638 q 69 501 74 560 q 64 385 64 443 q 70 268 64 329 q 97 153 76 207 q 154 58 117 99 q 256 0 192 17 q 335 -17 294 -11 q 338 -18 336 -18 q 341 -14 340 -18 q 342 -7 342 -10 z "},"V":{"ha":778,"x_min":13,"x_max":722,"o":"m 722 704 q 711 717 722 717 q 684 714 697 717 q 657 711 671 711 q 641 714 649 711 q 625 717 633 717 q 611 703 611 717 q 615 681 611 692 q 618 660 618 671 q 613 624 618 642 q 600 592 607 607 q 481 312 538 451 q 356 35 424 172 q 327 100 349 50 q 278 217 306 150 q 220 357 250 283 q 165 494 190 431 q 124 603 140 558 q 107 654 107 647 q 113 675 107 667 q 125 694 119 683 q 125 704 125 697 q 118 710 125 711 q 108 713 113 713 q 95 710 101 713 q 82 708 89 708 q 54 711 68 708 q 25 714 40 714 q 15 709 17 714 q 13 697 13 704 q 17 693 13 693 q 57 655 40 675 q 85 607 74 635 q 164 409 125 507 q 243 211 203 311 q 285 106 264 158 q 329 1 306 53 q 338 -15 333 -8 q 353 -29 343 -22 q 363 -23 358 -28 q 371 -14 368 -18 q 391 24 381 3 q 412 69 401 46 q 431 114 422 92 q 449 154 440 136 q 519 319 485 238 q 590 485 554 401 q 625 567 608 525 q 663 647 642 608 q 678 667 668 658 q 697 681 688 675 q 713 691 706 688 q 722 697 721 694 l 722 704 z "},"W":{"ha":1150,"x_min":53,"x_max":1078,"o":"m 1078 713 q 1074 718 1078 717 q 1067 719 1069 719 q 1044 715 1056 719 q 1022 711 1033 711 q 1001 713 1011 711 q 982 715 992 715 q 968 713 975 715 q 961 703 961 710 q 968 688 961 696 q 975 657 975 681 q 972 624 975 640 q 967 593 969 608 q 953 547 963 572 q 935 496 944 522 q 915 445 925 469 q 897 401 904 421 q 822 214 860 307 q 744 28 785 121 q 668 165 707 97 q 588 300 629 232 q 603 328 596 314 q 618 356 611 342 q 640 390 629 374 q 661 424 650 407 q 643 440 657 431 q 622 449 629 449 q 619 447 619 449 l 619 446 q 612 427 615 436 q 604 408 608 418 q 586 371 596 389 q 565 335 576 353 q 535 386 549 358 q 510 442 522 414 q 509 442 510 442 q 507 443 508 443 q 490 436 500 443 q 475 425 479 429 q 467 418 467 422 q 471 410 467 414 q 508 353 490 382 q 544 297 526 325 q 472 159 507 228 q 394 24 436 90 q 331 185 363 104 q 267 346 299 265 q 221 462 243 404 q 179 578 199 519 q 166 620 172 599 q 160 665 160 642 q 163 692 160 678 q 167 717 167 706 q 163 719 167 719 q 146 717 154 719 q 129 715 138 715 q 101 719 114 715 q 72 724 88 724 q 60 722 68 724 q 53 714 53 721 q 66 699 53 707 q 83 685 79 692 q 109 651 97 669 q 128 613 121 632 q 248 301 190 457 q 372 -11 306 144 q 394 -21 382 -21 q 414 -15 403 -21 q 492 124 454 54 q 568 265 529 194 q 588 231 574 256 q 619 177 601 207 q 655 114 636 147 q 690 53 674 81 q 716 6 706 25 q 729 -14 726 -12 q 749 -21 739 -21 q 768 -11 763 -21 q 785 23 778 4 q 799 58 792 42 q 826 126 813 93 q 853 194 839 160 q 934 403 893 299 q 1011 614 975 507 q 1043 674 1024 646 q 1053 685 1044 675 q 1069 703 1063 694 q 1078 713 1076 711 z "},"X":{"ha":715,"x_min":14,"x_max":701,"o":"m 701 0 q 697 6 701 4 q 690 11 693 8 q 654 27 672 19 q 622 50 636 35 q 576 105 599 76 q 529 161 553 133 q 445 264 488 213 q 363 368 403 315 q 451 488 407 429 q 536 608 494 547 q 553 631 543 618 q 575 657 564 644 q 598 681 586 669 q 621 697 610 692 q 628 701 624 699 q 632 708 632 703 q 624 718 632 715 q 610 721 615 721 q 588 715 599 721 q 567 710 578 710 q 550 712 558 710 q 533 714 542 714 q 528 714 531 714 q 525 711 525 714 q 526 698 525 704 q 526 685 526 692 q 519 651 526 665 q 481 588 503 621 q 433 521 458 554 q 383 456 408 488 q 336 394 358 424 q 289 453 315 421 q 237 520 263 486 q 188 587 211 554 q 149 649 164 619 q 143 669 144 658 q 142 690 142 681 q 143 702 142 694 q 138 710 144 710 q 123 707 131 710 q 108 704 115 704 q 83 708 94 704 q 57 713 71 713 q 47 711 53 713 q 40 703 40 710 q 49 690 40 699 q 153 577 106 638 q 246 454 200 517 q 279 410 263 432 q 314 367 296 388 q 257 290 286 328 q 199 213 228 251 q 142 138 171 175 q 85 64 114 100 q 58 38 74 49 q 25 18 43 26 q 18 15 22 17 q 14 7 14 13 q 22 -3 14 0 q 36 -6 31 -6 q 55 -3 46 -6 q 74 0 64 0 q 88 -1 81 0 q 103 -3 96 -3 q 119 -2 110 -3 q 129 8 129 -1 q 127 22 129 15 q 125 36 125 29 q 133 60 125 49 q 147 82 140 72 q 242 212 193 149 q 339 340 290 275 q 421 241 381 292 q 501 140 461 190 q 546 85 524 113 q 589 31 568 58 q 594 19 594 25 q 590 -1 594 8 q 585 -21 585 -10 q 588 -24 585 -24 q 592 -24 590 -24 q 625 -19 608 -24 q 660 -14 642 -14 q 671 -14 664 -14 q 685 -12 678 -14 q 697 -8 692 -11 q 701 0 701 -6 z "},"Y":{"ha":757,"x_min":19,"x_max":708,"o":"m 708 718 q 699 724 708 724 q 674 720 686 724 q 649 717 663 717 q 633 720 640 717 q 619 724 626 724 q 608 722 613 724 q 597 718 603 719 q 594 713 594 715 q 601 699 594 706 q 608 685 608 693 q 595 651 608 672 q 562 603 582 629 q 517 547 542 576 q 467 492 492 518 q 423 445 443 467 q 393 414 403 424 q 378 406 386 406 q 374 406 375 406 q 369 407 372 407 q 286 500 331 456 q 200 590 242 544 q 162 631 182 610 q 128 674 142 651 q 122 689 122 681 q 128 707 122 699 q 133 718 133 715 q 126 721 133 721 q 117 721 119 721 q 92 716 103 721 q 67 711 81 711 q 54 712 60 711 q 42 713 49 713 q 27 710 35 713 q 19 701 19 708 q 30 683 19 685 q 50 678 40 682 q 69 669 64 672 q 101 642 78 664 q 153 590 124 621 q 217 525 183 560 q 278 458 250 490 q 328 399 307 425 q 357 364 350 374 q 360 335 358 361 q 362 277 361 308 q 363 218 363 246 q 363 183 363 190 q 363 155 363 172 q 364 118 364 138 q 363 83 364 100 q 361 56 363 65 q 353 36 360 46 q 339 18 346 26 q 326 3 332 10 q 319 -4 319 -3 q 322 -8 319 -7 q 328 -8 325 -8 q 350 -3 339 -8 q 374 1 361 1 q 399 -1 386 1 q 424 -4 411 -4 q 433 6 433 -4 q 428 15 433 11 q 418 26 424 19 q 407 40 413 32 q 400 63 401 49 q 397 107 397 85 q 397 154 397 131 q 398 222 397 188 q 399 290 399 256 q 399 319 400 306 q 400 347 399 333 q 408 373 401 358 q 422 396 415 388 q 542 533 485 464 q 661 671 600 603 q 672 681 664 675 q 688 694 679 688 q 702 707 696 700 q 708 718 708 714 z "},"Z":{"ha":596,"x_min":28,"x_max":560,"o":"m 560 10 q 545 18 560 11 q 525 32 531 25 q 513 49 518 39 q 496 60 507 60 q 482 52 492 60 q 468 42 472 44 q 449 36 463 38 q 421 34 436 35 q 392 33 406 33 q 369 33 378 33 q 226 31 297 31 q 82 29 154 32 q 167 169 122 101 q 256 308 211 238 q 366 494 313 401 q 481 679 419 588 q 485 689 482 685 q 488 700 488 693 q 483 707 488 704 q 474 714 479 714 q 460 713 467 714 q 446 711 453 711 q 415 712 431 711 q 382 713 399 713 q 248 712 315 713 q 114 711 181 711 q 97 692 104 711 q 89 665 89 674 q 93 660 89 660 q 99 662 93 660 q 113 666 106 664 q 126 670 119 668 q 135 672 132 672 q 155 676 146 675 q 175 678 164 676 q 206 680 190 679 q 236 681 221 681 q 270 679 253 681 q 304 678 288 678 q 329 678 310 678 q 371 678 350 678 q 411 676 393 678 q 432 672 429 675 q 338 506 388 588 q 238 343 288 425 q 135 181 188 260 q 32 19 82 103 q 30 11 32 15 q 28 4 28 7 q 38 -3 28 -3 q 51 -4 49 -4 q 108 -3 79 -4 q 165 -1 136 -1 q 240 -2 203 -1 q 315 -3 278 -3 q 360 -1 339 -3 q 406 0 382 0 q 462 -3 433 0 q 518 -6 490 -6 q 538 -6 524 -6 q 554 0 551 -6 q 560 10 560 6 z "},"[":{"ha":360,"x_min":69,"x_max":388,"o":"m 388 -174 q 383 -164 388 -168 q 372 -156 378 -160 q 362 -144 367 -151 q 357 -124 357 -137 q 350 -119 354 -119 q 337 -123 343 -119 q 325 -128 331 -126 q 275 -137 306 -135 q 222 -139 244 -139 q 174 -137 199 -139 q 125 -133 150 -136 q 123 -84 122 -110 q 124 -35 124 -58 q 122 54 122 10 q 122 144 122 100 q 123 373 122 260 q 125 600 124 486 q 126 681 125 640 q 128 763 126 722 q 128 813 128 788 q 132 863 129 838 q 187 866 160 864 q 242 868 214 868 q 284 866 263 868 q 325 857 306 864 q 337 851 331 854 q 349 847 343 847 q 357 853 354 847 q 362 873 357 865 q 372 885 367 881 q 381 892 376 889 q 386 899 386 894 q 373 906 386 906 q 356 907 360 907 q 278 904 317 907 q 201 901 240 901 q 151 902 178 901 q 103 910 125 903 q 87 918 99 913 q 72 924 75 924 q 69 921 69 924 l 69 918 q 79 864 72 890 q 88 810 86 838 l 88 774 q 85 334 88 553 q 82 -104 82 115 q 81 -129 82 -119 q 78 -147 81 -139 q 74 -165 76 -156 q 69 -189 72 -175 l 69 -193 q 72 -194 69 -194 q 87 -189 75 -194 q 103 -182 99 -183 q 133 -178 108 -181 q 188 -175 158 -176 q 244 -173 218 -174 q 279 -172 271 -172 q 322 -177 301 -172 q 365 -182 343 -182 q 378 -181 369 -182 q 388 -174 388 -181 z "},"\\":{"ha":507,"x_min":47,"x_max":508,"o":"m 508 -125 q 494 -100 508 -115 q 472 -75 479 -85 q 447 -26 457 -53 q 426 24 438 0 q 397 99 411 61 q 367 172 382 136 q 264 449 314 311 q 163 726 214 588 q 148 763 156 742 q 140 801 140 785 l 140 814 q 135 847 142 839 q 104 854 128 854 q 83 856 93 854 q 64 857 74 857 q 47 850 50 857 q 72 818 60 833 q 96 785 85 803 q 123 729 111 758 q 146 672 135 700 q 191 556 169 614 q 235 438 213 497 q 297 273 267 354 q 357 108 326 192 q 389 22 372 65 q 418 -65 406 -21 q 425 -112 425 -90 q 426 -128 425 -121 q 440 -136 426 -136 q 453 -135 447 -136 q 464 -132 458 -133 q 489 -136 476 -136 q 501 -134 493 -136 q 508 -125 508 -132 z "},"]":{"ha":360,"x_min":-28,"x_max":290,"o":"m 290 921 q 288 924 290 924 q 273 918 285 924 q 256 910 261 913 q 208 902 236 903 q 158 901 179 901 q 81 904 119 901 q 4 907 43 907 q -13 906 0 907 q -26 899 -26 906 q -22 892 -26 894 q -12 885 -17 889 q -2 873 -7 881 q 3 853 3 865 q 10 847 6 847 q 22 851 15 847 q 35 857 29 854 q 76 866 54 864 q 117 868 97 868 q 172 866 144 868 q 228 863 200 864 q 231 813 231 838 q 232 763 231 788 q 233 681 233 722 q 235 600 233 640 q 237 373 236 486 q 238 144 238 260 q 238 54 238 100 q 236 -35 238 10 q 236 -83 236 -58 q 233 -133 236 -110 q 185 -137 210 -136 q 136 -139 161 -139 q 84 -137 114 -139 q 35 -128 54 -135 q 22 -123 28 -126 q 10 -119 15 -119 q 3 -124 4 -119 q -2 -144 3 -137 q -12 -156 -7 -151 q -23 -164 -18 -160 q -28 -174 -28 -168 q -19 -181 -28 -181 q -7 -182 -10 -182 q 37 -177 15 -182 q 81 -172 58 -172 q 115 -173 89 -172 q 172 -175 142 -174 q 226 -178 201 -176 q 256 -182 251 -181 q 273 -189 261 -183 q 288 -194 285 -194 q 290 -193 290 -194 l 290 -189 q 285 -165 288 -175 q 281 -147 283 -156 q 278 -129 279 -139 q 278 -104 278 -119 q 275 334 278 115 q 272 774 272 553 q 272 791 272 782 q 272 810 271 800 q 281 864 274 838 q 290 918 288 890 l 290 921 z "},"^":{"ha":418,"x_min":46,"x_max":357,"o":"m 357 442 q 353 452 357 449 q 346 458 350 456 q 282 522 310 485 q 224 592 254 560 q 213 603 221 594 q 201 613 204 613 q 190 603 197 613 q 179 592 182 594 q 121 522 151 561 q 57 458 90 482 q 46 442 46 451 q 51 423 46 436 q 61 410 56 410 q 65 414 65 410 q 132 488 96 454 q 200 558 168 521 q 256 499 226 526 q 314 440 286 472 q 325 426 319 433 q 336 411 331 418 q 339 410 338 411 q 342 408 340 408 q 352 422 347 408 q 357 442 357 436 z "},"_":{"ha":697,"x_min":49,"x_max":649,"o":"m 649 36 q 640 47 649 47 q 611 42 625 47 q 582 35 597 36 q 529 33 556 32 q 475 32 503 33 q 421 29 447 29 q 367 29 394 29 q 258 28 313 29 q 149 31 203 28 q 108 32 129 31 q 68 33 88 33 q 57 33 65 33 q 49 28 49 32 q 53 19 49 25 q 58 7 57 14 q 63 -9 60 0 q 75 -18 65 -18 q 83 -15 78 -18 q 90 -10 88 -12 q 106 -7 97 -7 q 121 -6 114 -7 q 330 2 225 1 q 539 3 435 3 q 576 -5 558 3 q 613 -12 594 -12 q 623 -6 617 -12 q 635 8 629 0 q 644 24 640 15 q 649 36 649 32 z "},"`":{"ha":443,"x_min":144,"x_max":299,"o":"m 299 839 q 297 848 299 843 q 294 857 296 853 q 278 878 296 878 q 271 877 275 878 q 264 878 267 876 q 235 891 254 879 q 198 916 217 903 q 165 940 179 929 q 151 950 151 950 q 146 939 147 950 q 144 925 144 928 q 160 901 144 908 q 188 886 167 899 q 231 860 208 874 q 270 836 253 847 q 288 825 288 825 q 294 831 290 825 q 299 839 299 836 z "},"a":{"ha":585,"x_min":7,"x_max":567,"o":"m 567 274 q 558 285 563 281 q 549 294 553 289 q 517 342 538 310 q 472 416 496 375 q 421 502 447 457 q 372 588 394 547 q 334 663 350 629 q 313 713 318 696 q 293 724 303 721 q 281 719 288 721 q 272 711 275 717 q 261 692 265 703 q 251 672 257 682 l 207 589 q 135 458 171 522 q 63 328 100 393 q 40 288 51 308 q 15 247 28 267 q 10 241 13 243 q 7 233 7 239 q 13 226 7 229 q 25 221 18 224 q 39 216 32 218 q 49 214 46 214 q 88 301 64 260 q 135 383 111 342 q 278 406 206 394 q 419 438 350 417 q 481 340 447 392 q 533 239 514 288 q 555 253 544 243 q 567 274 565 263 m 403 467 q 278 440 342 451 q 153 422 215 428 q 222 544 189 483 q 292 664 254 606 q 347 565 321 615 q 403 467 372 515 z "},"b":{"ha":515,"x_min":42,"x_max":457,"o":"m 457 460 q 445 513 457 490 q 414 549 433 535 q 369 571 394 564 q 315 578 343 578 q 300 578 308 578 q 285 576 292 578 q 324 608 308 585 q 340 657 340 632 q 324 697 340 681 q 284 722 307 713 q 235 735 261 731 q 192 739 210 739 q 158 737 182 739 q 108 729 133 735 q 62 715 82 724 q 42 694 42 707 q 47 675 42 685 q 54 656 51 665 q 60 588 60 624 q 63 519 61 551 q 67 384 65 451 q 68 249 68 317 q 66 234 68 242 q 64 219 64 226 q 56 206 57 213 q 56 190 56 199 q 57 179 56 186 q 65 172 58 172 q 77 175 68 172 q 90 179 86 178 q 199 218 136 194 q 319 276 261 242 q 417 355 376 310 q 457 460 457 400 m 307 656 q 281 612 307 632 q 219 577 254 592 q 147 553 183 563 q 93 540 111 544 q 90 609 93 575 q 88 676 88 643 l 88 683 q 110 697 96 692 q 140 705 124 703 q 173 708 157 707 q 200 708 189 708 q 231 707 213 708 q 266 700 249 706 q 295 684 283 694 q 307 656 307 674 m 422 458 q 387 367 422 406 q 301 301 351 329 q 197 253 251 272 q 103 221 142 235 q 97 364 96 293 q 94 506 99 435 q 142 523 115 515 q 198 536 169 531 q 254 544 226 542 q 306 547 282 547 q 347 542 326 547 q 385 526 368 538 q 412 499 401 515 q 422 458 422 482 z "},"c":{"ha":482,"x_min":21,"x_max":447,"o":"m 447 313 q 447 328 447 315 q 440 340 446 340 q 438 340 439 340 q 436 339 438 339 q 385 306 408 319 q 338 283 361 293 q 288 269 314 274 q 226 265 261 265 q 94 309 135 265 q 53 443 53 353 q 69 531 53 488 q 113 609 85 575 q 181 665 142 643 q 268 686 221 686 q 312 683 294 686 q 353 663 329 679 q 357 660 353 660 q 361 666 358 660 q 367 680 364 672 q 372 695 369 688 q 378 706 375 703 q 333 716 357 714 q 288 718 310 718 q 178 697 226 718 q 94 640 129 676 q 40 552 58 603 q 21 442 21 501 q 69 286 21 339 q 221 233 117 233 q 290 238 256 233 q 357 253 325 242 q 376 260 363 254 q 406 272 390 265 q 433 287 421 279 q 447 300 446 294 l 447 313 z "},"d":{"ha":518,"x_min":42,"x_max":497,"o":"m 497 524 q 444 672 497 614 q 300 729 392 729 q 240 722 269 729 q 181 706 210 715 q 148 695 169 703 q 115 688 126 688 q 87 699 97 688 q 69 725 76 710 q 42 711 51 725 q 52 624 50 667 q 54 536 54 581 q 56 433 54 485 q 58 329 58 382 q 54 235 58 281 q 72 226 61 231 q 92 222 83 222 q 94 222 92 222 q 97 225 97 222 l 97 228 q 91 314 92 271 q 89 400 90 357 q 87 526 88 464 q 86 653 86 589 q 106 650 92 650 q 154 658 129 650 q 205 674 179 665 q 256 691 231 683 q 308 699 282 699 q 372 684 343 699 q 421 645 400 669 q 453 590 442 621 q 464 526 464 558 q 431 422 464 472 q 349 332 399 372 q 243 267 300 292 q 136 238 186 242 q 131 220 133 231 q 129 203 129 210 q 129 200 129 203 q 131 197 129 197 q 132 197 132 197 q 133 199 132 199 q 253 238 189 210 q 371 309 317 267 q 461 406 425 351 q 497 524 497 460 z "},"e":{"ha":433,"x_min":47,"x_max":394,"o":"m 394 553 q 392 561 394 558 q 318 547 356 550 q 242 542 281 543 q 167 542 204 542 q 92 540 129 542 q 90 560 90 551 q 89 581 89 569 q 90 614 89 597 q 90 647 90 631 l 90 671 q 206 675 149 675 q 274 667 240 675 q 272 676 274 672 q 269 685 269 679 l 269 717 q 266 717 267 717 q 263 718 265 718 q 243 714 251 718 q 226 707 235 710 q 188 701 207 703 q 149 700 168 700 q 108 701 128 700 q 67 700 88 701 q 57 686 60 694 q 54 668 54 678 q 58 542 54 606 q 51 540 56 542 q 47 536 47 539 q 53 513 47 522 q 60 500 60 508 q 63 451 63 476 q 63 404 63 428 q 62 326 63 364 q 60 247 61 288 q 90 224 69 224 q 181 227 136 224 q 272 231 226 231 q 307 226 290 231 q 342 221 324 221 q 345 222 344 221 q 349 222 346 222 l 338 246 q 335 263 335 250 q 328 275 335 275 q 304 271 321 275 q 278 264 288 267 q 168 256 224 256 q 132 256 150 256 q 97 258 115 256 q 92 349 94 303 q 90 439 90 394 q 90 474 90 457 q 92 508 90 490 q 172 511 132 508 q 253 514 213 514 q 321 511 283 514 q 383 489 358 508 q 388 497 388 492 q 389 507 389 503 l 389 524 q 392 538 389 531 q 394 553 394 546 z "},"f":{"ha":446,"x_min":42,"x_max":406,"o":"m 404 714 l 404 715 q 271 705 338 708 q 138 701 204 701 q 105 706 121 701 q 71 711 89 711 q 53 706 64 711 q 42 690 42 700 q 49 678 42 688 q 57 660 56 668 q 58 647 58 653 q 58 635 58 642 q 57 461 58 547 q 56 288 56 375 q 50 240 56 264 q 44 192 44 215 q 53 183 44 183 q 76 194 64 183 q 90 217 89 206 q 91 233 92 225 q 90 249 90 242 q 88 367 90 308 q 86 483 86 425 l 86 533 q 140 540 114 536 q 194 543 167 543 q 248 540 218 543 q 297 522 278 538 q 301 531 301 524 q 299 544 301 538 q 297 557 297 550 q 299 568 297 563 q 300 579 300 574 q 294 593 300 589 q 243 576 268 582 q 193 569 218 571 q 142 566 168 567 q 89 564 117 565 q 90 618 89 590 q 96 672 90 646 q 165 674 131 674 q 233 675 199 675 q 264 675 249 675 q 296 674 281 675 q 331 671 314 672 q 365 667 347 669 q 381 661 368 665 q 396 657 394 657 q 396 657 396 657 q 397 658 397 657 q 396 665 397 661 q 394 674 394 669 q 400 695 394 685 q 404 714 406 706 z "},"g":{"ha":501,"x_min":21,"x_max":468,"o":"m 468 494 l 461 497 q 447 494 454 496 q 432 492 439 492 q 412 494 421 492 q 392 496 403 496 q 386 492 386 496 q 391 472 386 481 q 401 456 396 464 q 410 419 407 444 q 414 365 413 394 q 415 308 415 336 q 415 267 415 281 l 415 256 q 335 266 376 257 q 257 288 293 275 q 176 322 214 303 q 111 367 139 340 q 67 431 83 394 q 51 518 51 468 q 68 586 51 556 q 111 640 85 617 q 172 675 138 663 q 240 688 206 688 q 281 686 261 688 q 321 675 301 685 q 329 691 321 679 q 344 711 338 703 q 351 721 350 719 q 343 726 351 726 q 286 722 315 726 q 229 715 257 718 q 148 697 186 711 q 82 657 110 682 q 38 596 54 632 q 21 514 21 560 q 39 415 21 457 q 89 343 57 374 q 164 292 121 313 q 256 256 207 271 q 290 246 263 253 q 348 232 317 239 q 405 219 379 225 q 433 213 431 213 q 450 222 443 213 q 445 320 449 271 q 442 418 442 369 q 449 458 442 444 q 468 494 457 472 z "},"h":{"ha":556,"x_min":42,"x_max":479,"o":"m 479 724 q 472 728 479 725 q 456 734 465 732 q 439 738 447 736 q 428 740 431 740 q 417 731 417 740 q 420 710 417 724 q 425 688 424 696 q 429 642 428 664 q 431 596 431 619 q 430 542 431 568 q 431 488 429 515 l 421 488 q 273 490 346 488 q 125 492 200 492 l 94 492 q 94 548 94 519 q 93 604 93 576 l 93 633 q 94 664 94 649 q 97 696 94 681 q 101 711 99 703 q 103 726 103 719 q 101 734 103 733 q 93 735 100 735 q 82 733 90 735 q 65 729 74 732 q 49 724 56 726 q 42 718 42 721 q 43 708 42 714 q 46 699 44 703 q 55 657 50 679 q 60 615 60 635 q 60 521 60 568 q 61 426 61 474 q 61 339 61 385 q 53 254 61 294 q 48 238 50 247 q 46 222 46 229 q 53 217 46 217 q 72 215 63 217 q 90 214 82 214 q 100 221 97 214 q 97 244 97 235 q 95 325 97 285 q 93 406 93 365 q 93 431 93 418 q 96 456 93 443 q 157 458 126 458 q 219 458 188 458 l 285 458 q 356 458 321 458 q 428 457 392 458 q 432 404 431 431 q 433 351 433 378 q 433 311 433 332 q 428 271 432 290 q 423 256 425 264 q 421 239 421 247 q 428 233 421 233 q 447 233 438 233 q 467 232 457 232 q 475 239 474 232 q 467 311 469 272 q 463 390 464 350 q 463 468 463 429 q 463 542 463 507 q 464 605 463 574 q 469 668 465 636 q 475 697 471 676 q 479 724 479 717 z "},"i":{"ha":226,"x_min":74,"x_max":138,"o":"m 138 231 q 132 267 135 250 q 128 303 129 283 q 124 413 125 358 q 122 524 122 468 q 123 591 122 557 q 126 658 124 625 q 131 689 128 672 q 133 719 133 706 q 122 729 133 729 q 112 727 119 729 q 96 722 104 725 q 81 717 88 719 q 74 711 74 714 q 76 699 74 706 q 78 688 78 693 q 85 644 82 667 q 89 601 89 622 q 90 488 89 543 q 92 375 92 432 l 92 332 q 90 310 90 321 q 88 288 90 299 q 83 268 86 278 q 81 250 81 258 q 86 240 81 244 q 99 233 92 236 q 113 228 106 229 q 124 226 119 226 q 138 231 131 226 z "},"j":{"ha":331,"x_min":-306,"x_max":289,"o":"m 289 717 q 283 720 289 719 q 275 721 276 721 q 244 726 264 722 q 217 729 224 729 q 208 728 213 729 q 206 721 204 728 l 215 706 q 237 631 236 672 q 238 550 238 589 q 237 504 238 526 q 236 458 236 482 q 227 303 236 368 q 187 194 218 238 q 97 131 156 151 q -60 110 39 110 q -167 121 -112 110 q -268 156 -221 132 q -276 158 -272 157 q -283 160 -279 160 q -298 151 -293 160 q -306 136 -303 143 q -271 110 -304 121 q -195 93 -237 100 q -112 83 -153 86 q -58 79 -72 79 q 98 97 35 79 q 199 155 161 115 q 252 258 236 194 q 268 413 268 322 q 269 506 268 460 q 269 599 269 553 q 271 642 269 621 q 278 683 272 663 q 284 701 279 688 q 289 717 289 714 z "},"k":{"ha":576,"x_min":42,"x_max":563,"o":"m 563 264 q 483 328 525 292 q 403 403 442 364 q 328 485 364 443 q 268 565 293 526 q 333 610 301 586 q 396 656 364 633 q 421 672 408 664 q 447 688 433 681 q 458 693 451 690 q 469 699 464 696 q 474 704 474 703 q 470 712 474 707 q 464 717 467 717 q 463 715 463 717 q 442 715 451 717 q 424 714 433 714 q 409 717 417 714 q 394 721 401 721 q 388 717 392 721 q 380 696 381 703 q 365 675 379 689 q 315 634 351 660 q 235 581 278 608 q 151 531 192 554 q 90 496 111 507 q 88 558 89 528 q 86 621 86 589 q 90 701 86 661 q 72 718 86 714 q 47 722 58 722 q 42 717 42 722 q 47 688 42 703 q 53 658 51 674 q 58 535 57 596 q 58 411 58 474 l 58 351 q 58 290 58 321 q 57 229 58 261 q 63 226 60 228 q 68 225 65 225 q 85 228 76 225 q 103 233 94 231 q 108 244 108 238 q 91 308 93 274 q 89 374 89 342 q 89 415 89 394 q 90 457 89 436 q 163 502 125 481 q 238 544 200 524 q 303 463 267 504 q 378 380 339 421 q 459 301 418 339 q 539 232 500 264 q 546 226 542 229 q 554 222 550 222 q 561 228 560 222 q 563 240 563 233 q 562 255 563 249 q 563 264 561 261 z "},"l":{"ha":472,"x_min":42,"x_max":431,"o":"m 431 236 q 431 249 431 240 q 431 268 431 258 q 428 287 431 279 q 422 294 426 294 q 397 282 415 294 q 363 267 378 269 q 294 260 329 261 q 226 260 260 260 q 164 260 194 260 q 103 263 133 261 q 98 419 99 342 q 97 576 97 497 q 97 636 97 606 q 100 696 97 668 q 77 713 96 708 q 47 717 58 717 q 42 711 42 717 q 44 697 42 708 q 65 544 63 622 q 68 390 68 467 q 67 313 68 351 q 67 236 67 275 l 67 228 q 204 231 136 231 q 342 232 272 232 l 426 232 q 431 236 431 232 z "},"m":{"ha":588,"x_min":28,"x_max":558,"o":"m 558 218 q 550 308 551 263 q 546 399 549 354 q 538 714 540 557 q 518 717 524 717 q 499 711 508 717 q 453 674 486 703 q 383 612 419 644 q 317 553 347 579 q 283 528 288 528 q 275 532 279 528 q 191 603 232 567 q 110 678 150 640 q 89 699 99 689 q 68 719 79 710 q 58 722 65 722 q 45 721 54 722 q 36 713 36 719 q 38 628 36 671 q 39 543 39 586 q 38 451 39 497 q 36 358 38 404 q 33 288 35 322 q 28 218 32 253 q 38 219 31 218 q 52 221 44 219 q 66 225 60 222 q 72 231 72 228 q 71 293 72 263 q 69 356 69 324 q 71 510 69 433 q 74 665 72 588 q 116 628 85 657 q 182 569 147 600 q 245 515 217 539 q 281 490 274 490 q 294 493 286 490 q 400 581 347 538 q 506 671 453 625 q 512 493 508 582 q 515 315 515 404 q 513 272 515 293 q 511 229 511 250 q 517 223 511 225 q 532 220 524 221 q 548 219 540 219 q 558 218 556 218 z "},"n":{"ha":607,"x_min":40,"x_max":535,"o":"m 535 731 q 532 738 535 738 q 519 734 529 738 q 503 731 510 731 q 492 730 497 731 q 488 722 488 729 q 488 653 488 688 q 490 585 489 619 q 490 435 490 510 q 492 283 490 360 q 281 499 383 389 q 71 717 178 610 q 68 717 69 717 q 67 718 67 718 q 57 715 63 718 q 47 708 51 711 q 47 701 47 706 q 46 693 46 697 q 47 574 46 633 q 47 453 47 514 q 47 376 47 414 q 44 297 46 338 q 42 258 43 278 q 40 218 40 238 q 47 214 40 214 q 67 219 51 214 q 83 231 83 224 q 83 254 83 242 q 81 279 82 267 q 80 327 81 303 q 79 375 79 351 q 81 501 79 438 q 82 626 82 564 l 82 651 q 224 509 154 581 q 364 364 293 438 q 405 322 385 343 q 446 279 425 301 q 465 257 456 268 q 485 236 474 246 q 493 231 492 231 q 504 231 496 231 q 514 232 510 231 q 524 233 518 233 q 522 296 522 265 q 522 357 522 326 q 523 488 522 424 q 524 619 524 553 q 529 675 524 647 q 535 731 535 703 z "},"o":{"ha":593,"x_min":35,"x_max":551,"o":"m 551 464 q 539 550 551 508 q 503 626 526 592 q 444 686 479 661 q 365 722 410 711 q 356 724 363 722 q 340 728 349 726 q 325 731 332 729 q 318 733 318 733 q 315 727 315 732 q 314 719 314 722 q 318 692 314 704 q 401 671 364 689 q 465 622 439 653 q 506 552 492 592 q 519 468 519 513 q 506 385 519 424 q 467 318 492 347 q 406 272 442 289 q 324 253 369 254 q 319 226 319 240 q 320 219 319 224 q 324 214 321 214 l 326 214 q 490 294 428 229 q 551 464 551 360 m 272 719 q 272 727 272 721 q 268 733 271 733 q 265 732 265 733 q 243 728 254 731 q 221 722 232 725 q 147 689 181 713 q 88 632 113 665 q 49 560 63 599 q 35 479 35 521 l 35 476 q 69 329 35 393 q 182 233 103 265 q 220 222 201 226 q 258 214 239 218 l 261 214 q 266 219 265 214 q 267 226 267 224 q 263 253 267 240 q 117 317 169 258 q 65 467 65 375 q 79 553 65 513 q 119 624 93 593 q 182 672 144 654 q 268 692 219 689 q 272 719 272 704 z "},"p":{"ha":458,"x_min":42,"x_max":424,"o":"m 424 574 q 378 683 424 646 q 264 721 333 721 q 169 713 215 721 q 74 701 122 704 q 53 689 64 694 q 42 668 42 683 q 53 657 42 664 q 68 638 64 650 q 71 612 69 632 q 73 569 72 592 q 74 525 74 546 q 74 497 74 506 q 69 315 74 407 q 67 266 68 292 q 63 217 67 240 q 79 214 68 214 q 96 215 88 214 q 113 219 104 217 q 103 358 103 286 q 104 497 104 429 q 108 668 104 582 q 190 685 147 679 q 274 690 233 690 q 356 657 321 690 q 392 575 392 624 q 373 522 392 543 q 327 487 354 500 q 269 468 300 474 q 213 463 238 463 q 173 466 193 463 q 133 469 153 469 q 128 458 129 469 q 126 444 126 447 q 132 428 126 428 q 153 428 138 428 q 235 432 189 428 q 324 451 282 436 q 394 496 365 467 q 424 574 424 525 z "},"q":{"ha":576,"x_min":28,"x_max":542,"o":"m 542 486 l 542 499 q 386 711 529 654 q 349 723 369 718 q 310 728 328 728 q 301 719 303 728 q 299 707 299 711 q 300 697 299 703 q 308 690 301 690 q 388 674 351 690 q 450 629 424 657 q 491 564 476 601 q 506 483 506 526 q 477 384 506 431 q 406 306 449 338 q 363 343 386 329 q 308 357 339 357 q 244 328 268 357 q 210 264 221 299 q 103 347 146 289 q 60 474 60 404 l 61 479 q 91 594 61 544 q 181 672 121 643 q 213 685 196 679 q 249 690 231 690 q 259 689 254 690 q 264 696 264 688 q 254 726 264 714 q 89 645 150 715 q 28 471 28 575 q 47 378 28 422 q 99 299 67 333 q 176 245 132 265 q 269 225 219 225 q 340 233 303 225 q 406 265 378 242 q 456 230 425 246 q 517 215 488 214 q 527 233 526 222 q 531 254 528 243 q 500 254 513 254 q 478 257 489 254 q 457 266 468 260 q 431 286 446 272 q 476 320 456 297 q 510 372 496 343 q 533 431 525 400 q 542 486 542 461 m 376 288 q 330 265 356 272 q 278 257 304 257 q 260 258 269 257 q 243 260 251 258 q 264 304 251 283 q 304 325 276 325 q 344 315 324 325 q 376 288 365 304 z "},"r":{"ha":563,"x_min":42,"x_max":556,"o":"m 556 265 q 549 272 556 269 q 522 280 535 276 q 494 290 508 283 q 395 349 440 311 q 301 418 350 388 q 408 484 367 442 q 449 600 449 526 q 430 663 449 638 q 383 703 411 688 q 322 724 356 718 q 258 731 289 731 q 158 724 210 731 q 60 706 106 717 q 49 702 56 704 q 42 693 42 700 q 49 673 42 688 q 58 649 57 658 q 70 559 68 604 q 74 469 72 514 l 72 468 l 72 426 q 72 357 72 392 q 69 289 72 324 q 65 252 68 274 q 61 218 61 231 q 65 215 61 215 q 71 214 68 214 q 90 216 81 214 q 110 221 100 218 q 103 295 104 257 q 103 369 101 333 l 103 386 q 136 388 115 386 q 179 392 157 389 q 222 398 201 394 q 254 404 243 401 q 276 392 265 397 q 299 381 288 388 q 390 314 347 350 q 486 254 433 278 q 507 245 493 251 q 528 239 521 239 q 535 243 532 239 q 548 252 540 246 q 556 265 556 258 m 413 597 l 413 589 q 373 499 406 531 q 296 450 340 467 q 200 428 251 433 q 103 419 149 424 q 103 542 106 482 q 100 664 100 601 l 100 678 q 180 695 140 689 q 260 701 219 701 q 309 695 282 701 q 359 676 336 689 q 397 644 382 664 q 413 597 413 624 z "},"s":{"ha":485,"x_min":4,"x_max":457,"o":"m 457 451 q 407 569 457 529 q 285 608 357 608 q 227 601 256 608 q 169 594 199 594 q 135 603 150 594 q 121 635 121 613 q 133 667 121 656 q 161 685 144 679 q 197 693 178 692 q 231 694 215 694 q 252 688 244 694 q 265 674 260 682 q 274 659 269 665 q 288 653 279 653 q 290 657 290 653 q 291 678 290 672 q 300 697 292 685 l 294 707 q 213 721 257 721 q 171 717 192 721 q 132 703 150 713 q 103 676 114 693 q 92 636 92 660 q 112 579 92 596 q 171 563 132 563 q 217 569 194 563 q 264 575 240 575 q 327 570 297 575 q 378 551 357 565 q 413 513 400 538 q 425 449 425 488 q 403 358 425 396 q 345 297 381 321 q 265 263 310 274 q 174 253 219 253 q 119 261 146 253 q 70 280 93 269 q 31 299 47 290 q 11 307 15 307 q 7 302 8 307 q 5 291 6 297 q 4 278 4 285 q 4 271 4 272 l 4 261 q 92 234 43 246 q 183 222 142 222 q 284 237 235 222 q 372 280 333 251 q 433 351 410 308 q 457 451 457 394 z "},"t":{"ha":504,"x_min":14,"x_max":490,"o":"m 490 679 q 488 690 489 683 q 484 704 486 697 q 479 716 482 711 q 472 721 476 721 q 436 716 465 718 q 372 713 407 714 q 306 713 338 713 q 261 713 274 713 q 211 713 246 713 q 141 714 178 713 q 73 718 104 715 q 32 725 42 721 q 24 719 28 725 q 19 707 21 714 q 16 693 17 700 q 14 682 15 686 q 19 679 17 681 q 25 678 22 678 q 98 681 61 678 q 171 685 135 685 q 203 683 186 685 q 236 679 219 682 q 238 545 236 613 q 240 410 240 478 q 240 344 240 378 q 238 281 240 313 q 233 249 236 265 q 231 218 231 233 q 235 215 231 215 q 240 214 239 214 q 261 216 251 214 q 282 221 271 218 q 272 328 274 274 q 269 435 269 382 q 270 528 269 482 q 271 622 271 575 l 271 679 q 306 681 289 681 q 342 682 324 682 q 436 678 390 682 q 458 676 447 678 q 479 675 468 675 q 490 679 486 675 z "},"u":{"ha":574,"x_min":54,"x_max":522,"o":"m 522 718 q 518 719 522 719 q 507 719 513 719 q 496 718 501 718 q 483 719 490 718 q 476 713 476 721 q 480 617 476 664 q 483 521 483 569 q 481 452 483 489 q 467 381 478 415 q 437 319 457 347 q 382 278 417 292 l 382 279 q 350 269 367 272 q 318 265 333 267 q 315 253 315 258 q 315 242 315 249 q 316 232 315 239 q 319 225 317 225 q 321 225 321 225 q 322 226 321 226 q 422 262 385 238 q 480 322 460 286 q 506 405 500 358 q 513 507 513 451 l 513 583 q 515 649 513 618 q 522 714 518 681 q 522 718 522 714 m 263 242 q 263 253 263 249 q 260 265 263 258 q 228 269 244 267 q 196 279 211 272 l 196 278 q 141 319 161 292 q 110 381 121 347 q 97 452 100 415 q 94 521 94 489 q 98 617 94 569 q 101 713 101 664 q 96 719 101 719 q 89 719 93 719 q 82 718 85 718 q 70 719 75 718 q 58 719 65 719 q 56 719 58 719 q 54 718 54 719 l 54 714 q 63 649 60 681 q 65 583 65 618 q 65 476 65 529 q 76 375 64 422 q 120 292 89 328 q 217 236 151 256 q 225 235 218 236 q 239 231 232 233 q 251 228 246 229 q 258 225 257 226 q 262 233 261 226 q 263 242 263 239 z "},"v":{"ha":615,"x_min":21,"x_max":585,"o":"m 585 707 l 579 718 q 567 716 572 717 q 554 715 561 715 q 538 717 546 715 q 522 719 531 719 q 511 710 514 719 q 506 694 508 701 q 465 598 489 646 q 418 504 442 550 q 359 392 389 447 q 296 282 329 336 q 269 336 288 300 q 227 417 250 372 q 179 510 204 463 q 133 601 154 558 q 99 674 113 643 q 85 717 85 706 q 73 715 78 715 q 61 714 68 714 q 47 717 54 714 q 32 721 39 721 q 21 717 25 721 l 21 701 q 28 701 22 704 q 39 691 33 697 q 49 678 44 685 q 54 672 54 672 q 100 597 79 638 q 140 518 121 556 q 211 374 176 446 q 281 228 246 301 l 303 228 q 310 233 307 228 q 315 242 314 239 q 422 444 374 338 q 529 647 471 550 q 554 679 540 665 q 585 707 568 693 z "},"w":{"ha":792,"x_min":7,"x_max":783,"o":"m 783 717 q 776 721 783 721 q 760 718 768 721 q 746 715 753 715 q 733 716 739 715 q 719 717 726 717 q 711 716 714 717 q 707 708 708 715 q 707 694 707 701 q 704 682 707 689 q 680 610 696 646 q 649 539 664 574 q 582 403 617 469 q 514 269 547 338 q 467 350 489 310 q 422 431 446 390 q 449 478 436 454 q 476 524 461 501 l 485 536 q 489 542 489 540 q 474 551 489 547 q 454 554 460 554 q 440 547 443 554 l 432 522 q 417 491 425 507 q 401 460 410 475 q 378 498 390 479 q 364 538 367 517 q 349 546 358 544 q 332 547 339 547 q 321 547 329 547 q 313 540 313 546 q 315 533 313 539 q 350 483 335 508 q 382 431 365 457 q 334 351 358 390 q 283 271 310 311 q 232 369 264 310 q 168 492 200 429 q 111 614 136 556 q 81 710 86 672 q 68 711 76 711 q 44 713 57 711 q 21 714 32 714 q 13 713 18 714 q 7 707 7 711 q 14 699 7 701 q 39 673 28 688 q 58 643 50 658 q 164 438 111 542 q 265 229 217 333 q 282 222 272 222 q 289 224 285 222 q 297 226 293 225 q 350 313 322 271 q 403 399 378 354 q 425 360 411 386 q 454 306 439 333 q 483 254 469 278 q 504 222 496 231 q 514 221 507 221 q 521 221 517 221 q 529 224 526 221 q 545 253 531 225 q 581 325 560 282 q 628 419 603 368 q 674 516 653 469 q 712 597 696 563 q 732 640 728 631 q 761 689 742 665 q 773 703 763 692 q 783 717 783 715 z "},"x":{"ha":486,"x_min":7,"x_max":471,"o":"m 471 257 q 468 261 471 260 q 463 265 465 263 l 453 272 q 364 360 406 314 q 279 453 322 407 l 250 483 q 331 579 290 532 q 417 669 371 626 l 425 678 q 431 681 428 681 q 435 686 435 682 q 419 703 435 694 q 396 715 403 713 q 317 608 360 658 q 229 507 274 557 q 138 605 183 556 q 54 708 93 654 q 31 697 47 706 q 15 678 15 688 q 19 674 15 675 q 25 671 22 674 l 35 663 q 124 576 82 622 q 208 483 167 529 l 192 463 q 115 373 153 418 q 33 288 78 328 l 17 271 q 10 267 14 268 q 7 263 7 265 q 12 254 7 258 q 24 246 17 250 q 37 238 31 242 q 47 233 43 235 q 135 350 88 296 q 231 460 182 404 q 336 346 283 401 q 433 226 389 290 q 456 239 440 229 q 471 257 471 249 z "},"y":{"ha":490,"x_min":7,"x_max":468,"o":"m 468 713 q 465 715 468 715 q 461 715 463 715 q 444 714 453 715 q 426 713 435 713 q 415 715 421 713 q 406 717 410 717 q 404 715 404 717 q 403 692 406 700 q 392 671 400 683 q 321 568 356 619 q 250 467 286 517 q 206 519 226 492 q 163 574 185 547 q 122 623 143 599 q 86 675 101 647 q 75 713 75 693 q 75 718 75 715 q 72 722 75 722 q 59 719 65 722 q 46 717 53 717 q 29 718 38 717 q 13 719 21 719 q 7 717 7 719 q 12 710 7 714 q 18 703 17 706 q 67 648 44 678 q 111 590 89 618 q 174 510 143 550 q 233 429 204 469 q 235 400 235 414 q 235 372 235 388 q 234 317 235 344 q 233 261 233 289 q 233 241 233 250 q 231 221 232 232 q 249 212 238 215 q 268 208 260 208 q 272 208 269 208 q 275 211 275 208 l 275 214 q 276 235 276 221 q 272 324 276 279 q 268 414 268 369 l 268 432 q 308 497 285 460 q 358 572 332 533 q 409 644 383 610 q 457 699 435 678 q 464 706 460 701 q 468 713 468 710 z "},"z":{"ha":485,"x_min":14,"x_max":464,"o":"m 464 269 q 457 275 464 275 q 426 272 442 275 q 396 267 411 269 q 289 260 343 261 q 182 258 235 258 q 124 258 153 258 q 68 260 96 258 q 106 305 76 268 q 173 391 135 342 q 254 495 211 440 q 333 597 297 550 q 392 674 368 643 q 415 706 415 704 q 403 716 415 713 q 386 719 390 719 q 317 717 351 719 q 249 715 283 715 q 167 717 208 715 q 83 718 125 718 l 75 718 l 68 711 q 75 684 72 697 q 81 657 78 671 l 83 657 q 95 663 86 657 q 107 672 104 669 q 131 681 115 678 q 163 686 146 685 q 196 688 181 688 q 222 688 213 688 q 284 686 254 688 q 346 686 314 685 l 357 686 q 193 472 274 579 q 25 260 113 364 q 14 235 14 249 q 28 227 14 228 q 47 226 43 226 q 69 227 58 226 q 90 228 79 228 q 239 228 165 228 q 388 229 313 229 q 414 226 401 229 q 440 222 426 222 q 447 224 443 222 q 451 231 451 226 q 458 250 451 242 q 464 269 464 258 z "},"{":{"ha":410,"x_min":104,"x_max":410,"o":"m 410 -242 q 400 -229 410 -235 q 386 -217 390 -224 q 382 -198 383 -210 q 371 -186 381 -186 q 350 -196 360 -186 q 313 -206 340 -206 q 247 -187 274 -206 q 204 -139 221 -168 q 180 -74 188 -110 q 172 -7 172 -39 q 180 67 172 31 q 197 139 188 103 q 213 210 206 175 q 221 283 221 246 q 203 340 221 311 q 161 378 186 368 q 235 424 206 397 q 264 504 264 451 q 255 559 264 532 q 234 613 246 586 q 211 667 222 640 q 194 722 200 694 q 189 760 192 742 q 186 797 186 778 q 219 890 186 856 q 311 924 253 924 q 325 921 318 924 q 339 918 332 918 q 349 924 347 918 q 349 944 346 936 q 357 956 353 951 q 365 965 361 961 q 369 974 369 969 q 358 983 369 983 q 321 976 346 983 q 283 963 296 968 q 227 935 251 950 q 186 900 203 919 q 160 854 169 881 q 151 790 151 828 q 164 711 151 750 q 192 636 176 672 q 219 569 207 600 q 232 513 232 538 q 223 473 232 492 q 200 439 214 454 q 176 424 192 431 q 144 412 160 418 q 116 397 128 406 q 104 375 104 389 q 110 361 104 365 q 126 353 117 357 q 144 347 135 350 q 160 338 153 344 q 178 308 171 326 q 186 275 186 290 q 180 224 186 250 q 167 172 174 197 q 147 83 156 128 q 139 -8 139 38 q 147 -85 139 -47 q 175 -158 156 -124 q 203 -191 185 -176 q 243 -216 221 -206 q 288 -233 265 -226 q 331 -243 311 -240 q 360 -248 346 -246 q 389 -250 374 -250 q 401 -249 393 -250 q 410 -242 410 -249 z "},"|":{"ha":507,"x_min":244,"x_max":322,"o":"m 322 904 q 317 907 321 907 q 293 897 307 907 q 271 883 279 888 q 258 877 265 881 q 250 865 250 874 q 256 842 250 860 q 263 810 261 824 l 263 774 q 259 334 263 553 q 256 -104 256 115 q 252 -147 256 -133 q 244 -189 249 -161 l 244 -193 q 249 -196 244 -196 q 262 -191 253 -196 q 281 -180 271 -186 q 297 -166 290 -174 q 304 -153 304 -158 q 302 -136 304 -144 q 297 -119 300 -128 q 293 -75 293 -97 q 294 226 293 76 q 294 526 294 375 l 296 710 q 295 765 296 738 q 297 819 294 792 q 308 863 300 843 q 322 904 315 882 z "},"}":{"ha":410,"x_min":0,"x_max":306,"o":"m 306 375 q 294 397 306 389 q 266 412 282 406 q 234 424 250 418 q 210 439 218 431 q 187 473 196 454 q 178 513 178 492 q 190 569 178 538 q 217 636 203 600 q 244 711 232 672 q 257 790 257 750 q 248 854 257 828 q 222 900 239 881 q 181 935 206 919 q 125 963 157 950 q 88 976 113 968 q 51 983 64 983 q 40 974 40 983 q 51 959 40 967 q 61 933 61 951 l 61 924 q 68 918 64 918 q 83 921 75 918 q 97 924 90 924 q 189 890 156 924 q 222 797 222 856 q 214 722 222 760 q 198 668 210 694 q 175 615 186 642 q 155 560 164 588 q 146 504 146 532 q 175 424 146 451 q 249 378 204 396 q 206 340 224 368 q 188 283 188 311 q 195 210 188 246 q 212 139 203 175 q 228 67 221 103 q 236 -7 236 31 q 229 -74 236 -39 q 206 -139 222 -110 q 162 -187 189 -168 q 96 -206 135 -206 q 60 -196 69 -206 q 39 -186 50 -186 q 28 -198 29 -186 q 22 -217 26 -210 q 10 -229 19 -224 q 0 -242 0 -235 q 8 -249 0 -249 q 21 -250 17 -250 q 50 -248 36 -250 q 79 -243 64 -246 q 121 -233 97 -240 q 166 -216 144 -226 q 206 -191 188 -206 q 235 -158 225 -176 q 263 -85 254 -124 q 271 -8 271 -47 q 262 83 271 38 q 242 172 253 128 q 230 224 236 197 q 224 275 224 250 q 231 308 224 290 q 250 338 239 326 q 265 347 256 344 q 284 353 275 350 q 299 361 293 357 q 306 375 306 365 z "},"~":{"ha":586,"x_min":69,"x_max":517,"o":"m 517 456 q 503 480 517 469 q 479 493 490 490 q 448 456 468 472 q 403 439 428 439 q 348 448 375 439 q 296 467 321 457 q 244 485 272 476 q 190 494 217 494 q 169 496 179 494 q 149 497 160 497 q 105 483 125 497 q 72 449 85 468 q 69 444 69 449 q 75 437 69 440 q 88 429 81 433 q 101 422 94 425 q 110 418 107 419 q 143 449 122 442 q 189 456 164 456 q 235 446 206 456 q 282 429 264 436 q 341 411 310 419 q 401 403 372 403 q 431 406 411 403 q 469 416 450 410 q 503 432 489 422 q 517 456 517 442 z "},"":{"ha":788,"x_min":14,"x_max":781,"o":"m 485 849 q 477 869 485 860 q 457 879 469 879 q 438 874 446 879 q 429 857 429 868 q 438 834 429 844 q 461 824 447 824 q 477 831 469 824 q 485 849 485 839 m 336 849 q 328 869 336 860 q 308 879 319 879 q 289 874 297 879 q 281 857 281 868 q 290 834 281 844 q 311 824 299 824 q 328 831 321 824 q 336 849 336 839 m 781 0 q 763 14 781 7 q 735 38 744 21 q 699 108 725 54 q 637 233 672 161 q 563 383 601 304 q 494 531 525 463 q 442 648 463 600 q 421 703 421 696 q 430 726 421 717 q 439 749 439 735 q 429 760 439 760 q 411 753 419 760 q 396 742 403 747 q 377 733 388 735 q 358 728 367 731 q 344 723 350 726 q 338 710 338 719 q 346 694 338 697 q 354 679 354 692 q 351 667 354 675 q 264 459 308 563 q 171 253 219 356 q 146 197 160 228 q 117 135 132 167 q 85 75 101 104 q 51 24 68 46 q 33 12 42 11 q 15 3 25 13 q 15 0 15 1 q 14 -1 14 -1 q 21 -12 14 -8 q 32 -10 26 -10 q 46 -10 39 -10 q 77 -10 61 -10 q 108 -11 93 -11 q 119 -11 113 -11 q 129 -8 126 -11 l 129 -4 q 126 6 129 3 q 120 10 124 8 q 113 15 117 13 q 110 25 110 18 q 119 59 110 38 q 140 104 128 81 q 165 150 153 128 q 182 185 176 172 q 287 167 235 174 q 392 161 339 161 q 504 169 449 161 q 617 189 560 176 q 635 151 624 172 q 659 109 647 131 q 679 66 671 88 q 688 25 688 44 q 685 11 688 15 q 674 4 678 8 q 671 -7 669 0 l 671 -11 l 674 -11 q 701 -9 688 -11 q 729 -7 715 -7 q 775 -11 751 -7 q 781 0 781 -6 m 601 221 q 501 203 551 211 q 400 196 451 196 q 299 203 349 196 q 199 218 249 210 q 297 443 249 331 q 390 669 346 556 q 493 444 442 557 q 601 221 544 332 z "},"":{"ha":788,"x_min":14,"x_max":781,"o":"m 431 881 q 415 924 431 906 q 374 942 400 942 q 335 925 350 942 q 319 885 319 908 q 335 842 319 860 q 376 824 350 824 q 415 840 400 824 q 431 881 431 857 m 403 883 q 374 853 403 853 q 355 863 363 853 q 347 883 347 872 q 355 904 347 896 q 375 913 363 913 q 394 903 386 913 q 403 883 403 894 m 781 0 q 763 14 781 7 q 735 38 744 21 q 699 108 725 54 q 637 233 672 161 q 563 383 601 304 q 494 531 525 463 q 442 648 463 600 q 421 703 421 696 q 430 726 421 717 q 439 749 439 735 q 429 760 439 760 q 411 753 419 760 q 396 742 403 747 q 377 733 388 735 q 358 728 367 731 q 344 723 350 726 q 338 710 338 719 q 346 694 338 697 q 354 679 354 692 q 351 667 354 675 q 264 459 308 563 q 171 253 219 356 q 146 197 160 228 q 117 135 132 167 q 85 75 101 104 q 51 24 68 46 q 33 12 42 11 q 15 3 25 13 q 15 0 15 1 q 14 -1 14 -1 q 21 -12 14 -8 q 32 -10 26 -10 q 46 -10 39 -10 q 77 -10 61 -10 q 108 -11 93 -11 q 119 -11 113 -11 q 129 -8 126 -11 l 129 -4 q 126 6 129 3 q 120 10 124 8 q 113 15 117 13 q 110 25 110 18 q 119 59 110 38 q 140 104 128 81 q 165 150 153 128 q 182 185 176 172 q 287 167 235 174 q 392 161 339 161 q 504 169 449 161 q 617 189 560 176 q 635 151 624 172 q 659 109 647 131 q 679 66 671 88 q 688 25 688 44 q 685 11 688 15 q 674 4 678 8 q 671 -7 669 0 l 671 -11 l 674 -11 q 701 -9 688 -11 q 729 -7 715 -7 q 775 -11 751 -7 q 781 0 781 -6 m 601 221 q 501 203 551 211 q 400 196 451 196 q 299 203 349 196 q 199 218 249 210 q 297 443 249 331 q 390 669 346 556 q 493 444 442 557 q 601 221 544 332 z "},"":{"ha":654,"x_min":24,"x_max":601,"o":"m 601 613 q 590 634 596 624 q 585 658 585 644 q 585 678 585 668 q 588 697 586 688 q 571 711 582 711 q 543 704 558 711 q 513 697 528 697 q 489 697 501 697 q 465 700 476 697 q 394 715 429 708 q 321 722 358 722 q 194 698 250 722 q 101 631 139 674 q 44 529 64 588 q 24 403 24 471 q 36 288 24 346 q 72 176 49 231 q 129 74 96 122 q 206 -14 163 25 q 200 -30 204 -19 q 192 -51 196 -40 q 184 -72 188 -62 q 181 -85 181 -81 q 182 -86 181 -86 q 212 -106 200 -96 q 224 -140 224 -117 q 212 -173 224 -160 q 181 -186 200 -186 q 164 -183 171 -186 q 150 -178 157 -181 q 138 -192 146 -182 q 131 -208 131 -201 q 135 -211 131 -211 q 158 -215 144 -214 q 182 -217 172 -217 q 235 -194 213 -217 q 258 -142 258 -172 q 247 -102 258 -119 q 219 -72 236 -85 q 232 -36 228 -56 q 333 -109 281 -75 q 438 -174 385 -143 q 468 -191 453 -183 q 499 -207 483 -199 q 529 -223 514 -215 q 561 -237 544 -231 l 564 -239 q 572 -223 571 -236 q 574 -204 574 -210 l 574 -196 q 539 -184 556 -192 q 506 -169 522 -176 q 378 -99 440 -137 q 258 -17 317 -61 q 176 66 213 18 q 113 168 139 114 q 73 281 88 222 q 58 397 58 340 q 75 505 58 453 q 123 598 92 557 q 201 664 154 639 q 308 689 247 689 q 408 681 361 689 q 503 650 454 672 q 524 640 514 644 q 542 628 533 635 q 562 611 549 622 q 583 600 575 600 q 601 613 596 600 z "},"":{"ha":513,"x_min":56,"x_max":519,"o":"m 299 922 q 297 936 299 925 q 292 947 296 947 q 276 936 292 947 q 242 911 261 925 q 204 886 222 897 q 178 875 186 875 q 158 874 168 875 q 149 861 149 874 l 149 854 q 146 845 147 850 q 144 836 144 840 q 148 828 144 833 q 154 822 151 822 q 172 833 154 822 q 213 858 190 844 q 256 883 235 871 q 283 899 276 896 q 299 922 299 906 m 519 533 q 516 549 518 539 q 507 558 514 558 q 498 556 504 558 q 483 549 492 553 q 467 540 475 544 q 456 535 460 536 q 403 525 443 529 q 318 518 364 521 q 231 514 272 515 q 175 513 190 513 q 104 518 136 513 q 98 592 97 554 q 96 667 99 629 l 104 671 q 165 673 135 668 q 228 678 196 678 q 273 669 251 678 q 301 661 294 661 q 311 675 311 661 q 310 681 311 678 q 310 686 310 683 q 308 703 310 694 q 307 722 307 713 l 307 729 q 297 733 303 733 q 288 731 292 733 q 279 726 283 729 q 258 717 271 722 q 232 710 246 713 q 204 705 218 707 q 182 703 190 703 q 144 704 163 703 q 106 706 125 706 q 86 706 93 706 q 74 706 79 707 q 65 699 69 704 q 56 685 61 694 q 65 631 61 672 q 71 531 68 589 q 75 404 74 472 q 77 272 76 336 q 78 153 78 207 q 78 69 78 99 q 76 46 78 58 q 75 22 75 33 q 77 1 75 7 q 94 -8 79 -4 q 133 -6 114 -6 q 174 -4 154 -6 q 326 0 249 0 q 359 -6 344 0 q 389 -12 374 -12 q 397 -9 392 -12 q 403 -3 403 -6 q 398 6 403 1 q 393 17 393 10 q 395 33 393 26 q 399 49 397 40 q 385 60 393 60 q 378 58 381 60 q 372 54 375 57 q 346 42 364 47 q 317 35 328 36 q 219 31 268 29 q 121 29 169 32 q 113 46 113 33 q 110 81 113 64 q 107 115 108 97 q 105 155 106 135 q 104 194 104 175 q 106 280 104 238 q 107 365 107 322 q 107 415 107 390 q 104 467 107 442 l 114 479 q 249 486 182 479 q 385 493 317 493 q 405 492 392 493 q 431 491 418 492 q 457 488 444 490 q 475 483 469 486 q 484 475 478 481 q 493 469 490 469 q 499 474 497 469 q 501 483 501 479 q 503 499 501 492 q 507 513 506 506 q 514 523 510 517 q 519 533 518 529 z "},"":{"ha":747,"x_min":46,"x_max":656,"o":"m 475 882 q 465 898 475 890 q 447 908 454 906 q 442 892 444 901 q 434 872 439 882 q 423 854 429 861 q 408 847 417 847 q 386 857 397 847 q 361 878 375 867 q 332 899 347 889 q 297 908 317 908 q 254 897 275 908 q 226 864 233 886 l 226 863 q 238 851 226 856 q 254 843 250 846 q 268 872 257 858 q 296 885 279 885 q 322 875 308 885 q 350 853 336 865 q 378 832 364 842 q 410 822 393 822 q 450 840 433 822 q 475 879 467 858 l 475 882 m 656 742 q 647 750 656 750 q 636 746 640 750 q 628 738 632 742 q 619 731 621 733 q 611 725 618 729 q 587 716 603 721 q 572 700 571 711 q 593 675 588 692 q 604 644 599 658 q 611 600 608 633 q 615 528 614 567 q 615 453 615 489 q 615 401 615 417 q 614 224 615 313 q 613 49 613 136 q 567 106 589 76 q 521 165 544 136 q 451 256 485 210 q 382 349 417 303 q 248 524 315 436 q 117 703 181 611 q 86 710 103 710 q 75 697 75 710 q 76 686 75 690 q 78 654 78 671 q 78 622 78 639 q 80 390 78 506 q 82 157 82 275 q 82 133 82 149 q 82 101 82 118 q 81 71 82 85 q 76 51 79 57 q 67 34 72 43 q 56 18 61 25 q 49 13 53 15 q 46 7 46 11 q 50 1 46 4 q 57 -3 54 -1 q 68 0 63 0 q 79 0 74 0 q 104 -1 92 0 q 129 -1 117 -1 q 139 -1 131 -1 q 147 3 147 -1 q 144 8 147 3 q 138 20 142 14 q 130 33 133 26 q 125 42 126 39 q 117 83 118 61 q 115 124 117 104 q 113 297 114 211 q 113 471 113 383 q 113 557 113 515 q 115 644 113 600 q 272 437 194 540 q 429 229 350 333 q 485 156 457 193 q 540 83 513 119 q 577 36 558 60 q 615 -11 596 13 q 624 -10 617 -11 q 638 -7 631 -8 q 649 -3 644 -6 q 653 3 654 -1 q 649 186 649 94 q 650 319 649 253 q 651 451 651 385 q 649 541 651 496 q 647 631 647 586 q 649 667 647 649 q 651 704 650 685 q 654 722 653 713 q 656 742 656 732 z "},"":{"ha":808,"x_min":56,"x_max":768,"o":"m 482 851 q 474 873 482 863 q 454 883 465 883 q 435 877 443 883 q 426 860 426 871 q 435 838 426 847 q 457 828 444 828 q 474 835 467 828 q 482 851 482 842 m 332 851 q 324 873 332 863 q 304 883 317 883 q 286 877 294 883 q 278 860 278 871 q 287 838 278 847 q 308 828 296 828 q 325 835 318 828 q 332 851 332 842 m 768 338 q 744 479 768 413 q 675 598 719 546 q 568 683 631 650 q 431 722 506 715 q 423 717 424 726 q 422 706 422 707 q 423 693 422 700 q 428 682 424 686 q 434 678 431 679 q 440 678 438 678 l 453 678 q 568 639 517 668 q 656 565 619 610 q 711 465 692 521 q 731 344 731 408 q 711 226 731 285 q 656 122 692 168 q 567 48 619 76 q 451 19 515 19 l 444 21 q 443 10 443 15 q 443 0 443 4 q 444 -14 443 -1 q 451 -22 444 -26 q 491 -15 471 -19 q 531 -3 511 -10 q 631 48 586 14 q 706 128 675 82 q 752 227 736 174 q 768 338 768 281 m 390 -8 q 389 7 390 -1 q 385 21 388 15 q 264 51 318 21 q 172 128 210 81 q 113 237 133 176 q 92 358 92 297 q 106 458 92 410 q 148 549 121 507 q 215 622 175 590 q 303 671 254 654 q 339 679 322 678 q 375 681 356 681 q 381 713 381 693 q 380 721 381 715 q 376 726 379 726 q 374 726 375 726 q 374 725 374 725 q 247 686 304 718 q 146 606 189 654 q 79 494 103 557 q 56 364 56 432 q 74 239 56 300 q 128 126 93 178 q 216 39 164 75 q 333 -11 268 3 q 343 -13 335 -11 q 360 -17 351 -15 q 377 -20 369 -18 q 385 -22 385 -22 q 390 -16 389 -21 q 390 -8 390 -11 z "},"":{"ha":726,"x_min":42,"x_max":685,"o":"m 458 851 q 450 873 458 863 q 431 883 442 883 q 411 877 419 883 q 403 860 403 871 q 412 838 403 847 q 433 828 421 828 q 451 835 443 828 q 458 851 458 842 m 308 851 q 301 873 308 863 q 282 883 293 883 q 263 877 271 883 q 254 860 254 871 q 263 838 254 847 q 285 828 272 828 q 301 835 294 828 q 308 851 308 842 m 685 706 q 672 714 681 714 q 647 710 660 714 q 624 707 635 707 q 602 712 613 707 q 581 717 592 717 q 569 714 576 717 q 563 706 563 711 q 576 687 563 694 q 597 672 590 679 q 616 634 614 654 q 619 590 618 614 q 625 492 622 542 q 628 392 628 442 q 620 263 628 328 q 588 145 613 197 q 517 59 564 93 q 392 24 471 25 q 388 8 389 17 q 386 -8 386 -1 q 387 -14 386 -10 q 390 -18 388 -18 q 393 -17 392 -18 q 474 0 436 -12 q 574 58 536 15 q 631 154 611 100 q 656 269 650 208 q 663 383 663 331 q 658 501 663 443 q 653 618 653 560 q 656 654 653 638 q 674 685 660 671 l 685 706 m 342 -7 q 336 24 342 11 q 300 26 318 25 q 264 33 282 28 q 174 88 207 49 q 125 179 142 128 q 103 287 108 231 q 99 392 99 343 q 101 492 99 442 q 107 590 104 542 q 110 634 107 614 q 129 672 113 654 q 150 687 136 679 q 164 706 164 694 q 157 714 164 711 q 146 717 150 717 q 124 712 135 717 q 101 707 113 707 q 78 710 90 707 q 54 714 67 714 q 42 706 43 714 l 53 685 q 70 654 67 671 q 74 618 74 638 q 69 501 74 560 q 64 385 64 443 q 70 269 64 329 q 97 154 76 208 q 154 58 117 100 q 256 0 192 17 q 335 -17 294 -11 q 338 -18 336 -18 q 341 -14 340 -18 q 342 -7 342 -10 z "},"":{"ha":596,"x_min":7,"x_max":567,"o":"m 421 922 q 419 936 421 925 q 414 947 418 947 q 398 936 413 947 q 364 911 383 925 q 326 886 344 897 q 299 875 307 875 q 280 874 290 875 q 269 861 269 874 q 270 858 269 858 q 271 854 271 857 q 267 836 267 846 q 270 828 267 833 q 276 822 274 822 q 294 833 276 822 q 333 858 311 844 q 377 883 356 871 q 406 899 399 896 q 421 922 421 906 m 567 274 q 558 285 563 281 q 549 294 553 289 q 517 342 538 310 q 472 416 496 375 q 421 502 447 457 q 372 588 394 547 q 334 663 350 629 q 313 713 318 696 q 293 724 303 721 q 281 719 288 721 q 272 711 275 717 q 261 692 265 703 q 251 672 257 682 l 207 589 q 135 458 171 522 q 63 328 100 393 q 40 288 51 308 q 15 247 28 267 q 10 241 13 243 q 7 233 7 239 q 13 226 7 229 q 25 221 18 224 q 39 216 32 218 q 49 214 46 214 q 88 301 64 260 q 135 383 111 342 q 278 406 206 394 q 419 438 350 417 q 481 340 447 392 q 533 239 514 288 q 555 253 544 243 q 567 274 565 263 m 403 467 q 278 440 342 451 q 153 422 215 428 q 222 544 189 483 q 292 664 254 606 q 347 565 321 615 q 403 467 372 515 z "},"":{"ha":596,"x_min":7,"x_max":567,"o":"m 313 839 q 311 848 313 843 q 308 857 310 853 q 292 878 310 878 q 285 877 289 878 q 278 878 281 876 q 249 891 268 879 q 212 916 231 903 q 179 940 193 929 q 165 950 165 950 q 160 939 161 950 q 158 925 158 928 q 174 901 158 908 q 201 886 181 899 q 244 860 222 874 q 284 836 267 847 q 301 825 301 825 q 309 831 306 825 q 313 839 313 836 m 567 274 q 558 285 563 281 q 549 294 553 289 q 517 342 538 310 q 472 416 496 375 q 421 502 447 457 q 372 588 394 547 q 334 663 350 629 q 313 713 318 696 q 293 724 303 721 q 281 719 288 721 q 272 711 275 717 q 261 692 265 703 q 251 672 257 682 l 207 589 q 135 458 171 522 q 63 328 100 393 q 40 288 51 308 q 15 247 28 267 q 10 241 13 243 q 7 233 7 239 q 13 226 7 229 q 25 221 18 224 q 39 216 32 218 q 49 214 46 214 q 88 301 64 260 q 135 383 111 342 q 278 406 206 394 q 419 438 350 417 q 481 340 447 392 q 533 239 514 288 q 555 253 544 243 q 567 274 565 263 m 403 467 q 278 440 342 451 q 153 422 215 428 q 222 544 189 483 q 292 664 254 606 q 347 565 321 615 q 403 467 372 515 z "},"":{"ha":596,"x_min":7,"x_max":567,"o":"m 378 860 q 372 867 378 864 q 364 872 367 869 q 331 897 346 883 q 297 919 317 910 q 290 924 297 924 q 283 923 288 924 q 278 919 279 922 q 243 897 258 911 q 211 872 228 883 q 203 867 207 869 q 199 857 199 864 q 203 840 199 854 q 213 826 208 826 q 217 831 217 826 q 249 863 235 854 q 288 888 264 872 q 310 873 301 878 q 325 863 318 868 q 339 850 332 857 q 357 829 346 843 q 363 825 360 826 q 367 830 364 825 q 372 841 369 835 q 376 853 374 847 q 378 860 378 858 m 567 274 q 558 285 563 281 q 549 294 553 289 q 517 342 538 310 q 472 416 496 375 q 421 502 447 457 q 372 588 394 547 q 334 663 350 629 q 313 713 318 696 q 293 724 303 721 q 281 719 288 721 q 272 711 275 717 q 261 692 265 703 q 251 672 257 682 l 207 589 q 135 458 171 522 q 63 328 100 393 q 40 288 51 308 q 15 247 28 267 q 10 241 13 243 q 7 233 7 239 q 13 226 7 229 q 25 221 18 224 q 39 216 32 218 q 49 214 46 214 q 88 301 64 260 q 135 383 111 342 q 278 406 206 394 q 419 438 350 417 q 481 340 447 392 q 533 239 514 288 q 555 253 544 243 q 567 274 565 263 m 403 467 q 278 440 342 451 q 153 422 215 428 q 222 544 189 483 q 292 664 254 606 q 347 565 321 615 q 403 467 372 515 z "},"":{"ha":596,"x_min":7,"x_max":567,"o":"m 390 851 q 382 872 390 863 q 363 882 374 882 q 343 876 351 882 q 335 860 335 871 q 344 838 335 847 q 365 828 353 828 q 383 835 375 828 q 390 851 390 842 m 240 851 q 233 872 240 863 q 213 882 225 882 q 194 876 203 882 q 185 860 185 871 q 194 838 185 847 q 217 828 204 828 q 233 835 226 828 q 240 851 240 842 m 567 274 q 558 285 563 281 q 549 294 553 289 q 517 342 538 310 q 472 416 496 375 q 421 502 447 457 q 372 588 394 547 q 334 663 350 629 q 313 713 318 696 q 293 724 303 721 q 281 719 288 721 q 272 711 275 717 q 261 692 265 703 q 251 672 257 682 l 207 589 q 135 458 171 522 q 63 328 100 393 q 40 288 51 308 q 15 247 28 267 q 10 241 13 243 q 7 233 7 239 q 13 226 7 229 q 25 221 18 224 q 39 216 32 218 q 49 214 46 214 q 88 301 64 260 q 135 383 111 342 q 278 406 206 394 q 419 438 350 417 q 481 340 447 392 q 533 239 514 288 q 555 253 544 243 q 567 274 565 263 m 403 467 q 278 440 342 451 q 153 422 215 428 q 222 544 189 483 q 292 664 254 606 q 347 565 321 615 q 403 467 372 515 z "},"":{"ha":596,"x_min":7,"x_max":567,"o":"m 410 882 q 399 898 410 890 q 382 908 389 906 q 376 892 379 901 q 368 872 372 882 q 358 854 364 861 q 343 847 351 847 q 320 857 332 847 q 295 878 308 867 q 266 899 282 889 q 231 908 250 908 q 189 897 210 908 q 161 864 168 886 l 160 863 q 172 851 160 856 q 188 843 183 846 q 202 872 192 858 q 229 885 213 885 q 256 875 243 885 q 283 853 269 865 q 312 832 297 842 q 343 822 326 822 q 384 840 367 822 q 408 879 401 858 l 410 882 m 567 274 q 558 285 563 281 q 549 294 553 289 q 517 342 538 310 q 472 416 496 375 q 421 502 447 457 q 372 588 394 547 q 334 663 350 629 q 313 713 318 696 q 293 724 303 721 q 281 719 288 721 q 272 711 275 717 q 261 692 265 703 q 251 672 257 682 l 207 589 q 135 458 171 522 q 63 328 100 393 q 40 288 51 308 q 15 247 28 267 q 10 241 13 243 q 7 233 7 239 q 13 226 7 229 q 25 221 18 224 q 39 216 32 218 q 49 214 46 214 q 88 301 64 260 q 135 383 111 342 q 278 406 206 394 q 419 438 350 417 q 481 340 447 392 q 533 239 514 288 q 555 253 544 243 q 567 274 565 263 m 403 467 q 278 440 342 451 q 153 422 215 428 q 222 544 189 483 q 292 664 254 606 q 347 565 321 615 q 403 467 372 515 z "},"":{"ha":585,"x_min":7,"x_max":567,"o":"m 343 881 q 327 924 343 906 q 286 942 311 942 q 247 925 263 942 q 232 885 232 908 q 247 842 232 860 q 289 824 263 824 q 328 840 313 824 q 343 881 343 857 m 315 883 q 286 853 315 853 q 267 863 275 853 q 260 883 260 872 q 267 904 260 896 q 288 913 275 913 q 307 903 299 913 q 315 883 315 894 m 567 274 q 558 285 563 281 q 549 294 553 289 q 517 342 538 310 q 472 416 496 375 q 421 502 447 457 q 372 588 394 547 q 334 663 350 629 q 313 713 318 696 q 293 724 303 721 q 281 719 288 721 q 272 711 275 717 q 261 692 265 703 q 251 672 257 682 l 207 589 q 135 458 171 522 q 63 328 100 393 q 40 288 51 308 q 15 247 28 267 q 10 241 13 243 q 7 233 7 239 q 13 226 7 229 q 25 221 18 224 q 39 216 32 218 q 49 214 46 214 q 88 301 64 260 q 135 383 111 342 q 278 406 206 394 q 419 438 350 417 q 481 340 447 392 q 533 239 514 288 q 555 253 544 243 q 567 274 565 263 m 403 467 q 278 440 342 451 q 153 422 215 428 q 222 544 189 483 q 292 664 254 606 q 347 565 321 615 q 403 467 372 515 z "},"":{"ha":482,"x_min":21,"x_max":447,"o":"m 447 313 q 447 328 447 315 q 440 340 446 340 q 438 340 439 340 q 436 339 438 339 q 385 306 408 321 q 339 281 363 292 q 289 267 315 271 q 229 265 263 263 l 224 265 q 93 313 133 272 q 53 443 53 354 q 69 531 53 488 q 113 609 85 575 q 181 665 142 643 q 268 686 221 686 q 313 683 294 686 q 353 663 331 679 q 357 660 353 660 q 361 666 358 660 q 367 680 364 672 q 372 695 369 688 q 378 706 375 703 q 333 716 357 714 q 288 718 310 718 q 178 697 226 718 q 94 640 129 676 q 40 552 58 603 q 21 442 21 501 q 67 289 21 343 q 214 233 113 235 q 210 223 213 231 q 203 207 207 215 q 198 192 200 199 q 196 183 196 185 q 197 181 196 181 q 227 160 215 172 q 239 126 239 149 q 226 94 239 107 q 194 81 214 81 q 179 83 186 81 q 165 89 172 86 q 153 75 161 85 q 146 58 146 65 q 150 56 146 56 q 173 51 160 53 q 197 50 186 50 q 251 72 228 50 q 274 125 274 94 q 263 165 274 147 q 235 194 251 182 q 242 214 239 204 q 249 233 246 224 q 303 240 276 236 q 357 253 331 243 q 376 260 363 254 q 406 272 390 265 q 434 287 422 279 q 447 300 446 294 l 447 313 z "},"":{"ha":432,"x_min":47,"x_max":394,"o":"m 299 922 q 297 936 299 925 q 292 947 296 947 q 276 936 292 947 q 242 911 261 925 q 204 886 222 897 q 178 875 186 875 q 158 874 168 875 q 149 861 149 874 l 149 854 q 146 845 147 850 q 144 836 144 840 q 148 828 144 833 q 154 822 151 822 q 172 833 154 822 q 213 858 190 844 q 256 883 235 871 q 283 899 276 896 q 299 922 299 906 m 394 553 q 392 561 394 558 q 318 547 356 550 q 242 542 281 543 q 167 542 204 542 q 92 540 129 542 q 90 560 90 551 q 89 581 89 569 q 90 614 89 597 q 90 647 90 631 l 90 671 q 206 675 149 675 q 274 667 240 675 q 272 676 274 672 q 269 685 269 679 l 269 717 q 266 717 267 717 q 263 718 265 718 q 243 714 251 718 q 226 707 235 710 q 188 701 207 703 q 149 700 168 700 q 108 701 128 700 q 67 700 88 701 q 57 686 60 694 q 54 668 54 678 q 58 542 54 606 q 51 540 56 542 q 47 536 47 539 q 53 513 47 522 q 60 500 60 508 q 63 451 63 476 q 63 404 63 428 q 62 326 63 364 q 60 247 61 288 q 90 224 69 224 q 181 227 136 224 q 272 231 226 231 q 307 226 290 231 q 342 221 324 221 q 345 222 344 221 q 349 222 346 222 l 338 246 q 335 263 335 250 q 328 275 335 275 q 304 271 321 275 q 278 264 288 267 q 168 256 224 256 q 132 256 150 256 q 97 258 115 256 q 92 349 94 303 q 90 439 90 394 q 90 474 90 457 q 92 508 90 490 q 172 511 132 508 q 253 514 213 514 q 321 511 283 514 q 383 489 358 508 q 388 497 388 492 q 389 507 389 503 l 389 524 q 392 538 389 531 q 394 553 394 546 z "},"":{"ha":432,"x_min":47,"x_max":394,"o":"m 211 839 q 210 848 211 843 q 207 857 208 853 q 189 878 208 878 q 183 877 186 878 q 176 878 179 876 q 148 891 167 879 q 110 916 129 903 q 78 940 92 929 q 64 950 64 950 q 58 939 60 950 q 57 925 57 928 q 72 901 57 908 q 100 886 79 899 q 143 860 121 874 q 183 836 165 847 q 200 825 200 825 q 207 831 203 825 q 211 839 211 836 m 394 553 q 392 561 394 558 q 318 547 356 550 q 242 542 281 543 q 167 542 204 542 q 92 540 129 542 q 90 560 90 551 q 89 581 89 569 q 90 614 89 597 q 90 647 90 631 l 90 671 q 206 675 149 675 q 274 667 240 675 q 272 676 274 672 q 269 685 269 679 l 269 717 q 266 717 267 717 q 263 718 265 718 q 243 714 251 718 q 226 707 235 710 q 188 701 207 703 q 149 700 168 700 q 108 701 128 700 q 67 700 88 701 q 57 686 60 694 q 54 668 54 678 q 58 542 54 606 q 51 540 56 542 q 47 536 47 539 q 53 513 47 522 q 60 500 60 508 q 63 451 63 476 q 63 404 63 428 q 62 326 63 364 q 60 247 61 288 q 90 224 69 224 q 181 227 136 224 q 272 231 226 231 q 307 226 290 231 q 342 221 324 221 q 345 222 344 221 q 349 222 346 222 l 338 246 q 335 263 335 250 q 328 275 335 275 q 304 271 321 275 q 278 264 288 267 q 168 256 224 256 q 132 256 150 256 q 97 258 115 256 q 92 349 94 303 q 90 439 90 394 q 90 474 90 457 q 92 508 90 490 q 172 511 132 508 q 253 514 213 514 q 321 511 283 514 q 383 489 358 508 q 388 497 388 492 q 389 507 389 503 l 389 524 q 392 538 389 531 q 394 553 394 546 z "},"":{"ha":432,"x_min":47,"x_max":394,"o":"m 271 860 q 265 867 271 864 q 257 872 260 869 q 240 883 251 875 q 217 901 229 892 q 195 917 206 910 q 182 924 185 924 q 169 919 174 924 q 136 897 151 911 q 103 872 121 883 q 92 857 92 867 q 96 840 92 854 q 104 826 100 826 q 110 831 107 826 q 142 863 128 854 q 179 888 156 872 q 201 873 193 878 q 217 863 210 868 q 231 850 224 857 q 250 829 239 843 q 256 825 253 826 q 260 830 257 825 q 265 841 263 835 q 269 853 267 847 q 271 860 271 858 m 394 553 q 392 561 394 558 q 318 547 356 550 q 242 542 281 543 q 167 542 204 542 q 92 540 129 542 q 90 560 90 551 q 89 581 89 569 q 90 614 89 597 q 90 647 90 631 l 90 671 q 206 675 149 675 q 274 667 240 675 q 272 676 274 672 q 269 685 269 679 l 269 717 q 266 717 267 717 q 263 718 265 718 q 243 714 251 718 q 226 707 235 710 q 188 701 207 703 q 149 700 168 700 q 108 701 128 700 q 67 700 88 701 q 57 686 60 694 q 54 668 54 678 q 58 542 54 606 q 51 540 56 542 q 47 536 47 539 q 53 513 47 522 q 60 500 60 508 q 63 451 63 476 q 63 404 63 428 q 62 326 63 364 q 60 247 61 288 q 90 224 69 224 q 181 227 136 224 q 272 231 226 231 q 307 226 290 231 q 342 221 324 221 q 345 222 344 221 q 349 222 346 222 l 338 246 q 335 263 335 250 q 328 275 335 275 q 304 271 321 275 q 278 264 288 267 q 168 256 224 256 q 132 256 150 256 q 97 258 115 256 q 92 349 94 303 q 90 439 90 394 q 90 474 90 457 q 92 508 90 490 q 172 511 132 508 q 253 514 213 514 q 321 511 283 514 q 383 489 358 508 q 388 497 388 492 q 389 507 389 503 l 389 524 q 392 538 389 531 q 394 553 394 546 z "},"":{"ha":432,"x_min":47,"x_max":394,"o":"m 267 851 q 258 873 267 863 q 239 883 250 883 q 219 877 228 883 q 211 860 211 871 q 220 838 211 847 q 242 828 229 828 q 259 835 251 828 q 267 851 267 842 m 117 851 q 109 873 117 863 q 89 883 101 883 q 70 877 79 883 q 61 860 61 871 q 71 838 61 847 q 93 828 81 828 q 110 835 103 828 q 117 851 117 842 m 394 553 q 392 561 394 558 q 318 547 356 550 q 242 542 281 543 q 167 542 204 542 q 92 540 129 542 q 90 560 90 551 q 89 581 89 569 q 90 614 89 597 q 90 647 90 631 l 90 671 q 206 675 149 675 q 274 667 240 675 q 272 676 274 672 q 269 685 269 679 l 269 717 q 266 717 267 717 q 263 718 265 718 q 243 714 251 718 q 226 707 235 710 q 188 701 207 703 q 149 700 168 700 q 108 701 128 700 q 67 700 88 701 q 57 686 60 694 q 54 668 54 678 q 58 542 54 606 q 51 540 56 542 q 47 536 47 539 q 53 513 47 522 q 60 500 60 508 q 63 451 63 476 q 63 404 63 428 q 62 326 63 364 q 60 247 61 288 q 90 224 69 224 q 181 227 136 224 q 272 231 226 231 q 307 226 290 231 q 342 221 324 221 q 345 222 344 221 q 349 222 346 222 l 338 246 q 335 263 335 250 q 328 275 335 275 q 304 271 321 275 q 278 264 288 267 q 168 256 224 256 q 132 256 150 256 q 97 258 115 256 q 92 349 94 303 q 90 439 90 394 q 90 474 90 457 q 92 508 90 490 q 172 511 132 508 q 253 514 213 514 q 321 511 283 514 q 383 489 358 508 q 388 497 388 492 q 389 507 389 503 l 389 524 q 392 538 389 531 q 394 553 394 546 z "},"":{"ha":235,"x_min":74,"x_max":232,"o":"m 232 922 q 231 936 232 925 q 225 947 229 947 q 210 936 225 947 q 175 911 194 925 q 138 886 156 897 q 111 875 119 875 q 92 874 103 875 q 82 861 82 874 l 82 854 q 79 845 81 850 q 78 836 78 840 q 81 828 78 833 q 89 822 85 822 q 106 833 89 822 q 146 858 124 844 q 189 883 168 871 q 217 899 210 896 q 232 922 232 906 m 138 231 q 132 267 135 250 q 128 303 129 283 q 124 413 125 358 q 122 524 122 468 q 123 591 122 557 q 126 658 124 625 q 131 689 128 672 q 133 719 133 706 q 122 729 133 729 q 112 727 119 729 q 96 722 104 725 q 81 717 88 719 q 74 711 74 714 q 76 699 74 706 q 78 688 78 693 q 85 644 82 667 q 89 601 89 622 q 90 488 89 543 q 92 375 92 432 l 92 332 q 90 310 90 321 q 88 288 90 299 q 83 268 86 278 q 81 250 81 258 q 86 240 81 244 q 99 233 92 236 q 113 228 106 229 q 124 226 119 226 q 138 231 131 226 z "},"":{"ha":235,"x_min":-21,"x_max":138,"o":"m 133 839 q 132 848 133 843 q 129 857 131 853 q 113 878 131 878 q 106 877 110 878 q 99 878 101 876 q 70 891 89 879 q 33 916 51 903 q 0 940 14 929 q -14 950 -14 950 q -19 939 -18 950 q -21 925 -21 928 q -6 901 -21 908 q 22 886 1 899 q 65 860 43 874 q 105 836 88 847 q 122 825 122 825 q 130 831 126 825 q 133 839 133 836 m 138 231 q 132 267 135 250 q 128 303 129 283 q 124 413 125 358 q 122 524 122 468 q 123 591 122 557 q 126 658 124 625 q 131 689 128 672 q 133 719 133 706 q 122 729 133 729 q 112 727 119 729 q 96 722 104 725 q 81 717 88 719 q 74 711 74 714 q 76 699 74 706 q 78 688 78 693 q 85 644 82 667 q 89 601 89 622 q 90 488 89 543 q 92 375 92 432 l 92 332 q 90 310 90 321 q 88 288 90 299 q 83 268 86 278 q 81 250 81 258 q 86 240 81 244 q 99 233 92 236 q 113 228 106 229 q 124 226 119 226 q 138 231 131 226 z "},"":{"ha":235,"x_min":8,"x_max":188,"o":"m 188 860 q 182 867 188 864 q 174 872 176 869 q 141 897 156 883 q 107 919 126 910 q 99 924 104 924 q 86 919 89 924 q 53 897 68 911 q 19 872 38 883 q 8 857 8 867 q 13 840 8 854 q 22 826 18 826 q 26 831 24 826 q 58 863 44 854 q 96 888 72 872 q 119 873 110 878 q 135 863 128 868 q 149 850 142 857 q 167 829 156 843 q 172 825 169 826 q 176 830 174 825 q 181 841 179 835 q 185 853 183 847 q 188 860 188 858 m 138 231 q 132 267 135 250 q 128 303 129 283 q 124 413 125 358 q 122 524 122 468 q 123 591 122 557 q 126 658 124 625 q 131 689 128 672 q 133 719 133 706 q 122 729 133 729 q 112 727 119 729 q 96 722 104 725 q 81 717 88 719 q 74 711 74 714 q 76 699 74 706 q 78 688 78 693 q 85 644 82 667 q 89 601 89 622 q 90 488 89 543 q 92 375 92 432 l 92 332 q 90 310 90 321 q 88 288 90 299 q 83 268 86 278 q 81 250 81 258 q 86 240 81 244 q 99 233 92 236 q 113 228 106 229 q 124 226 119 226 q 138 231 131 226 z "},"":{"ha":235,"x_min":-3,"x_max":201,"o":"m 201 851 q 194 873 201 863 q 174 883 186 883 q 154 877 163 883 q 146 860 146 871 q 156 838 146 847 q 178 828 165 828 q 194 835 188 828 q 201 851 201 842 m 53 851 q 45 873 53 863 q 25 883 38 883 q 6 877 14 883 q -3 860 -3 871 q 6 838 -3 847 q 29 828 15 828 q 46 835 39 828 q 53 851 53 842 m 138 231 q 132 267 135 250 q 128 303 129 283 q 124 413 125 358 q 122 524 122 468 q 123 591 122 557 q 126 658 124 625 q 131 689 128 672 q 133 719 133 706 q 122 729 133 729 q 112 727 119 729 q 96 722 104 725 q 81 717 88 719 q 74 711 74 714 q 76 699 74 706 q 78 688 78 693 q 85 644 82 667 q 89 601 89 622 q 90 488 89 543 q 92 375 92 432 l 92 332 q 90 310 90 321 q 88 288 90 299 q 83 268 86 278 q 81 250 81 258 q 86 240 81 244 q 99 233 92 236 q 113 228 106 229 q 124 226 119 226 q 138 231 131 226 z "},"":{"ha":607,"x_min":40,"x_max":535,"o":"m 414 882 q 403 898 414 890 q 386 908 393 906 q 381 892 383 901 q 373 872 378 882 q 362 854 368 861 q 347 847 356 847 q 325 857 336 847 q 300 878 314 867 q 270 899 286 889 q 235 908 254 908 q 193 897 214 908 q 165 864 172 886 l 165 863 q 176 851 165 856 q 193 843 188 846 q 206 872 196 858 q 235 885 217 885 q 260 875 247 885 q 288 853 274 865 q 317 832 301 842 q 349 822 332 822 q 389 840 372 822 q 413 879 406 858 q 414 881 414 879 q 414 882 414 882 m 535 731 q 532 738 535 738 q 519 734 529 738 q 503 731 510 731 q 492 730 497 731 q 488 722 488 729 q 488 653 488 688 q 490 585 489 619 q 490 435 490 510 q 492 283 490 360 q 281 499 383 389 q 71 717 178 610 q 68 717 69 717 q 67 718 67 718 q 57 715 63 718 q 47 708 51 711 q 47 701 47 706 q 46 693 46 697 q 47 574 46 633 q 47 453 47 514 q 47 376 47 414 q 44 297 46 338 q 42 258 43 278 q 40 218 40 238 q 47 214 40 214 q 67 219 51 214 q 83 231 83 224 q 83 254 83 242 q 81 279 82 267 q 80 327 81 303 q 79 375 79 351 q 81 501 79 438 q 82 626 82 564 l 82 651 q 224 509 154 581 q 364 364 293 438 q 405 322 385 343 q 446 279 425 301 q 465 257 456 268 q 485 236 474 246 q 493 231 492 231 q 504 231 496 231 q 514 232 510 231 q 524 233 518 233 q 522 296 522 265 q 522 357 522 326 q 523 488 522 424 q 524 619 524 553 q 529 675 524 647 q 535 731 535 703 z "},"":{"ha":604,"x_min":35,"x_max":551,"o":"m 403 922 q 402 936 403 925 q 397 947 401 947 q 381 936 396 947 q 347 911 367 925 q 309 886 328 897 q 282 875 290 875 q 263 874 274 875 q 253 861 253 874 q 254 854 253 857 q 249 836 249 843 q 253 828 249 833 q 260 822 257 822 q 277 833 260 822 q 317 858 294 844 q 360 883 339 871 q 388 899 381 896 q 403 922 403 904 m 551 464 q 539 550 551 508 q 503 626 526 592 q 444 686 479 661 q 365 722 410 711 q 356 724 363 722 q 340 728 349 726 q 325 731 332 729 q 318 733 318 733 q 315 727 315 732 q 314 719 314 722 q 318 692 314 704 q 401 671 364 689 q 465 622 439 653 q 506 552 492 592 q 519 468 519 513 q 506 385 519 424 q 467 318 492 347 q 406 272 442 289 q 324 253 369 254 q 319 226 319 240 q 320 219 319 224 q 324 214 321 214 l 326 214 q 490 294 428 229 q 551 464 551 360 m 272 719 q 272 727 272 721 q 268 733 271 733 q 265 732 265 733 q 243 728 254 731 q 221 722 232 725 q 147 689 181 713 q 88 632 113 665 q 49 560 63 599 q 35 479 35 521 l 35 476 q 69 329 35 393 q 182 233 103 265 q 220 222 201 226 q 258 214 239 218 l 261 214 q 266 219 265 214 q 267 226 267 224 q 263 253 267 240 q 117 317 169 258 q 65 467 65 375 q 79 553 65 513 q 119 624 93 593 q 182 672 144 654 q 268 692 219 689 q 272 719 272 704 z "},"":{"ha":604,"x_min":35,"x_max":551,"o":"m 319 839 q 314 857 319 846 q 297 878 318 878 q 291 877 294 878 q 285 878 288 876 q 256 891 275 879 q 219 916 238 903 q 185 940 200 929 q 171 950 171 950 q 165 939 167 950 q 164 925 164 928 q 179 901 164 908 q 208 886 188 899 q 251 860 229 874 q 291 836 274 847 q 308 825 308 825 q 315 831 311 825 q 319 839 319 836 m 551 464 q 539 550 551 508 q 503 626 526 592 q 444 686 479 661 q 365 722 410 711 q 356 724 363 722 q 340 728 349 726 q 325 731 332 729 q 318 733 318 733 q 315 727 315 732 q 314 719 314 722 q 318 692 314 704 q 401 671 364 689 q 465 622 439 653 q 506 552 492 592 q 519 468 519 513 q 506 385 519 424 q 467 318 492 347 q 406 272 442 289 q 324 253 369 254 q 319 226 319 240 q 320 219 319 224 q 324 214 321 214 l 326 214 q 490 294 428 229 q 551 464 551 360 m 272 719 q 272 727 272 721 q 268 733 271 733 q 265 732 265 733 q 243 728 254 731 q 221 722 232 725 q 147 689 181 713 q 88 632 113 665 q 49 560 63 599 q 35 479 35 521 l 35 476 q 69 329 35 393 q 182 233 103 265 q 220 222 201 226 q 258 214 239 218 l 261 214 q 266 219 265 214 q 267 226 267 224 q 263 253 267 240 q 117 317 169 258 q 65 467 65 375 q 79 553 65 513 q 119 624 93 593 q 182 672 144 654 q 268 692 219 689 q 272 719 272 704 z "},"":{"ha":604,"x_min":35,"x_max":551,"o":"m 376 860 q 371 867 376 864 q 363 872 365 869 q 330 897 344 883 q 296 919 315 910 q 288 924 293 924 q 275 919 278 924 q 242 897 257 911 q 210 872 226 883 q 197 857 197 867 q 202 840 197 854 q 211 826 207 826 q 215 831 213 826 q 247 863 233 854 q 285 888 261 872 q 308 873 299 878 q 324 863 317 868 q 338 850 331 857 q 356 829 344 843 q 361 825 358 826 q 365 830 363 825 q 370 841 368 835 q 374 853 372 847 q 376 860 376 858 m 551 464 q 539 550 551 508 q 503 626 526 592 q 444 686 479 661 q 365 722 410 711 q 356 724 363 722 q 340 728 349 726 q 325 731 332 729 q 318 733 318 733 q 315 727 315 732 q 314 719 314 722 q 318 692 314 704 q 401 671 364 689 q 465 622 439 653 q 506 552 492 592 q 519 468 519 513 q 506 385 519 424 q 467 318 492 347 q 406 272 442 289 q 324 253 369 254 q 319 225 319 240 q 320 217 319 222 q 324 213 321 213 q 326 213 325 213 q 326 214 326 214 q 490 294 428 229 q 551 464 551 360 m 272 719 q 272 727 272 721 q 268 733 271 733 q 265 732 265 733 q 243 728 254 731 q 221 722 232 725 q 147 689 181 713 q 88 632 113 665 q 49 560 63 599 q 35 479 35 521 l 35 476 q 69 329 35 393 q 182 233 103 265 q 220 222 201 226 q 258 214 239 218 q 263 213 261 214 q 265 218 265 214 q 265 225 265 222 q 265 239 265 232 q 263 253 265 246 q 117 317 169 258 q 65 467 65 375 q 79 553 65 513 q 119 624 93 593 q 182 672 144 654 q 268 692 219 689 q 272 719 272 704 z "},"":{"ha":604,"x_min":35,"x_max":551,"o":"m 388 851 q 380 873 388 863 q 360 883 372 883 q 340 877 349 883 q 332 860 332 871 q 341 838 332 847 q 364 828 350 828 q 380 835 372 828 q 388 851 388 842 m 239 851 q 231 873 239 863 q 211 883 222 883 q 192 877 200 883 q 183 860 183 871 q 192 838 183 847 q 214 828 201 828 q 231 835 224 828 q 239 851 239 842 m 551 464 q 539 550 551 508 q 503 626 526 592 q 444 686 479 661 q 365 722 410 711 q 356 724 363 722 q 340 728 349 726 q 325 731 332 729 q 318 733 318 733 q 315 727 315 732 q 314 719 314 722 q 318 692 314 704 q 401 671 364 689 q 465 622 439 653 q 506 552 492 592 q 519 468 519 513 q 506 385 519 424 q 467 318 492 347 q 406 272 442 289 q 324 253 369 254 q 319 225 319 240 q 320 217 319 222 q 324 213 321 213 q 326 213 325 213 q 326 214 326 214 q 490 294 428 229 q 551 464 551 360 m 272 719 q 272 727 272 721 q 268 733 271 733 q 265 732 265 733 q 243 728 254 731 q 221 722 232 725 q 147 689 181 713 q 88 632 113 665 q 49 560 63 599 q 35 479 35 521 l 35 476 q 69 329 35 393 q 182 233 103 265 q 220 222 201 226 q 258 214 239 218 q 263 213 261 214 q 265 218 265 214 q 265 225 265 222 q 265 239 265 232 q 263 253 265 246 q 117 317 169 258 q 65 467 65 375 q 79 553 65 513 q 119 624 93 593 q 182 672 144 654 q 268 692 219 689 q 272 719 272 704 z "},"":{"ha":604,"x_min":35,"x_max":551,"o":"m 418 882 q 408 898 418 890 q 390 908 397 906 q 384 892 388 901 q 376 872 381 882 q 366 854 372 861 q 351 847 360 847 q 328 857 340 847 q 303 878 317 867 q 274 899 290 889 q 239 908 258 908 q 197 897 218 908 q 169 864 176 886 l 168 863 q 180 851 168 856 q 196 843 192 846 q 210 872 200 858 q 238 885 221 885 q 265 875 251 885 q 292 853 278 865 q 320 832 306 842 q 351 822 335 822 q 392 840 375 822 q 417 879 410 858 l 418 882 m 551 464 q 539 550 551 508 q 503 626 526 592 q 444 686 479 661 q 365 722 410 711 q 356 724 363 722 q 340 728 349 726 q 325 731 332 729 q 318 733 318 733 q 315 727 315 732 q 314 719 314 722 q 318 692 314 704 q 401 671 364 689 q 465 622 439 653 q 506 552 492 592 q 519 468 519 513 q 506 385 519 424 q 467 318 492 347 q 406 272 442 289 q 324 253 369 254 q 319 225 319 240 q 320 217 319 222 q 324 213 321 213 q 326 213 325 213 q 326 214 326 214 q 490 294 428 229 q 551 464 551 360 m 272 719 q 272 727 272 721 q 268 733 271 733 q 259 732 265 733 q 245 728 253 731 q 231 724 238 726 q 221 722 224 722 q 147 689 181 713 q 88 632 113 665 q 49 560 63 599 q 35 479 35 521 l 35 476 q 69 329 35 393 q 182 233 103 265 q 220 222 201 226 q 258 214 239 218 q 263 213 261 214 q 265 218 265 214 q 265 225 265 222 q 265 239 265 232 q 263 253 265 246 q 117 317 169 258 q 65 467 65 375 q 79 553 65 513 q 119 624 93 593 q 182 672 144 654 q 268 692 219 689 q 272 719 272 704 z "},"":{"ha":581,"x_min":54,"x_max":522,"o":"m 386 922 q 385 936 386 925 q 379 947 383 947 q 364 936 379 947 q 329 911 349 925 q 292 886 310 897 q 265 875 274 875 q 247 874 257 875 q 236 861 236 874 l 236 854 q 233 845 235 850 q 232 836 232 840 q 236 828 232 833 q 243 822 240 822 q 260 833 243 822 q 300 858 278 844 q 343 883 322 871 q 371 899 364 896 q 386 922 386 904 m 522 718 q 518 719 522 719 q 507 719 513 719 q 496 718 501 718 q 483 719 490 718 q 476 713 476 721 q 480 617 476 664 q 483 521 483 569 q 481 452 483 489 q 467 381 478 415 q 437 319 457 347 q 382 278 417 292 l 382 279 q 350 269 367 272 q 318 265 333 267 q 315 253 315 258 q 315 242 315 249 q 316 232 315 239 q 319 225 317 225 q 321 225 321 225 q 322 226 321 226 q 422 262 385 238 q 480 322 460 286 q 506 405 500 358 q 513 507 513 451 l 513 583 q 515 649 513 618 q 522 714 518 681 q 522 718 522 714 m 263 242 q 263 253 263 249 q 260 265 263 258 q 228 269 244 267 q 196 279 211 272 l 196 278 q 141 319 161 292 q 110 381 121 347 q 97 452 100 415 q 94 521 94 489 q 98 617 94 569 q 101 713 101 664 q 96 719 101 719 q 89 719 93 719 q 82 718 85 718 q 70 719 75 718 q 58 719 65 719 q 56 719 58 719 q 54 718 54 719 l 54 714 q 63 649 60 681 q 65 583 65 618 q 65 476 65 529 q 76 375 64 422 q 120 292 89 328 q 217 236 151 256 q 225 235 218 236 q 239 231 232 233 q 251 228 246 229 q 258 225 257 226 q 262 233 261 226 q 263 242 263 239 z "},"":{"ha":581,"x_min":54,"x_max":522,"o":"m 335 839 q 333 848 335 843 q 331 857 332 853 q 314 878 332 878 q 307 877 311 878 q 300 878 303 876 q 272 891 290 879 q 234 916 253 903 q 201 940 215 929 q 188 950 188 950 q 182 939 183 950 q 181 925 181 928 q 196 901 181 908 q 225 886 204 899 q 267 860 246 874 q 306 836 289 847 q 324 825 324 825 q 331 831 328 825 q 335 839 335 836 m 522 718 q 518 719 522 719 q 507 719 513 719 q 496 718 501 718 q 483 719 490 718 q 476 713 476 721 q 480 617 476 664 q 483 521 483 569 q 481 452 483 489 q 467 381 478 415 q 437 319 457 347 q 382 278 417 292 l 382 279 q 350 269 367 272 q 318 265 333 267 q 315 253 315 258 q 315 242 315 249 q 316 232 315 239 q 319 225 317 225 q 321 225 321 225 q 322 226 321 226 q 422 262 385 238 q 480 322 460 286 q 506 405 500 358 q 513 507 513 451 l 513 583 q 515 649 513 618 q 522 714 518 681 q 522 718 522 714 m 263 242 q 263 253 263 249 q 260 265 263 258 q 228 269 244 267 q 196 279 211 272 l 196 278 q 141 319 161 292 q 110 381 121 347 q 97 452 100 415 q 94 521 94 489 q 98 617 94 569 q 101 713 101 664 q 96 719 101 719 q 89 719 93 719 q 82 718 85 718 q 70 719 75 718 q 58 719 65 719 q 56 719 58 719 q 54 718 54 719 l 54 714 q 63 649 60 681 q 65 583 65 618 q 65 476 65 529 q 76 375 64 422 q 120 292 89 328 q 217 236 151 256 q 225 235 218 236 q 239 231 232 233 q 251 228 246 229 q 258 225 257 226 q 262 233 261 226 q 263 242 263 239 z "},"":{"ha":581,"x_min":54,"x_max":524,"o":"m 378 860 q 372 867 378 864 q 364 872 367 869 q 331 897 346 883 q 299 919 317 910 q 290 924 296 924 q 278 919 281 924 q 243 897 258 911 q 211 872 228 883 q 203 867 207 869 q 199 857 199 864 q 203 840 199 854 q 213 826 208 826 q 218 831 215 826 q 250 863 236 854 q 288 888 264 872 q 310 873 301 878 q 325 863 318 868 q 339 850 332 857 q 357 829 346 843 q 360 827 358 828 q 363 825 361 826 q 367 830 364 825 q 372 841 369 835 q 376 853 374 847 q 378 860 378 858 m 522 718 q 518 719 524 719 q 507 719 513 719 q 496 718 501 718 q 483 719 490 718 q 476 713 476 721 q 480 617 476 664 q 483 521 483 569 q 481 452 483 489 q 467 381 478 415 q 437 319 457 347 q 382 278 417 292 l 382 279 q 350 269 367 272 q 318 265 333 267 q 315 253 315 258 q 315 242 315 249 q 316 232 315 239 q 319 225 317 225 q 321 225 321 225 q 322 226 321 226 q 422 262 385 238 q 480 322 460 286 q 506 405 500 358 q 513 507 513 451 l 513 583 q 515 649 513 619 q 522 714 518 679 l 522 718 m 263 242 q 263 253 263 249 q 260 265 263 258 q 228 269 244 267 q 196 279 211 272 l 196 278 q 141 319 161 292 q 110 381 121 347 q 97 452 100 415 q 94 521 94 489 q 98 617 94 569 q 101 713 101 664 q 96 719 101 719 q 89 719 93 719 q 82 718 85 718 q 70 719 75 718 q 58 719 65 719 q 56 719 58 719 q 54 718 54 719 l 54 714 q 63 649 60 681 q 65 583 65 618 q 65 476 65 529 q 76 375 64 422 q 120 292 89 328 q 217 236 151 256 q 225 235 218 236 q 239 231 232 233 q 251 228 246 229 q 258 225 257 226 q 262 233 261 226 q 263 242 263 239 z "},"":{"ha":581,"x_min":54,"x_max":522,"o":"m 392 851 q 384 873 392 863 q 364 883 376 883 q 344 877 353 883 q 336 860 336 871 q 346 838 336 847 q 368 828 356 828 q 385 835 378 828 q 392 851 392 842 m 243 851 q 235 873 243 863 q 215 883 228 883 q 196 877 204 883 q 188 860 188 871 q 197 838 188 847 q 219 828 206 828 q 235 835 228 828 q 243 851 243 842 m 522 718 q 518 719 522 719 q 507 719 513 719 q 496 718 501 718 q 483 719 490 718 q 476 713 476 721 q 480 617 476 664 q 483 521 483 569 q 481 452 483 489 q 467 381 478 415 q 437 319 457 347 q 382 278 417 292 l 382 279 q 350 269 367 272 q 318 265 333 267 q 315 253 315 258 q 315 242 315 249 q 316 232 315 239 q 319 225 317 225 q 321 225 321 225 q 322 226 321 226 q 422 262 385 238 q 480 322 460 286 q 506 405 500 358 q 513 507 513 451 l 513 583 q 515 649 513 618 q 522 714 518 681 q 522 718 522 714 m 263 242 q 263 253 263 249 q 260 265 263 258 q 228 269 244 267 q 196 279 211 272 l 196 278 q 141 319 161 292 q 110 381 121 347 q 97 452 100 415 q 94 521 94 489 q 98 617 94 569 q 101 713 101 664 q 96 719 101 719 q 89 719 93 719 q 82 718 85 718 q 70 719 75 718 q 58 719 65 719 q 56 719 58 719 q 54 718 54 719 l 54 714 q 63 649 60 681 q 65 583 65 618 q 65 476 65 529 q 76 375 64 422 q 120 292 89 328 q 217 236 151 256 q 225 235 218 236 q 239 231 232 233 q 251 228 246 229 q 258 225 257 226 q 262 233 261 226 q 263 242 263 239 z "},"":{"ha":532,"x_min":69,"x_max":463,"o":"m 463 515 q 460 526 461 519 q 456 540 458 533 q 451 552 454 547 q 444 557 449 557 q 415 552 438 554 q 367 549 393 550 q 317 549 342 549 q 283 549 293 549 q 286 634 285 592 q 294 719 288 676 q 254 726 274 726 q 249 726 253 726 q 244 724 244 726 q 247 696 244 710 q 250 668 249 682 q 254 549 254 607 q 218 549 242 549 q 169 550 194 549 q 120 554 143 551 q 88 561 97 557 q 76 543 79 560 q 69 519 72 526 q 81 514 75 514 q 137 517 108 514 q 193 521 165 521 q 250 517 222 521 q 252 356 250 436 q 254 196 254 276 q 250 56 254 124 q 247 24 249 40 q 244 -7 244 8 q 249 -10 244 -10 q 254 -11 253 -11 q 275 -9 265 -11 q 296 -4 285 -7 q 285 108 288 51 q 283 219 283 164 q 284 335 283 278 q 285 450 285 392 l 285 515 q 315 517 300 517 q 344 518 329 518 q 398 515 372 518 q 451 511 424 511 q 463 515 458 511 z "},"":{"ha":182,"x_min":35,"x_max":147,"o":"m 147 567 q 131 610 147 592 q 89 628 115 628 q 50 610 65 628 q 35 571 35 593 q 50 528 35 546 q 92 510 65 510 q 131 526 115 510 q 147 567 147 543 m 118 569 q 90 539 118 539 q 70 549 78 539 q 63 569 63 558 q 70 589 63 581 q 90 597 78 597 q 110 589 101 597 q 118 569 118 581 z "},"":{"ha":536,"x_min":60,"x_max":481,"o":"m 481 63 q 474 86 481 71 q 457 104 467 101 q 369 90 417 90 q 293 99 331 90 q 294 325 293 213 q 293 551 294 438 q 304 552 299 551 q 317 553 310 553 q 367 544 347 553 q 399 527 386 536 q 419 510 411 518 q 439 501 428 501 q 445 506 442 501 q 450 513 449 510 q 442 558 442 535 q 442 573 442 565 q 444 588 443 581 l 429 599 q 405 587 418 589 q 376 582 392 585 q 353 585 365 585 q 331 586 342 586 q 311 586 321 586 q 293 585 303 586 q 293 622 293 604 q 296 660 293 640 q 304 694 299 678 q 315 725 310 710 l 308 728 q 296 724 304 728 q 278 714 288 719 q 261 703 268 708 q 254 694 254 697 q 256 679 254 688 q 261 664 258 671 q 264 642 264 653 q 264 621 264 632 q 263 601 264 611 q 263 582 263 592 q 111 503 163 567 q 60 340 60 440 q 108 167 60 233 q 258 72 156 101 l 258 -1 q 254 -33 258 -17 q 250 -64 250 -49 q 254 -71 250 -71 q 283 -59 264 -69 q 301 -37 301 -49 q 297 -8 301 -22 q 293 21 293 6 l 293 65 q 379 58 336 58 q 465 56 422 58 l 471 56 q 481 63 481 56 m 261 549 q 260 328 261 438 q 258 107 260 218 q 136 186 178 133 q 94 326 94 239 q 103 407 94 369 q 132 474 113 444 q 183 524 151 504 q 261 549 215 543 z "},"":{"ha":831,"x_min":69,"x_max":763,"o":"m 761 43 l 761 47 q 753 50 756 50 q 740 45 746 50 q 727 35 735 40 q 709 26 719 31 q 682 21 699 21 q 624 31 654 21 q 568 47 594 40 q 492 65 531 58 q 414 71 454 71 q 333 64 374 71 q 251 44 292 57 q 265 190 258 118 q 282 336 272 263 q 313 336 290 336 q 359 335 335 336 q 405 333 383 335 q 432 328 426 331 q 444 322 439 324 q 457 318 450 321 q 465 324 461 321 q 469 332 469 328 q 467 338 469 335 q 460 346 464 342 q 454 356 457 350 q 447 372 450 363 q 433 381 443 381 q 425 379 428 381 q 355 370 390 372 q 285 367 319 368 q 297 471 289 414 q 325 578 304 528 q 383 662 346 628 q 483 696 421 696 q 522 688 500 696 q 561 666 543 679 q 592 635 579 653 q 604 597 604 617 q 601 585 604 590 q 599 574 599 581 q 602 567 599 571 q 610 563 606 563 q 622 574 615 563 q 635 590 628 586 q 646 598 640 594 q 658 604 651 601 q 661 613 661 610 q 656 623 661 617 q 644 637 651 629 q 631 651 638 644 q 622 660 625 657 q 560 709 599 689 q 485 729 522 729 q 365 694 408 729 q 298 604 321 658 q 265 486 275 550 q 249 365 256 422 l 236 365 q 169 367 204 365 q 103 378 135 368 q 79 383 89 383 q 69 375 69 383 q 73 365 69 372 q 81 347 76 357 q 90 331 86 338 q 96 324 94 324 q 106 326 100 324 q 115 331 111 329 q 144 335 126 333 q 179 336 161 336 q 214 336 197 336 q 244 336 232 336 q 228 174 236 257 q 201 13 221 92 q 198 1 200 6 q 196 -11 196 -4 q 204 -22 196 -22 q 227 -12 213 -22 q 249 4 242 -1 q 285 19 261 14 q 337 28 310 25 q 389 33 364 32 q 429 35 414 35 q 458 34 444 35 q 488 32 472 33 q 515 25 501 29 q 543 17 529 21 q 621 -4 579 6 q 699 -14 663 -14 q 724 -12 711 -14 q 749 -4 738 -11 q 757 19 751 7 q 761 43 763 31 z "},"":{"ha":901,"x_min":135,"x_max":771,"o":"m 771 897 q 768 914 771 908 q 694 919 732 917 q 619 922 657 922 q 470 906 549 922 q 326 853 392 889 q 217 757 260 817 q 174 613 174 697 q 197 502 174 546 q 260 428 221 458 q 349 378 299 397 q 453 342 400 358 q 472 335 461 339 q 495 327 483 332 q 517 317 507 322 q 533 304 528 311 q 547 265 547 288 q 528 239 547 246 q 493 232 508 232 q 442 246 467 232 q 400 279 417 260 q 392 290 397 282 q 385 299 388 299 q 371 283 371 299 q 373 267 371 275 q 375 250 375 258 q 374 240 375 244 q 372 228 372 235 q 373 220 372 225 q 379 215 374 215 q 396 220 389 215 q 413 225 403 225 q 447 217 428 225 q 486 208 467 208 q 518 210 501 208 q 548 219 535 213 q 570 237 561 225 q 579 268 579 249 q 575 297 579 283 q 560 321 571 310 q 513 350 544 336 q 443 376 481 364 q 369 403 406 389 q 308 432 332 417 q 234 509 263 464 q 206 611 206 554 q 247 742 206 689 q 351 829 289 796 q 487 877 414 863 q 622 892 560 892 q 693 885 658 892 q 764 872 728 879 q 767 874 767 869 q 769 883 768 878 q 771 897 771 889 m 728 197 q 704 308 728 264 q 642 382 681 351 q 552 432 603 413 q 449 468 501 451 q 429 474 440 471 q 406 483 418 478 q 384 493 394 488 q 368 506 374 499 q 358 523 361 513 q 356 544 356 533 q 374 571 356 564 q 408 578 393 578 q 460 563 435 578 q 503 529 486 549 q 509 519 504 526 q 517 511 514 511 q 532 526 532 511 q 529 543 532 535 q 526 560 526 551 q 528 570 526 565 q 529 582 529 575 q 528 590 529 585 q 522 594 528 594 q 506 589 514 594 q 490 583 499 583 q 455 592 475 583 q 415 601 435 601 q 383 599 400 601 q 353 591 367 597 q 331 573 340 585 q 322 542 322 561 q 326 513 322 526 q 342 489 331 500 q 389 460 357 474 q 458 433 421 446 q 533 407 496 421 q 593 378 569 393 q 668 301 640 346 q 696 199 696 256 q 654 67 696 121 q 550 -19 613 14 q 415 -67 488 -53 q 279 -82 342 -82 q 231 -81 256 -82 q 183 -74 207 -79 q 163 -69 172 -71 q 142 -64 153 -67 q 138 -67 139 -62 q 136 -75 138 -71 q 135 -90 135 -81 q 138 -107 135 -96 q 210 -111 174 -110 q 282 -112 246 -112 q 431 -96 353 -112 q 576 -43 510 -79 q 685 52 642 -7 q 728 197 728 111 z "},"":{"ha":374,"x_min":139,"x_max":235,"o":"m 235 515 q 224 549 235 535 q 194 564 214 564 q 156 548 172 564 q 139 510 139 532 q 151 481 139 493 q 181 468 164 468 q 217 481 200 468 q 235 515 235 494 z "},"":{"ha":765,"x_min":49,"x_max":764,"o":"m 764 658 q 758 673 764 667 q 742 682 751 679 q 722 687 732 685 q 707 689 713 689 q 675 692 692 692 q 643 693 660 692 q 564 702 603 697 q 485 710 525 707 q 391 715 438 713 q 297 717 344 717 q 194 705 240 717 q 117 666 149 693 q 67 597 85 639 q 49 493 49 554 q 100 334 49 407 q 228 205 151 261 q 392 112 304 149 q 554 60 481 75 q 556 49 556 57 q 555 38 556 43 q 554 25 554 32 q 551 -31 554 -3 q 549 -86 549 -58 q 563 -106 549 -101 q 588 -112 576 -111 q 592 -96 592 -107 q 590 -83 592 -89 q 589 -69 589 -76 q 588 -19 589 -44 q 586 32 586 7 q 578 349 586 192 q 571 667 571 507 q 578 668 572 668 q 624 664 601 668 q 671 657 647 660 q 677 353 672 504 q 682 50 682 201 q 681 -19 682 15 q 679 -87 679 -53 q 707 -117 679 -112 q 715 -94 714 -106 q 717 -69 717 -82 l 717 -44 q 711 110 711 33 q 710 265 711 188 q 707 434 708 350 q 706 604 706 518 l 706 626 q 742 647 719 647 q 756 649 749 647 q 764 658 764 650 m 549 96 q 401 142 482 107 q 251 228 321 176 q 133 347 181 281 q 86 492 86 414 q 107 597 86 558 q 165 655 128 635 q 249 681 201 675 q 351 686 297 686 q 443 681 397 686 q 533 671 489 675 q 540 383 533 526 q 549 96 547 240 z "},"":{"ha":793,"x_min":68,"x_max":724,"o":"m 724 275 q 694 397 724 342 q 608 488 664 451 q 499 539 557 521 q 385 579 442 557 q 366 587 378 582 q 349 599 354 592 q 338 615 342 606 q 333 635 333 625 q 352 661 333 653 q 386 669 371 669 q 435 660 411 669 q 485 651 458 651 q 524 656 503 651 q 562 671 544 661 q 591 696 579 681 q 603 733 603 711 q 587 776 603 758 q 548 805 571 794 q 499 820 525 815 q 453 825 474 825 q 299 785 361 825 q 195 681 236 746 q 132 533 154 615 q 99 363 110 450 q 87 194 89 276 q 85 47 85 111 q 86 -99 85 -26 q 88 -246 88 -171 q 84 -285 88 -268 q 69 -321 81 -301 q 68 -325 68 -322 q 74 -329 68 -329 q 89 -323 75 -329 q 104 -314 103 -317 l 104 -315 q 124 -312 111 -312 q 138 -306 138 -312 q 136 -296 138 -304 q 133 -278 135 -287 q 130 -258 132 -268 q 128 -244 128 -249 q 119 -101 119 -174 l 119 43 q 122 181 119 101 q 133 343 124 260 q 164 508 143 426 q 223 653 185 589 q 319 756 261 717 q 461 796 376 796 q 492 792 474 796 q 526 780 510 788 q 554 760 543 772 q 565 732 565 749 q 557 713 565 721 q 538 698 549 704 q 513 688 526 692 q 492 685 500 685 l 489 685 q 435 697 461 692 q 381 701 408 701 q 318 685 340 701 q 296 626 296 669 q 319 574 296 596 q 371 544 338 557 q 442 520 404 532 q 518 495 481 508 q 582 464 556 482 q 660 384 631 432 q 689 276 689 336 q 664 172 689 221 q 597 88 639 122 q 531 47 569 64 q 449 19 492 31 q 364 1 407 7 q 286 -10 321 -6 q 273 -26 279 -15 q 267 -44 267 -36 q 285 -57 267 -57 l 292 -57 q 438 -27 363 -47 q 578 32 514 -7 q 683 130 642 71 q 724 275 724 189 z "},"":{"ha":824,"x_min":104,"x_max":815,"o":"m 815 338 q 791 479 815 413 q 722 598 767 546 q 616 683 678 650 q 479 722 554 715 q 472 717 472 726 q 471 706 471 707 q 472 693 471 700 q 476 682 472 686 q 489 678 479 678 l 500 678 q 615 639 564 668 q 703 565 667 610 q 758 465 739 521 q 778 344 778 408 q 758 226 778 285 q 703 122 739 168 q 616 48 668 76 q 500 19 564 19 l 493 21 q 490 0 490 7 q 490 -4 490 0 q 491 -14 490 -10 q 494 -22 492 -18 q 499 -22 496 -25 q 540 -15 519 -19 q 579 -3 560 -10 q 678 48 635 14 q 753 128 722 82 q 799 227 783 174 q 815 338 815 281 m 632 150 q 610 172 632 156 q 560 207 588 188 q 506 244 532 226 q 469 269 479 261 q 511 305 489 285 q 552 349 533 325 q 583 400 571 374 q 596 453 596 426 q 578 506 596 486 q 533 538 560 526 q 475 553 506 549 q 419 557 444 557 q 399 556 414 557 q 368 553 383 556 q 340 547 353 551 q 328 536 328 543 l 328 528 q 343 516 335 521 q 353 500 351 511 q 355 476 354 490 q 356 447 356 463 q 356 418 356 433 q 356 394 356 404 q 359 297 357 346 q 361 199 361 247 q 360 186 361 193 q 357 175 360 179 q 345 168 350 172 q 342 157 340 164 l 342 151 q 365 144 349 144 q 372 145 368 144 q 378 146 375 146 q 399 145 386 146 q 413 157 413 144 q 409 164 413 161 q 401 171 406 167 q 394 184 397 175 q 392 211 392 193 l 392 224 q 418 236 406 229 q 443 250 431 243 q 475 226 449 244 q 531 186 501 207 q 585 149 561 165 q 613 133 610 133 q 624 140 617 133 q 632 150 632 146 m 563 451 q 544 392 563 422 q 501 336 526 363 q 445 289 475 310 q 392 256 415 268 q 387 387 390 322 q 383 518 383 451 q 390 524 383 522 q 403 525 396 525 q 418 525 411 525 q 429 525 426 525 q 470 523 447 525 q 514 513 493 521 q 549 491 535 506 q 563 451 563 476 m 439 -8 q 438 7 439 -1 q 433 21 436 15 q 313 51 367 21 q 220 128 258 81 q 161 237 182 176 q 140 358 140 297 q 155 458 140 410 q 197 549 169 507 q 263 622 224 590 q 351 671 301 654 q 386 679 369 678 q 424 681 403 681 q 428 696 426 688 q 429 713 429 704 q 428 721 429 715 q 424 726 428 726 q 423 726 424 726 q 421 725 422 725 q 294 686 353 718 q 194 606 236 654 q 128 494 151 557 q 104 364 104 432 q 123 239 104 300 q 177 126 142 178 q 264 39 213 75 q 381 -11 315 3 q 392 -13 383 -11 q 409 -17 400 -15 q 426 -20 418 -18 q 433 -22 433 -22 q 438 -16 438 -21 q 439 -8 439 -11 z "},"":{"ha":851,"x_min":104,"x_max":817,"o":"m 817 338 q 792 479 817 413 q 724 598 768 546 q 617 683 679 650 q 479 722 554 715 q 472 717 472 726 q 471 706 471 707 q 472 693 471 700 q 476 682 472 686 q 483 678 479 679 q 489 678 486 678 l 501 678 q 617 639 565 668 q 704 565 668 610 q 760 465 740 521 q 779 344 779 408 q 760 226 779 285 q 704 122 740 168 q 616 48 668 76 q 500 19 564 19 l 493 21 q 492 10 492 15 q 492 0 492 4 q 492 -14 492 -1 q 500 -22 493 -26 q 540 -15 519 -19 q 579 -3 560 -10 q 679 48 635 14 q 754 128 724 82 q 801 227 785 174 q 817 338 817 281 m 575 167 q 567 179 575 174 q 537 175 551 176 q 507 174 522 174 q 358 221 417 174 q 300 363 300 268 q 342 476 300 433 q 454 519 383 519 q 494 513 479 519 q 518 499 508 507 q 534 485 528 492 q 547 479 540 479 q 563 492 557 479 q 557 525 557 507 q 558 534 557 529 q 558 543 558 539 q 553 553 558 550 q 543 558 549 557 q 506 547 528 547 q 487 549 496 547 q 468 550 478 550 q 322 505 378 550 q 267 365 267 460 q 334 199 267 254 q 507 144 401 144 q 538 144 522 144 q 569 147 554 144 q 573 157 571 151 q 575 167 575 163 m 439 -8 q 438 7 439 -1 q 433 21 436 15 q 313 51 367 21 q 220 128 258 81 q 161 237 182 176 q 140 360 140 297 q 155 460 140 411 q 197 549 169 508 q 263 622 224 590 q 351 671 303 654 q 388 679 371 678 q 424 681 404 681 q 429 713 429 693 q 428 721 429 715 q 425 726 428 726 q 423 726 424 726 q 422 725 422 725 q 295 686 353 718 q 194 606 238 654 q 128 494 151 557 q 104 364 104 432 q 123 239 104 300 q 177 126 142 178 q 265 39 213 75 q 382 -11 317 3 q 392 -13 383 -11 q 409 -17 400 -15 q 426 -20 418 -18 q 433 -22 433 -22 q 438 -16 438 -21 q 439 -8 439 -11 z "},"":{"ha":460,"x_min":25,"x_max":432,"o":"m 432 500 q 427 509 432 507 q 422 519 422 511 q 418 612 419 565 q 417 703 417 658 q 423 710 417 708 q 429 718 429 713 q 418 725 429 725 q 404 725 408 725 q 393 722 396 725 q 354 677 374 699 q 314 633 335 656 q 274 674 292 653 q 236 715 256 694 q 222 724 228 724 l 190 724 q 130 722 160 724 q 69 721 100 721 q 51 724 60 721 q 35 728 43 728 q 25 721 25 728 q 27 705 25 714 q 36 696 29 696 q 48 700 39 696 q 74 704 57 704 q 92 703 83 704 q 111 703 101 703 q 112 654 111 679 q 113 604 113 629 l 113 571 q 113 560 113 568 q 112 542 113 551 q 110 525 111 533 q 108 515 110 517 q 106 510 107 513 q 101 504 104 507 q 111 494 104 494 q 126 494 118 494 q 142 497 135 494 q 142 500 142 499 q 143 504 143 501 q 140 510 143 508 q 135 517 136 513 q 133 522 133 519 q 132 528 133 525 q 131 570 129 547 q 132 614 132 593 q 131 659 132 638 q 131 704 131 681 l 176 704 l 204 704 q 206 685 207 699 q 206 665 206 672 q 204 599 206 632 q 203 531 203 565 q 203 518 203 521 q 194 508 203 515 q 192 503 192 506 q 200 496 192 496 q 204 497 203 496 q 208 497 206 497 q 219 497 214 497 q 231 496 225 496 q 238 500 238 496 q 231 512 238 507 q 224 528 224 517 q 225 611 224 569 q 228 694 226 653 q 265 653 243 678 q 304 614 288 629 q 314 610 308 610 q 329 622 317 610 q 356 649 342 633 q 381 679 369 665 q 397 697 393 693 q 400 631 399 664 q 401 564 401 597 q 401 553 401 561 q 401 535 401 544 q 400 519 401 526 q 396 510 399 511 q 392 505 394 507 q 390 500 390 503 q 396 496 390 496 q 403 497 400 496 q 411 497 407 497 q 418 496 414 497 q 425 494 422 494 q 432 500 432 494 z "},"":{"ha":443,"x_min":144,"x_max":299,"o":"m 299 922 q 297 936 299 925 q 292 947 296 947 q 276 936 292 947 q 242 911 261 925 q 204 886 222 897 q 178 875 186 875 q 158 874 168 875 q 149 861 149 874 l 149 854 q 146 846 147 851 q 144 836 144 840 q 148 828 144 833 q 154 822 151 822 q 172 833 154 822 q 213 858 190 844 q 256 883 235 871 q 283 899 276 896 q 299 922 299 906 z "},"":{"ha":256,"x_min":35,"x_max":239,"o":"m 239 851 q 231 873 239 863 q 211 883 224 883 q 192 877 200 883 q 183 860 183 871 q 193 838 183 847 q 215 828 203 828 q 232 835 225 828 q 239 851 239 842 m 90 851 q 83 873 90 863 q 63 883 75 883 q 43 877 51 883 q 35 860 35 871 q 44 838 35 847 q 67 828 53 828 q 83 835 76 828 q 90 851 90 842 z "},"":{"ha":717,"x_min":69,"x_max":511,"o":"m 511 236 q 508 240 511 238 q 494 267 500 250 q 472 283 488 283 q 467 282 469 283 q 366 271 418 272 q 264 268 314 269 q 304 328 283 299 q 346 385 325 357 q 371 385 351 385 q 412 383 390 385 q 451 381 433 382 q 474 376 469 379 q 486 372 481 374 q 499 368 492 371 q 507 374 503 369 q 511 382 511 378 q 508 386 511 383 q 494 413 500 396 q 472 429 488 429 l 467 429 q 419 422 443 424 q 369 418 394 421 q 380 433 372 422 q 397 455 388 443 q 414 476 406 467 q 425 489 422 486 q 437 497 432 493 q 447 506 442 501 l 447 510 q 436 522 447 522 q 417 525 426 522 q 399 528 408 528 q 379 514 385 528 q 353 465 367 489 q 324 417 339 440 q 288 415 306 415 q 251 415 269 415 q 176 417 219 415 q 103 428 133 418 q 92 431 97 429 q 79 432 86 432 q 69 425 69 432 q 73 417 69 425 q 81 399 76 408 q 89 382 85 390 q 93 374 93 374 l 96 374 q 105 376 99 374 q 115 379 111 378 q 151 385 129 383 q 196 386 172 386 q 242 386 219 386 q 279 386 264 386 l 306 386 q 267 326 286 356 q 228 268 247 297 q 165 271 197 269 q 103 281 132 272 q 79 286 89 286 q 69 278 69 286 q 73 269 69 278 q 81 252 76 261 q 89 235 85 243 q 93 228 93 228 l 96 226 q 105 229 99 226 q 115 233 111 232 q 160 238 136 239 q 206 239 185 238 q 173 194 190 217 q 133 154 156 171 q 121 143 129 150 q 113 129 113 136 q 126 121 113 121 q 149 118 142 121 q 160 115 154 117 q 171 114 165 114 q 176 124 174 114 q 179 136 178 133 q 210 189 189 158 q 244 239 231 219 l 279 239 q 318 239 289 239 q 380 238 347 239 q 440 235 413 238 q 474 231 468 233 q 486 225 481 226 q 499 221 492 224 q 507 227 503 224 q 511 236 511 231 z "},"":{"ha":988,"x_min":13,"x_max":982,"o":"m 982 -4 q 978 5 982 0 q 974 17 974 10 q 976 33 974 25 q 979 49 978 40 q 973 55 976 51 q 964 58 969 58 q 953 53 958 58 q 900 34 933 38 q 843 31 867 31 q 781 32 811 31 q 718 32 750 33 q 626 254 669 140 q 540 479 583 368 q 665 487 603 481 q 789 493 726 493 q 809 492 796 493 q 835 491 822 492 q 861 488 849 490 q 879 482 874 486 q 888 474 882 481 q 896 468 894 468 q 903 474 901 468 q 906 483 906 479 q 908 497 906 490 q 911 513 910 504 q 918 523 914 517 q 924 533 922 529 q 919 548 922 538 q 910 558 917 558 q 901 556 907 558 q 886 549 894 553 q 870 540 878 544 q 860 535 863 536 q 810 526 847 531 q 728 519 772 522 q 644 514 685 515 q 589 513 604 513 q 525 517 556 513 q 492 603 508 560 q 458 689 475 646 q 527 690 493 689 q 597 692 561 690 q 629 694 613 692 q 661 696 646 696 q 706 688 685 696 q 735 679 728 679 q 743 685 742 679 q 744 696 744 690 q 743 704 744 701 q 742 722 743 713 q 740 740 740 731 q 742 747 740 746 q 732 751 738 751 q 722 749 726 751 q 713 744 717 747 q 649 725 686 728 q 581 722 611 722 l 515 724 q 481 724 499 724 q 447 721 464 724 q 436 719 443 719 q 406 724 421 719 q 375 728 390 728 q 360 724 368 728 q 351 714 351 721 q 363 697 351 701 q 374 679 374 692 q 359 637 374 671 q 322 555 344 603 q 273 452 300 507 q 222 348 246 397 q 178 260 197 299 q 150 208 158 222 q 148 208 149 208 q 146 207 147 207 q 140 209 142 207 q 135 211 138 211 q 128 208 133 211 q 125 192 125 203 q 131 165 125 176 q 95 96 114 135 q 51 33 76 57 q 33 23 43 25 q 14 13 22 21 q 13 10 14 11 q 13 8 13 8 q 19 -3 13 1 q 40 -7 24 -6 q 64 -10 57 -8 q 89 -17 76 -10 q 115 -24 101 -24 q 121 -22 119 -24 l 121 -18 q 118 -8 121 -11 q 111 -3 115 -6 q 103 2 107 -1 q 100 14 100 6 q 108 48 100 28 q 128 89 117 68 q 151 129 139 110 q 171 161 164 149 q 314 135 242 146 q 461 124 386 124 q 549 128 506 124 q 636 136 592 132 q 659 91 647 117 q 671 42 671 65 q 667 22 671 31 q 664 4 663 14 l 664 0 q 678 -11 669 -8 q 696 -14 686 -14 q 716 -12 707 -14 q 735 -8 725 -10 q 761 -6 749 -6 q 789 -4 775 -6 q 848 -2 818 -3 q 907 -1 878 -1 q 939 -8 924 -1 q 969 -14 954 -14 q 977 -10 972 -14 q 982 -4 982 -7 m 621 175 q 532 165 576 168 q 443 161 488 161 q 324 170 385 161 q 204 194 263 179 q 197 197 201 194 q 192 203 192 199 q 193 211 192 207 q 196 218 194 215 q 309 447 253 333 q 418 676 365 560 q 524 428 476 554 q 621 175 572 303 z "},"":{"ha":819,"x_min":56,"x_max":765,"o":"m 765 356 q 726 526 765 447 q 610 657 688 606 q 597 667 607 660 q 583 674 586 674 q 575 656 578 674 q 571 633 572 639 q 690 519 649 593 q 731 360 731 446 q 707 234 731 297 q 642 120 683 171 q 543 38 600 69 q 419 6 486 6 q 346 17 383 6 q 333 -1 335 6 q 324 -19 331 -7 q 370 -26 346 -24 q 418 -29 394 -29 q 558 3 494 -29 q 668 90 622 36 q 740 214 714 144 q 765 356 765 283 m 638 838 q 625 843 633 843 q 603 839 614 843 q 581 835 592 835 q 559 831 565 835 q 550 822 553 828 q 547 806 547 815 q 543 782 546 796 q 531 734 540 758 q 513 686 521 710 q 479 591 496 638 q 444 496 463 544 q 375 313 410 404 q 304 129 340 221 q 267 31 288 85 q 226 -62 247 -22 q 219 -75 224 -67 q 208 -92 214 -83 q 197 -108 203 -100 q 188 -119 192 -115 q 175 -129 185 -122 q 165 -142 165 -136 q 171 -149 165 -146 q 179 -156 176 -153 l 182 -156 q 199 -154 190 -156 q 217 -151 208 -153 q 228 -152 222 -153 q 239 -153 233 -151 q 246 -156 242 -154 q 254 -157 250 -157 q 263 -154 257 -157 l 264 -151 q 260 -141 263 -147 q 257 -131 257 -135 q 264 -85 257 -108 q 288 -14 275 -49 q 315 56 301 21 q 360 176 338 117 q 406 296 382 235 q 466 454 436 375 q 526 614 496 533 q 556 690 542 651 q 585 765 569 728 q 608 803 594 788 q 638 838 622 818 m 492 707 q 483 714 492 711 q 463 718 474 717 q 440 720 451 719 q 425 721 429 721 q 275 690 343 721 q 158 605 207 658 q 83 481 110 551 q 56 331 56 410 q 91 165 56 242 q 201 39 126 89 l 228 22 q 236 41 235 29 q 238 63 238 53 q 126 176 164 104 q 89 331 89 247 q 113 461 89 397 q 181 575 138 525 q 283 655 224 625 q 411 685 342 685 l 439 683 q 457 680 447 683 q 471 676 467 676 q 485 688 478 676 q 492 707 492 700 z "},"":{"ha":929,"x_min":108,"x_max":876,"o":"m 876 608 q 865 630 871 619 q 860 654 860 640 q 860 674 860 664 q 863 693 861 683 q 856 703 860 699 q 846 707 853 707 q 817 700 832 707 q 788 693 803 693 q 763 693 775 693 q 739 696 750 693 q 667 712 703 706 q 594 718 632 718 q 391 645 468 718 q 300 449 314 572 l 289 449 q 215 450 257 449 q 142 461 174 451 q 118 467 128 467 q 108 458 108 467 q 112 448 108 456 q 120 431 115 440 q 129 414 125 421 q 133 407 133 407 q 144 410 138 407 q 154 414 150 413 q 183 417 163 415 q 225 419 203 418 q 267 419 247 419 q 299 419 288 419 q 299 372 297 396 q 304 324 301 347 q 243 326 275 325 q 183 336 211 328 q 160 342 169 342 q 150 333 150 342 q 153 323 150 331 q 162 306 157 315 q 171 289 167 296 q 175 282 175 282 q 185 285 179 282 q 196 289 192 288 q 251 294 218 294 q 310 294 286 294 q 374 120 331 194 q 479 -12 418 46 q 615 -115 540 -69 q 774 -207 690 -161 q 804 -223 789 -215 q 836 -237 819 -231 l 839 -239 q 847 -223 846 -237 q 849 -204 849 -208 q 847 -196 849 -199 q 813 -184 829 -192 q 781 -169 796 -176 q 533 -17 649 -104 q 412 123 460 40 q 344 294 364 206 l 360 294 q 399 294 369 294 q 460 294 428 294 q 520 291 493 293 q 554 286 547 289 q 567 281 561 282 q 579 276 572 279 q 588 283 583 279 q 592 290 592 286 q 589 296 592 293 q 574 322 581 304 q 553 339 567 339 q 547 338 549 339 q 444 326 497 328 q 339 324 390 324 q 335 360 336 342 q 333 396 333 378 q 333 408 333 403 q 335 419 333 414 q 369 419 343 419 q 426 419 396 419 q 481 416 456 418 q 513 411 506 414 q 525 406 519 407 q 538 401 531 404 q 546 408 542 404 q 550 415 550 411 q 547 421 550 418 q 532 447 539 429 q 511 464 525 464 q 506 463 507 464 q 422 453 465 456 q 338 450 379 451 q 364 541 344 499 q 415 615 383 583 q 488 666 446 647 q 582 685 531 685 q 682 676 635 685 q 778 646 729 668 q 798 636 789 640 q 817 625 807 632 q 836 608 824 619 q 858 596 849 596 q 876 608 871 596 z "},"":{"ha":578,"x_min":69,"x_max":483,"o":"m 483 386 q 481 392 483 389 q 466 416 472 400 q 446 432 460 432 q 442 431 443 432 q 439 431 442 431 q 362 421 401 424 q 283 417 322 418 q 283 449 283 425 q 285 501 283 474 q 288 550 286 528 q 293 578 290 572 q 297 590 296 585 q 301 603 299 596 q 296 611 300 607 q 288 615 292 615 q 283 613 286 615 q 258 597 274 604 q 243 578 243 590 l 243 571 q 253 494 250 533 q 257 417 256 456 l 240 417 q 172 419 211 417 q 103 429 132 421 q 79 435 89 435 q 69 428 69 435 q 75 414 69 421 q 83 400 81 407 q 88 388 85 397 q 93 378 90 379 l 96 378 q 105 381 99 378 q 115 383 111 383 q 186 390 144 390 q 257 390 228 390 l 257 372 q 256 303 258 343 q 244 235 254 263 q 242 224 243 229 q 240 211 240 218 q 247 201 240 201 q 261 207 254 201 q 275 215 268 213 q 286 219 278 217 q 296 225 294 222 l 297 226 q 294 237 297 231 q 290 247 292 243 q 283 318 283 276 q 283 390 283 360 q 316 390 292 390 q 367 388 340 389 q 417 385 394 388 q 446 381 440 383 q 458 376 453 378 q 471 372 464 375 q 479 378 475 375 q 483 386 483 382 m 483 108 q 481 113 483 110 q 466 135 472 121 q 446 150 460 150 q 439 149 442 150 q 340 137 390 139 q 240 135 289 135 q 172 137 211 135 q 103 147 132 139 q 79 153 89 153 q 69 146 69 153 q 73 138 69 146 q 81 122 76 131 q 89 106 85 113 q 93 99 93 99 l 96 97 q 105 100 99 97 q 115 104 111 103 q 147 108 129 107 q 185 110 165 110 q 224 110 206 110 q 258 110 243 110 q 297 110 271 110 q 354 109 325 110 q 409 107 383 108 q 446 103 435 106 q 458 98 453 100 q 471 94 464 96 q 479 99 475 96 q 483 108 483 103 z "},"":{"ha":149,"x_min":47,"x_max":125,"o":"m 125 246 q 117 273 125 263 q 89 283 108 283 q 60 274 72 283 q 47 246 47 265 q 52 231 47 238 q 63 221 57 225 q 73 213 68 217 q 78 204 78 210 q 70 174 78 193 q 56 146 63 154 q 82 157 69 146 q 104 184 94 168 q 119 217 114 200 q 125 246 125 233 z "},"":{"ha":108,"x_min":25,"x_max":86,"o":"m 86 256 q 80 276 86 267 q 61 286 74 286 q 36 276 47 286 q 25 251 25 267 q 33 233 25 240 q 51 225 40 225 q 76 233 65 225 q 86 256 86 242 z "},"":{"ha":769,"x_min":35,"x_max":735,"o":"m 735 724 q 725 729 735 729 q 701 726 713 729 q 675 722 689 722 q 660 726 668 722 q 646 729 653 729 q 634 727 639 729 q 624 724 629 725 q 621 718 621 721 q 628 705 621 711 q 635 690 635 699 q 606 633 635 672 q 540 549 578 593 q 466 467 503 506 q 414 414 429 429 q 399 406 406 406 q 394 406 396 406 q 390 407 393 407 q 306 502 350 457 q 217 594 261 547 q 197 614 210 600 q 171 642 185 628 q 147 671 157 657 q 138 693 138 685 q 143 713 138 704 q 149 724 149 721 q 142 726 149 726 q 132 726 135 726 q 107 722 119 726 q 82 717 94 717 q 69 717 75 717 q 57 718 64 718 q 42 716 50 718 q 35 707 35 714 q 39 694 35 700 q 58 685 42 689 q 85 675 75 681 q 142 626 104 664 q 222 542 181 588 q 301 453 264 496 q 358 389 339 410 q 289 390 325 389 q 221 401 253 392 q 197 406 208 406 q 186 399 186 406 l 210 347 l 213 347 q 222 349 217 347 q 232 354 228 351 q 283 360 256 360 q 335 360 311 360 l 379 360 q 383 324 382 342 q 383 288 383 307 l 383 243 l 360 243 q 289 244 328 242 q 221 256 250 246 q 209 258 214 257 q 197 260 204 260 q 186 253 186 260 l 210 201 q 211 200 211 201 q 213 200 211 200 q 222 203 217 200 q 232 207 228 206 q 283 214 256 214 q 335 214 311 214 l 383 214 q 384 163 383 188 q 385 111 385 138 q 385 83 385 97 q 382 56 385 69 q 373 36 379 46 q 359 18 367 26 q 346 3 351 10 q 340 -4 340 -3 q 343 -8 340 -7 q 349 -8 346 -8 q 371 -3 360 -8 q 394 1 382 1 q 419 -1 407 1 q 444 -4 432 -4 q 454 6 454 -4 q 440 25 454 15 q 421 63 425 35 q 418 97 418 79 q 418 132 418 115 l 418 214 q 454 213 428 214 q 508 212 481 213 q 560 209 536 211 q 590 204 583 207 q 603 200 597 201 q 617 196 610 199 q 624 201 619 197 q 628 210 628 204 q 624 217 628 210 q 614 234 619 225 q 602 250 608 243 q 590 257 596 257 l 585 257 q 501 247 543 249 q 419 243 460 244 q 419 269 419 253 q 419 303 419 286 q 420 336 419 321 q 424 360 421 351 q 458 359 433 360 q 510 358 483 358 q 560 355 538 357 q 590 350 583 353 q 603 346 597 347 q 617 342 610 344 q 624 348 619 344 q 628 356 628 351 q 624 363 628 356 q 614 380 619 371 q 602 397 608 389 q 590 404 596 404 q 587 403 588 404 q 585 403 586 403 q 512 394 549 396 q 439 390 475 392 q 441 393 440 392 q 443 396 442 394 q 566 536 507 465 q 688 676 625 607 q 698 687 690 681 q 714 699 706 693 q 728 713 722 706 q 735 724 735 719 z "},"":{"ha":806,"x_min":139,"x_max":667,"o":"m 667 494 q 644 517 667 517 q 626 514 635 517 q 608 508 618 511 q 599 540 606 524 q 581 568 592 556 q 555 588 569 581 q 524 596 540 596 l 517 594 q 529 644 529 617 q 497 721 529 689 q 421 753 465 753 l 421 756 q 421 767 419 763 q 422 778 422 772 q 417 796 422 789 q 401 803 413 803 q 388 800 393 803 q 382 786 382 797 q 383 774 382 779 q 385 763 385 769 q 384 757 385 760 q 383 751 383 754 q 309 708 338 742 q 281 626 281 674 q 289 581 281 603 q 227 557 250 574 q 194 500 204 540 q 173 506 183 501 q 151 511 163 511 q 140 503 142 511 q 139 488 139 494 q 146 473 139 476 q 163 469 153 469 q 186 472 172 469 q 233 394 201 419 q 319 368 264 368 q 396 400 364 368 q 397 252 397 325 q 399 104 396 179 q 421 101 413 101 l 429 101 q 428 201 429 151 q 426 301 428 251 q 425 353 425 328 q 424 404 425 379 q 458 372 439 382 q 506 361 478 361 q 587 394 564 361 q 613 479 610 426 q 626 477 619 478 q 639 476 632 476 q 657 480 647 476 q 667 494 667 483 m 585 471 q 581 442 585 457 q 568 414 576 426 q 548 394 560 401 q 519 386 536 386 q 460 401 488 386 q 424 450 432 417 q 442 447 433 449 q 461 446 451 446 q 482 457 476 446 q 474 477 479 468 q 457 486 469 486 q 440 481 447 486 q 421 476 432 476 l 418 476 q 422 503 418 490 q 426 529 426 515 q 425 545 426 536 q 414 554 424 554 q 392 549 399 554 q 386 528 386 543 q 390 503 386 515 q 394 478 394 490 q 381 475 386 475 q 369 476 374 475 q 357 478 364 478 q 340 464 344 478 q 347 453 343 460 q 356 446 350 446 q 374 447 365 446 q 392 450 382 449 q 365 406 390 418 q 313 394 340 394 q 247 416 276 394 q 218 476 218 438 q 235 527 218 504 q 281 550 251 550 q 310 545 296 550 q 339 540 324 540 q 347 545 346 540 q 347 554 347 550 q 308 635 308 585 q 317 669 308 653 q 338 699 325 686 q 369 721 351 713 q 404 729 386 729 q 476 708 451 729 q 500 639 500 688 q 494 610 500 619 q 482 594 489 600 q 469 585 475 589 q 463 575 463 582 q 465 564 465 569 q 468 553 465 558 q 521 567 496 567 q 551 558 539 567 q 572 534 564 549 q 582 503 579 519 q 585 471 585 486 m 529 215 q 526 236 529 228 q 507 244 522 244 q 486 236 494 244 q 478 215 478 228 q 500 193 478 193 q 520 199 511 193 q 529 215 529 204 m 350 218 q 343 238 350 233 q 324 242 336 242 q 306 238 313 242 q 299 221 299 233 q 304 201 299 210 q 321 193 310 193 q 342 200 333 193 q 350 218 350 207 z "},"":{"ha":806,"x_min":139,"x_max":667,"o":"m 667 494 q 644 517 667 517 q 626 514 635 517 q 608 508 618 511 q 599 540 606 524 q 581 568 592 556 q 555 588 569 581 q 524 596 540 596 l 517 594 q 529 644 529 617 q 497 721 529 689 q 421 753 465 753 l 421 756 q 421 767 419 763 q 422 778 422 772 q 417 796 422 789 q 401 803 413 803 q 388 800 393 803 q 382 786 382 797 q 383 774 382 779 q 385 763 385 769 q 384 757 385 760 q 383 751 383 754 q 309 708 338 742 q 281 626 281 674 q 289 581 281 603 q 227 557 250 574 q 194 500 204 540 q 173 506 183 501 q 151 511 163 511 q 140 503 142 511 q 139 488 139 494 q 146 473 139 476 q 163 469 153 469 q 186 472 172 469 q 233 394 201 419 q 319 368 264 368 q 396 400 364 368 q 397 252 397 325 q 399 104 396 179 q 421 101 413 101 l 429 101 q 428 201 429 151 q 426 301 428 251 q 425 353 425 328 q 424 404 425 379 q 458 372 439 382 q 506 361 478 361 q 587 394 564 361 q 613 479 610 426 q 626 477 619 478 q 639 476 632 476 q 657 480 647 476 q 667 494 667 483 m 585 471 q 581 442 585 457 q 568 414 576 426 q 548 394 560 401 q 519 386 536 386 q 460 401 488 386 q 424 450 432 417 q 442 447 433 449 q 461 446 451 446 q 482 457 476 446 q 474 477 479 468 q 457 486 469 486 q 440 481 447 486 q 421 476 432 476 l 418 476 q 422 503 418 490 q 426 529 426 515 q 425 545 426 536 q 414 554 424 554 q 392 549 399 554 q 386 528 386 543 q 390 503 386 515 q 394 478 394 490 q 381 475 386 475 q 369 476 374 475 q 357 478 364 478 q 340 464 344 478 q 347 453 343 460 q 356 446 350 446 q 374 447 365 446 q 392 450 382 449 q 365 406 390 418 q 313 394 340 394 q 247 416 276 394 q 218 476 218 438 q 235 527 218 504 q 281 550 251 550 q 310 545 296 550 q 339 540 324 540 q 347 545 346 540 q 347 554 347 550 q 308 635 308 585 q 317 669 308 653 q 338 699 325 686 q 369 721 351 713 q 404 729 386 729 q 476 708 451 729 q 500 639 500 688 q 494 610 500 619 q 482 594 489 600 q 469 585 475 589 q 463 575 463 582 q 465 564 465 569 q 468 553 465 558 q 521 567 496 567 q 551 558 539 567 q 572 534 564 549 q 582 503 579 519 q 585 471 585 486 m 529 215 q 526 236 529 228 q 507 244 522 244 q 486 236 494 244 q 478 215 478 228 q 500 193 478 193 q 520 199 511 193 q 529 215 529 204 m 350 218 q 343 238 350 233 q 324 242 336 242 q 306 238 313 242 q 299 221 299 233 q 304 201 299 210 q 321 193 310 193 q 342 200 333 193 q 350 218 350 207 z "},"":{"ha":642,"x_min":139,"x_max":503,"o":"m 503 525 q 492 535 503 535 q 489 534 490 535 q 485 533 488 533 q 475 524 481 528 q 463 519 469 519 q 451 524 458 519 q 434 535 443 529 q 417 547 425 542 q 406 551 410 551 q 394 550 399 551 q 386 558 389 549 q 381 594 382 579 q 367 629 381 610 q 358 641 364 633 q 347 656 353 649 q 334 669 340 664 q 324 675 328 675 q 306 657 306 675 q 308 642 306 650 q 310 628 310 635 q 301 599 310 608 q 283 585 293 590 q 264 574 272 579 q 256 556 256 568 q 258 534 256 546 q 267 515 261 522 q 237 531 256 521 q 206 540 218 540 q 183 529 194 540 q 161 503 171 518 q 145 473 151 489 q 139 447 139 457 q 142 438 139 443 q 150 432 144 432 q 165 441 157 432 q 190 450 174 450 q 227 437 217 450 q 256 413 238 424 q 282 406 267 406 q 308 400 297 406 q 313 357 313 379 q 312 347 313 353 q 308 338 311 340 q 288 349 297 344 q 268 354 279 354 q 213 333 228 354 q 199 276 199 313 q 210 245 199 258 q 242 232 222 232 q 276 242 258 232 q 308 260 293 253 q 309 235 308 247 q 310 208 310 222 q 305 156 310 181 q 282 107 300 131 q 263 90 278 101 q 249 71 249 78 q 253 60 249 64 q 265 56 258 56 q 295 72 275 65 q 329 79 315 79 q 361 72 346 79 q 393 65 376 65 q 406 67 400 65 q 413 78 413 69 q 407 89 413 85 q 345 133 360 97 q 331 211 331 169 q 332 229 331 221 q 333 247 333 238 q 360 238 344 243 q 388 233 375 233 q 411 238 399 233 q 435 251 424 243 q 453 269 446 258 q 460 292 460 279 q 435 333 460 315 q 388 351 410 351 q 360 341 372 351 q 332 331 347 331 q 335 346 335 338 q 335 361 335 354 q 334 385 335 372 q 332 410 333 397 q 360 403 342 403 q 400 407 381 403 q 427 424 410 408 q 461 458 444 439 q 490 497 478 478 q 503 525 503 515 m 460 494 q 418 448 440 469 q 360 426 396 426 q 328 443 340 426 l 325 443 q 313 435 318 443 q 283 426 307 426 q 266 433 274 426 q 247 447 258 439 q 218 462 236 456 q 169 468 200 468 l 169 469 q 181 498 169 481 q 206 515 193 515 q 245 503 226 515 q 281 490 264 490 q 290 492 285 490 q 296 500 296 494 q 285 522 296 513 q 275 544 275 532 q 284 560 275 554 q 304 574 293 567 q 324 592 315 581 q 333 622 333 603 q 332 636 333 632 q 354 603 344 624 q 364 567 364 583 q 358 547 364 556 q 353 533 353 539 q 359 526 353 528 q 369 525 365 525 q 383 526 376 525 q 397 528 390 528 q 427 513 410 528 q 460 494 444 499 m 432 293 q 417 264 432 275 q 386 253 403 253 q 374 255 383 253 q 356 260 365 257 q 340 267 347 263 q 333 275 333 271 q 333 285 333 281 q 332 296 332 290 q 340 308 332 301 q 358 319 347 314 q 378 327 368 324 q 394 331 389 331 q 419 318 407 331 q 432 293 432 306 m 306 293 q 299 280 306 286 q 281 269 292 274 q 260 261 271 264 q 244 258 250 258 q 230 265 236 258 q 224 279 224 271 q 233 317 224 300 q 265 335 242 335 q 293 322 281 335 q 306 293 306 308 z "},"":{"ha":619,"x_min":69,"x_max":553,"o":"m 553 575 q 550 581 553 578 q 535 606 542 589 q 514 624 528 624 q 512 623 513 624 q 508 622 511 622 q 436 614 472 615 q 431 617 433 617 q 428 615 428 617 q 425 614 428 615 q 397 612 424 613 q 338 611 371 611 q 276 611 306 611 q 242 611 249 611 q 232 611 239 611 q 217 611 225 611 q 201 610 208 611 q 192 610 193 610 q 147 613 169 611 q 103 621 125 614 q 79 625 92 625 q 69 618 69 625 q 73 608 69 615 q 81 590 76 600 q 90 574 86 581 q 96 567 94 567 q 105 569 99 567 q 115 574 111 572 q 151 577 132 576 q 188 578 171 578 q 196 522 193 567 q 199 426 199 478 q 200 328 200 375 q 200 265 200 282 q 200 181 200 224 q 199 97 200 139 q 197 58 197 79 q 193 22 197 39 q 190 11 193 18 q 188 1 188 4 q 194 -3 188 1 q 211 -12 201 -7 q 228 -20 221 -17 q 239 -24 236 -24 q 246 -14 246 -24 q 244 -1 246 -7 q 242 10 243 4 q 235 56 238 26 q 231 117 232 85 q 231 179 231 150 q 231 228 231 210 q 233 403 231 315 q 236 579 235 492 l 296 579 l 385 579 l 385 572 q 394 388 393 481 q 394 204 394 296 q 395 106 394 160 q 386 7 396 51 q 384 -3 385 1 q 383 -15 383 -8 q 385 -23 383 -18 q 390 -28 386 -28 q 403 -22 397 -28 q 417 -12 410 -15 q 428 -9 421 -11 q 439 -4 436 -7 l 439 -1 q 437 8 439 1 q 433 19 435 15 q 429 57 429 36 q 428 96 429 78 q 426 181 426 139 q 426 267 426 224 q 426 379 426 324 q 429 493 426 436 q 430 535 431 513 q 435 578 429 558 q 451 577 439 578 q 476 575 463 576 q 500 572 489 574 q 515 569 511 571 q 528 565 522 567 q 540 561 533 564 q 549 567 544 564 q 553 575 553 571 z "},"":{"ha":819,"x_min":56,"x_max":764,"o":"m 764 344 q 690 588 764 489 q 469 714 615 688 q 449 719 458 717 q 429 724 440 721 q 421 699 421 713 q 421 689 421 694 q 422 681 421 685 q 551 653 494 679 q 648 583 608 628 q 708 478 688 539 q 729 349 729 418 q 710 227 729 286 q 654 122 690 168 q 565 47 618 75 q 444 19 513 18 q 442 8 442 14 q 444 -4 442 1 q 444 -15 446 -10 l 444 -18 q 578 16 519 -14 q 678 95 638 46 q 742 209 719 144 q 764 344 764 274 m 594 435 q 581 502 594 476 q 543 542 567 528 q 488 560 519 556 q 422 565 457 565 q 390 565 414 565 q 340 561 365 564 q 294 552 314 558 q 274 533 274 546 q 278 520 274 525 q 290 511 283 515 q 289 311 289 411 q 285 113 289 213 q 315 103 301 103 l 315 104 q 325 113 325 104 q 324 117 325 115 q 324 164 325 140 q 324 211 324 188 q 408 238 361 219 q 497 285 456 257 q 567 351 539 314 q 594 435 594 389 m 560 432 q 534 365 560 396 q 472 310 508 333 q 396 270 436 286 q 325 249 356 254 q 326 386 326 318 q 325 522 325 454 q 374 528 349 525 q 422 532 399 532 q 473 528 449 532 q 517 514 497 525 q 548 483 536 503 q 560 432 560 464 m 403 13 q 401 18 403 18 l 400 18 q 269 48 326 21 q 173 121 213 75 q 113 228 133 167 q 92 361 92 290 q 107 467 92 414 q 152 564 122 519 q 225 639 182 608 q 325 678 268 669 q 349 680 338 679 q 372 682 361 681 q 376 683 375 679 q 376 688 376 686 q 373 707 376 696 q 365 725 369 718 q 329 717 347 721 q 293 707 311 713 q 192 656 236 690 q 117 575 147 621 q 71 474 86 529 q 56 361 56 419 q 78 215 56 282 q 144 99 101 149 q 251 17 188 49 q 393 -22 314 -14 q 403 13 403 -6 z "},"":{"ha":786,"x_min":60,"x_max":718,"o":"m 718 729 q 713 740 718 733 q 702 754 708 747 q 689 767 696 761 q 679 776 682 774 q 667 789 672 783 q 656 801 663 794 q 602 833 633 821 q 542 846 571 846 q 438 821 478 846 q 374 756 397 796 q 338 664 350 715 q 317 561 325 613 q 306 476 310 518 q 294 390 301 433 q 279 281 286 340 q 263 159 272 221 q 238 35 253 97 q 199 -82 222 -26 q 144 -183 176 -137 q 64 -260 111 -229 q 61 -262 63 -261 q 60 -265 60 -262 q 67 -271 60 -268 q 83 -276 74 -274 q 101 -280 92 -278 q 113 -282 110 -282 q 216 -147 178 -229 q 276 28 254 -65 q 310 215 299 121 q 331 388 321 310 q 339 465 335 426 q 350 540 343 503 q 367 629 356 582 q 399 717 378 676 q 453 785 419 758 q 540 811 488 811 q 578 803 557 811 q 618 782 600 796 q 649 751 636 768 q 661 714 661 733 q 659 701 661 707 q 657 690 657 696 q 667 679 657 679 q 679 691 671 679 q 692 707 688 703 q 703 714 694 710 q 715 719 713 718 q 718 729 718 725 z "},"":{"ha":374,"x_min":54,"x_max":310,"o":"m 310 497 q 308 522 310 510 q 306 547 306 535 q 304 564 306 553 q 293 575 303 575 q 273 562 283 575 q 263 540 263 549 q 269 527 263 538 q 275 500 275 517 q 265 472 275 479 q 236 464 256 464 q 196 467 215 464 q 156 469 176 469 q 118 459 136 469 q 85 433 100 449 q 63 397 71 417 q 54 358 54 376 q 56 343 54 353 q 65 333 58 333 q 84 343 75 333 q 99 354 93 353 q 94 378 94 364 q 112 423 94 408 q 158 438 129 438 q 197 434 178 438 q 236 431 217 431 q 288 447 267 431 q 310 497 310 464 z "},"":{"ha":149,"x_min":47,"x_max":125,"o":"m 125 3 q 89 42 125 42 q 60 33 72 42 q 47 4 47 24 q 52 -10 47 -4 q 63 -21 57 -17 q 73 -29 68 -25 q 78 -37 78 -33 q 70 -69 78 -49 q 56 -96 63 -89 q 82 -85 69 -96 q 104 -58 94 -74 q 119 -26 114 -43 q 125 3 125 -10 z "},"":{"ha":814,"x_min":31,"x_max":807,"o":"m 807 243 q 801 253 804 249 q 796 265 799 258 q 793 282 793 271 q 786 294 793 294 q 779 293 786 294 q 765 290 772 292 q 749 285 757 288 q 740 283 742 283 q 653 275 699 275 q 617 275 635 275 q 581 278 599 275 q 554 313 574 282 q 513 383 535 344 q 472 456 492 421 q 444 503 451 490 q 505 506 475 504 q 565 508 535 508 q 626 505 596 508 q 682 483 657 501 q 687 492 686 486 q 688 501 688 497 l 688 518 q 690 533 688 525 q 693 547 693 540 q 690 556 693 553 q 562 538 625 536 q 432 535 499 539 q 429 557 429 546 q 429 582 429 569 q 430 624 429 603 q 431 667 431 644 l 431 693 q 546 697 489 697 q 614 689 581 697 q 612 697 614 693 q 610 707 610 701 l 610 739 q 606 740 607 739 q 603 740 606 740 q 583 736 592 740 q 567 729 575 732 q 528 723 547 724 q 489 722 508 722 q 449 723 469 722 q 408 722 428 724 q 399 708 401 717 q 396 690 396 700 q 396 636 396 663 q 397 582 396 610 q 383 608 392 592 q 364 641 374 624 q 347 675 354 658 q 338 703 339 692 q 318 715 329 711 q 301 703 307 711 q 285 676 293 690 q 271 649 278 663 q 218 551 244 599 l 56 247 q 44 231 50 239 q 31 214 38 222 q 43 197 33 208 q 60 186 53 186 q 62 188 63 186 q 63 190 61 189 q 81 228 71 210 q 100 265 90 247 q 137 335 119 300 q 174 401 154 369 q 303 432 232 422 q 438 456 375 442 q 480 383 460 419 q 519 310 500 346 q 530 292 524 303 q 544 269 536 281 q 560 251 551 258 q 578 243 569 243 q 643 246 610 243 q 710 249 676 249 q 758 245 733 249 q 807 243 783 242 m 419 486 q 306 463 363 472 q 190 442 249 453 q 250 548 222 493 q 314 651 278 603 q 367 568 339 608 q 419 486 394 528 z "},"":{"ha":964,"x_min":43,"x_max":931,"o":"m 931 451 q 891 599 931 531 q 776 699 851 667 q 738 711 757 707 q 700 718 719 715 l 697 718 q 694 714 694 718 q 693 707 693 710 q 694 693 693 700 q 699 679 696 686 q 780 660 743 679 q 842 609 817 640 q 883 538 868 578 q 897 456 897 497 q 883 370 897 410 q 841 301 868 331 q 776 255 814 272 q 692 238 739 238 q 685 210 685 224 q 685 201 685 207 q 686 197 685 197 q 688 198 688 197 q 690 199 689 199 q 785 224 742 204 q 861 277 829 244 q 912 353 893 310 q 931 451 931 397 m 654 714 q 653 719 654 715 q 650 722 653 722 q 649 721 649 722 q 647 721 649 721 q 560 698 603 717 q 486 647 518 679 q 415 695 450 682 q 332 718 379 708 l 329 718 q 326 714 326 718 q 325 707 325 710 q 326 693 325 700 q 331 679 328 686 q 463 622 408 679 q 411 468 411 554 q 426 376 411 421 q 468 296 440 332 q 401 253 439 267 q 324 238 364 239 q 317 210 317 224 q 317 201 317 207 q 318 197 317 197 q 320 198 319 197 q 322 199 321 199 q 412 223 368 207 q 489 272 456 239 q 558 222 519 240 q 642 200 597 204 q 645 202 644 197 q 646 210 646 207 q 645 224 646 214 q 640 236 644 233 q 629 239 638 239 q 618 239 622 239 q 560 259 589 243 q 510 296 531 275 q 563 451 563 364 q 549 542 563 497 q 507 624 535 588 q 571 666 535 651 q 647 682 607 681 q 654 714 654 696 m 529 456 q 519 385 529 419 q 489 319 510 350 q 455 388 465 351 q 444 464 444 425 q 454 534 444 500 q 485 597 464 568 q 529 456 529 533 m 286 714 q 285 719 286 715 q 282 722 285 722 q 281 721 281 722 q 279 721 281 721 q 186 694 229 715 q 111 640 143 674 q 61 563 79 607 q 43 468 43 519 q 60 371 43 417 q 106 288 76 325 q 178 228 136 251 q 274 200 221 206 q 277 202 276 197 q 278 210 278 207 q 277 224 278 215 q 272 236 276 233 q 261 240 267 240 q 250 239 256 239 q 177 266 210 244 q 122 319 144 288 q 88 388 100 350 q 76 464 76 425 q 91 548 76 508 q 132 617 106 588 q 196 663 158 646 q 279 682 233 681 q 286 714 286 696 z "},"":{"ha":611,"x_min":69,"x_max":542,"o":"m 454 728 q 444 754 454 739 q 421 769 433 769 q 403 753 411 769 q 396 728 396 736 q 408 707 396 715 q 431 699 419 699 q 449 708 443 699 q 454 728 454 717 m 542 108 q 521 138 525 126 q 514 172 517 149 q 503 176 507 176 q 494 174 500 176 q 485 160 488 168 q 481 146 483 153 q 443 88 465 114 q 402 53 428 68 q 347 28 376 39 q 288 13 318 18 q 236 7 258 7 q 140 37 175 7 q 104 129 104 67 q 106 151 104 144 q 140 245 111 203 q 209 320 168 288 q 297 377 250 353 q 388 419 343 401 q 426 433 407 426 q 464 447 444 440 q 474 458 474 451 q 472 465 474 463 q 465 507 468 486 q 461 549 463 528 q 460 579 460 564 q 458 611 460 596 q 459 628 458 617 q 453 639 460 639 q 435 632 446 639 q 421 619 425 625 q 430 547 428 583 q 435 474 432 510 q 312 422 376 453 q 194 350 247 392 q 105 253 140 308 q 69 125 69 197 q 114 12 69 49 q 231 -25 158 -25 q 338 -7 283 -25 q 438 39 393 11 q 458 54 449 46 q 478 69 467 63 q 485 74 481 72 q 492 78 489 75 q 508 84 499 82 q 524 88 517 86 q 537 94 532 90 q 542 108 542 99 z "},"":{"ha":281,"x_min":97,"x_max":158,"o":"m 158 715 q 147 738 158 729 q 124 746 136 746 q 105 738 113 746 q 97 719 97 731 q 108 695 97 706 q 133 685 118 685 q 152 694 146 685 q 158 715 158 704 m 153 -3 q 151 48 153 22 q 149 100 149 74 q 148 248 149 175 q 147 394 147 321 l 147 481 l 147 522 l 149 522 q 151 560 151 542 q 151 599 151 579 q 132 607 144 603 q 111 611 119 611 q 105 610 108 611 q 104 606 101 608 q 103 594 103 601 q 105 568 103 581 q 108 542 107 556 l 108 413 l 108 288 l 108 79 q 104 40 108 60 q 101 0 100 19 l 101 -10 q 103 -15 99 -14 q 110 -17 107 -17 q 132 -12 119 -17 q 153 -3 144 -8 z "},"":{"ha":792,"x_min":39,"x_max":697,"o":"m 697 729 q 692 740 697 733 q 681 753 688 746 q 668 766 675 760 q 658 776 661 772 q 649 788 653 782 q 638 799 644 793 q 583 832 615 818 q 521 846 551 846 q 404 813 447 846 q 338 727 361 779 q 304 613 314 675 q 288 494 294 551 q 213 495 251 494 q 139 507 174 496 q 115 511 126 511 q 104 504 104 511 q 108 494 104 503 q 116 477 111 486 q 125 460 121 468 q 131 453 129 453 q 140 455 135 453 q 150 460 146 457 q 180 464 163 463 q 215 465 197 465 q 253 465 235 465 q 283 465 271 465 q 278 428 281 446 q 274 390 276 410 q 251 222 263 315 q 217 36 240 128 q 154 -135 194 -56 q 43 -260 114 -214 q 40 -262 42 -261 q 39 -265 39 -262 q 46 -271 39 -268 q 63 -276 53 -274 q 81 -280 72 -278 q 92 -282 89 -282 q 166 -198 135 -247 q 219 -92 197 -149 q 256 28 242 -35 q 281 154 271 92 q 297 276 290 217 q 310 388 304 336 l 318 465 q 356 465 328 465 q 416 464 385 465 q 474 461 447 463 q 508 456 501 460 q 521 451 515 453 q 533 447 526 450 q 542 453 538 450 q 546 461 546 457 q 544 467 546 465 q 528 492 536 475 q 508 510 521 510 q 505 509 506 510 q 501 508 504 508 q 413 498 458 500 q 322 494 367 496 q 338 594 328 539 q 368 698 347 650 q 425 778 389 746 q 519 811 461 811 q 558 803 536 811 q 597 781 579 794 q 628 750 615 768 q 640 714 640 732 q 638 701 640 707 q 636 690 636 696 q 646 679 636 679 q 658 691 651 679 q 671 707 665 703 q 694 719 681 715 q 697 729 697 725 z "},"":{"ha":497,"x_min":69,"x_max":428,"o":"m 428 388 q 417 407 428 399 q 396 418 406 415 q 372 389 388 401 q 336 376 356 376 q 293 383 314 376 q 251 397 272 389 q 210 412 231 406 q 167 418 189 418 q 150 419 158 418 q 133 421 142 421 q 98 410 114 421 q 71 383 82 399 q 70 381 71 382 q 69 378 69 379 q 84 366 69 372 q 103 357 99 360 q 130 381 114 376 q 165 386 146 386 q 201 380 181 386 q 243 366 221 374 q 289 352 265 358 q 335 346 313 346 q 358 348 343 346 q 390 356 374 350 q 417 369 406 361 q 428 388 428 376 m 428 272 q 417 292 428 283 q 396 303 406 300 q 372 274 388 286 q 336 261 356 261 q 293 267 314 261 q 251 282 272 274 q 210 297 231 290 q 167 303 189 303 q 150 304 158 303 q 133 306 142 306 q 98 294 114 306 q 71 268 82 283 q 70 265 71 267 q 69 263 69 264 q 84 251 69 257 q 103 242 99 244 q 130 265 114 260 q 165 271 146 271 q 201 265 181 271 q 243 251 221 258 q 289 237 265 243 q 335 231 313 231 q 358 233 343 231 q 390 240 374 235 q 417 253 406 246 q 428 272 428 261 z "},"":{"ha":354,"x_min":69,"x_max":285,"o":"m 285 463 q 281 467 285 467 q 251 492 263 481 q 226 522 240 504 q 251 552 242 543 q 281 576 261 561 q 285 582 283 579 q 272 590 285 586 q 256 594 258 594 q 238 583 246 594 q 221 563 229 569 q 201 544 213 556 q 190 534 199 542 q 182 522 182 526 q 185 517 182 519 q 190 511 188 514 q 215 488 204 499 q 238 461 226 476 q 256 450 244 450 q 272 454 258 450 q 285 463 285 458 m 174 463 q 169 467 174 467 q 140 492 151 481 q 114 522 128 504 q 139 552 129 543 q 168 576 149 561 q 172 582 172 578 q 159 590 172 586 q 143 594 146 594 q 125 583 133 594 q 109 563 117 569 q 90 544 101 556 q 78 534 88 542 q 69 522 69 526 q 72 517 69 519 q 78 511 75 514 q 104 488 93 499 q 126 461 115 476 q 143 450 133 450 q 160 454 147 450 q 174 463 174 458 z "},"":{"ha":354,"x_min":69,"x_max":285,"o":"m 285 522 q 276 534 285 526 q 264 544 267 542 q 245 563 253 556 q 229 583 238 569 q 211 594 221 594 q 195 590 208 594 q 182 582 182 586 q 186 576 182 581 q 215 552 203 564 q 240 522 228 540 q 226 504 232 511 q 215 492 221 497 q 203 481 210 488 q 186 467 196 475 q 182 463 182 464 q 195 454 182 458 q 211 450 208 450 q 229 461 222 450 q 251 488 240 476 q 276 511 263 499 q 282 517 279 514 q 285 522 285 519 m 174 522 q 165 534 174 526 q 153 544 156 542 q 133 563 142 556 q 117 583 125 569 q 100 594 108 594 q 83 590 96 594 q 69 582 69 586 q 74 576 69 581 q 103 552 92 564 q 128 522 115 540 q 103 492 113 500 q 74 467 93 485 l 69 463 q 83 454 69 458 q 99 450 96 450 q 117 461 110 450 q 139 488 128 476 q 164 511 150 499 q 170 517 167 514 q 174 522 174 519 z "},"":{"ha":917,"x_min":208,"x_max":708,"o":"m 708 22 q 701 43 708 33 q 682 53 694 53 q 658 42 668 53 q 647 18 647 32 q 655 -1 647 7 q 674 -10 663 -10 q 697 -1 686 -10 q 708 22 708 8 m 479 22 q 473 43 479 33 q 454 53 467 53 q 429 42 440 53 q 418 18 418 32 q 426 -1 418 7 q 444 -10 433 -10 q 469 -1 458 -10 q 479 22 479 8 m 269 22 q 263 43 269 33 q 244 53 257 53 q 219 42 229 53 q 208 18 208 32 q 216 -1 208 7 q 235 -10 224 -10 q 258 -1 247 -10 q 269 22 269 8 z "},"":{"ha":372,"x_min":0,"x_max":0,"o":""},"":{"ha":786,"x_min":14,"x_max":781,"o":"m 383 839 q 382 848 383 843 q 379 857 381 853 q 361 878 381 878 q 355 877 358 878 q 349 878 351 876 q 320 891 339 879 q 283 916 301 903 q 250 940 264 929 q 236 950 236 950 q 231 939 232 950 q 229 925 229 928 q 244 901 229 908 q 272 886 251 899 q 315 860 293 874 q 355 836 338 847 q 372 825 372 825 q 379 831 375 825 q 383 839 383 836 m 781 0 q 763 14 781 7 q 735 38 744 21 q 699 108 725 54 q 637 233 672 161 q 563 383 601 304 q 494 531 525 463 q 442 648 463 600 q 421 703 421 696 q 430 726 421 717 q 439 749 439 735 q 429 760 439 760 q 411 753 419 760 q 396 742 403 747 q 377 733 388 735 q 358 728 367 731 q 344 723 350 726 q 338 710 338 719 q 346 694 338 697 q 354 679 354 692 q 351 667 354 675 q 264 459 308 563 q 171 253 219 356 q 146 197 160 228 q 117 135 132 167 q 85 75 101 104 q 51 24 68 46 q 33 12 42 11 q 15 3 25 13 q 15 0 15 1 q 14 -1 14 -1 q 21 -12 14 -8 q 32 -10 26 -10 q 46 -10 39 -10 q 77 -10 61 -10 q 108 -11 93 -11 q 119 -11 113 -11 q 129 -8 126 -11 l 129 -4 q 126 6 129 3 q 120 10 124 8 q 113 15 117 13 q 110 25 110 18 q 119 59 110 38 q 140 104 128 81 q 165 150 153 128 q 182 185 176 172 q 287 167 235 174 q 392 161 339 161 q 504 169 449 161 q 617 189 560 176 q 635 151 624 172 q 659 109 647 131 q 679 66 671 88 q 688 25 688 44 q 685 11 688 15 q 674 4 678 8 q 671 -7 669 0 l 671 -11 l 674 -11 q 701 -9 688 -11 q 729 -7 715 -7 q 775 -11 751 -7 q 781 0 781 -6 m 601 221 q 501 203 551 211 q 400 196 451 196 q 299 203 349 196 q 199 218 249 210 q 297 443 249 331 q 390 669 346 556 q 493 444 442 557 q 601 221 544 332 z "},"":{"ha":793,"x_min":14,"x_max":781,"o":"m 514 882 q 503 898 514 890 q 486 908 493 906 q 481 892 483 901 q 473 872 478 882 q 462 854 468 861 q 447 847 456 847 q 425 857 436 847 q 400 878 414 867 q 370 899 386 889 q 335 908 354 908 q 293 897 314 908 q 265 864 272 886 l 265 863 q 276 851 265 856 q 293 843 288 846 q 306 872 296 858 q 335 885 317 885 q 360 875 347 885 q 388 853 374 865 q 417 832 401 842 q 449 822 432 822 q 489 840 472 822 q 513 879 506 858 q 514 881 514 879 q 514 882 514 882 m 781 0 q 763 14 781 7 q 735 38 744 21 q 699 108 725 54 q 637 233 672 161 q 563 383 601 304 q 494 531 525 463 q 442 648 463 600 q 421 703 421 696 q 430 726 421 717 q 439 749 439 735 q 429 760 439 760 q 411 753 419 760 q 396 742 403 747 q 377 733 388 735 q 358 728 367 731 q 344 723 350 726 q 338 710 338 719 q 346 694 338 697 q 354 679 354 692 q 351 667 354 675 q 264 459 308 563 q 171 253 219 356 q 146 197 160 228 q 117 135 132 167 q 85 75 101 104 q 51 24 68 46 q 33 12 42 11 q 15 3 25 13 q 15 0 15 1 q 14 -1 14 -1 q 21 -12 14 -8 q 32 -10 26 -10 q 46 -10 39 -10 q 77 -10 61 -10 q 108 -11 93 -11 q 119 -11 113 -11 q 129 -8 126 -11 l 129 -4 q 126 6 129 3 q 120 10 124 8 q 113 15 117 13 q 110 25 110 18 q 119 59 110 38 q 140 104 128 81 q 165 150 153 128 q 182 185 176 172 q 287 167 235 174 q 392 161 339 161 q 504 169 449 161 q 617 189 560 176 q 635 151 624 172 q 659 109 647 131 q 679 66 671 88 q 688 25 688 44 q 685 11 688 15 q 674 4 678 8 q 671 -7 669 0 l 671 -11 l 674 -11 q 701 -9 688 -11 q 729 -7 715 -7 q 775 -11 751 -7 q 781 0 781 -6 m 601 221 q 501 203 551 211 q 400 196 451 196 q 299 203 349 196 q 199 218 249 210 q 297 443 249 331 q 390 669 346 556 q 493 444 442 557 q 601 221 544 332 z "},"":{"ha":747,"x_min":56,"x_max":768,"o":"m 485 882 q 474 898 485 890 q 457 908 464 906 q 451 892 454 901 q 442 872 447 882 q 431 854 438 861 q 417 847 425 847 q 394 857 406 847 q 370 878 383 867 q 341 899 357 889 q 306 908 325 908 q 263 897 283 908 q 236 864 243 886 l 235 863 q 247 851 235 856 q 263 843 258 846 q 276 872 265 858 q 304 885 288 885 q 331 875 318 885 q 358 853 344 865 q 387 832 372 842 q 418 822 401 822 q 459 840 442 822 q 483 879 476 858 l 485 882 m 768 338 q 744 479 768 413 q 675 598 719 546 q 568 683 631 650 q 431 722 506 715 q 423 717 424 726 q 422 706 422 707 q 423 693 422 700 q 428 682 424 686 q 434 678 431 679 q 440 678 438 678 l 453 678 q 568 639 517 668 q 656 565 619 610 q 711 465 692 521 q 731 344 731 408 q 711 226 731 285 q 656 122 692 168 q 567 48 619 76 q 451 19 515 19 l 444 21 q 443 10 443 15 q 443 0 443 4 q 444 -14 443 -1 q 451 -22 444 -26 q 491 -15 471 -19 q 531 -3 511 -10 q 631 48 586 14 q 706 128 675 82 q 752 227 736 174 q 768 338 768 281 m 390 -8 q 389 7 390 -1 q 385 21 388 15 q 264 51 318 21 q 172 128 210 81 q 113 237 133 176 q 92 358 92 297 q 106 458 92 410 q 148 549 121 507 q 215 622 175 590 q 303 671 254 654 q 339 679 322 678 q 375 681 356 681 q 381 713 381 693 q 380 721 381 715 q 376 726 379 726 q 374 726 375 726 q 374 725 374 725 q 247 686 304 718 q 146 606 189 654 q 79 494 103 557 q 56 364 56 432 q 74 239 56 300 q 128 126 93 178 q 216 39 164 75 q 333 -11 268 3 q 343 -13 335 -11 q 360 -17 351 -15 q 377 -20 369 -18 q 385 -22 385 -22 q 390 -16 389 -21 q 390 -8 390 -11 z "},"":{"ha":1096,"x_min":28,"x_max":1081,"o":"m 1081 533 q 1077 549 1079 539 q 1068 558 1075 558 q 1059 556 1065 558 q 1044 549 1053 553 q 1028 540 1036 544 q 1017 535 1021 536 q 965 526 1004 531 q 879 519 925 522 q 792 514 833 515 q 736 513 751 513 q 665 518 697 513 q 659 597 658 557 q 657 676 660 636 l 665 681 q 727 683 696 678 q 789 688 758 688 q 834 679 813 688 q 863 671 856 671 q 871 676 869 671 q 872 688 872 682 q 872 692 872 690 q 871 696 871 693 q 869 713 871 704 q 868 732 868 722 q 869 739 868 738 q 858 743 863 743 q 849 741 853 743 q 840 736 844 739 q 819 727 832 732 q 793 719 807 722 q 765 715 779 717 q 743 713 751 713 q 705 714 724 713 q 667 715 686 715 q 635 715 643 715 q 617 694 628 714 q 620 681 618 690 q 623 660 622 671 q 624 638 624 649 q 625 622 625 628 q 524 692 581 667 q 404 722 467 717 q 401 724 404 724 q 397 716 399 724 q 396 706 396 708 q 397 693 396 701 q 401 682 399 685 q 408 678 404 679 q 415 678 413 678 q 475 669 444 678 q 533 644 506 660 q 586 608 561 628 q 629 565 611 588 q 635 420 632 492 q 638 275 638 349 l 638 128 q 544 47 599 76 q 424 18 489 18 q 414 18 419 18 q 404 19 410 18 q 401 6 401 8 q 403 -5 401 0 q 403 -15 404 -10 l 403 -19 q 531 6 471 -19 q 639 79 590 31 l 639 76 q 638 50 639 63 q 636 25 636 38 q 638 3 636 10 q 656 -8 640 -3 q 700 -5 678 -6 q 743 -4 722 -4 q 888 0 815 0 q 921 -7 904 0 q 951 -12 938 -14 q 959 -9 954 -11 q 964 -3 964 -7 q 959 6 964 1 q 954 17 954 10 q 956 33 954 26 q 960 49 958 40 q 946 60 954 60 q 939 58 942 60 q 933 54 936 57 q 907 42 925 47 q 878 35 889 36 q 780 31 829 29 q 682 29 731 32 q 674 46 674 33 q 672 81 674 64 q 668 115 669 97 q 667 154 667 135 q 667 194 667 175 q 667 280 667 238 q 668 365 668 322 q 668 415 668 390 q 665 467 668 442 l 675 479 q 810 486 743 479 q 946 493 878 493 q 966 492 953 493 q 992 491 979 492 q 1018 488 1006 490 q 1036 483 1031 486 q 1045 475 1039 481 q 1054 469 1051 469 q 1060 474 1058 469 q 1063 483 1063 479 q 1065 499 1063 492 q 1068 513 1067 506 q 1075 523 1071 517 q 1081 533 1079 529 m 363 -8 q 361 7 363 -1 q 357 21 360 15 q 236 51 290 21 q 144 128 182 81 q 85 237 106 176 q 64 358 64 297 q 78 458 64 410 q 120 549 93 507 q 186 622 147 590 q 275 671 225 654 q 310 679 293 678 q 347 681 326 681 q 351 696 350 688 q 353 713 353 704 q 352 721 353 715 q 347 726 351 726 q 347 726 347 726 q 344 725 346 725 q 218 686 276 718 q 117 606 160 654 q 51 494 75 557 q 28 364 28 432 q 47 239 28 300 q 101 126 65 178 q 188 39 136 75 q 304 -11 239 3 q 315 -13 307 -11 q 333 -17 324 -15 q 349 -20 342 -18 q 357 -22 357 -22 q 362 -16 361 -21 q 363 -8 363 -11 z "},"":{"ha":847,"x_min":40,"x_max":831,"o":"m 831 560 q 826 568 831 564 q 753 553 790 557 q 678 549 715 550 q 603 549 640 549 q 528 547 565 549 q 525 567 525 558 q 525 588 525 576 q 526 621 525 604 q 526 654 526 638 q 526 665 526 660 q 525 678 526 671 q 642 682 583 682 q 710 674 674 682 q 707 683 708 679 q 706 692 706 686 l 706 724 q 701 724 703 724 q 697 725 700 725 q 679 721 688 725 q 661 714 671 717 q 623 708 642 710 q 585 707 604 707 q 544 708 564 707 q 503 707 524 708 q 493 693 496 701 q 490 675 490 685 l 490 647 q 369 722 440 706 q 360 724 367 722 q 344 728 353 726 q 329 732 336 731 q 322 733 322 733 q 317 728 318 733 q 317 719 317 722 q 321 692 317 704 q 422 662 378 689 q 493 586 465 635 l 494 549 q 488 547 492 549 q 483 543 483 546 q 489 519 483 533 q 495 514 494 517 q 497 507 496 511 q 499 456 499 482 q 499 406 499 431 l 499 375 q 429 286 475 317 q 321 253 383 256 q 317 225 317 240 q 317 217 317 222 q 321 213 318 213 q 323 213 322 213 q 324 214 324 214 q 420 244 375 221 q 497 307 465 267 l 497 254 q 526 231 507 231 q 617 234 572 231 q 707 238 663 238 q 742 233 725 238 q 778 228 758 228 q 781 228 779 228 q 785 229 782 229 l 774 253 q 770 269 771 257 q 763 282 769 282 q 740 278 756 282 q 714 271 724 274 q 603 263 660 263 q 567 263 585 263 q 532 265 550 263 q 528 356 529 310 q 526 446 526 401 q 526 481 526 464 q 528 515 526 497 q 608 518 568 515 q 689 521 649 521 q 756 518 719 521 q 819 496 793 515 q 824 504 824 499 q 824 514 824 510 l 824 531 q 827 545 824 538 q 831 560 831 553 m 279 719 q 278 727 279 721 q 274 733 278 733 q 272 733 274 733 q 271 732 272 733 q 249 728 260 731 q 226 722 238 725 q 152 689 186 713 q 94 632 118 665 q 56 560 69 599 q 42 479 42 521 l 42 476 q 75 329 40 393 q 189 233 110 265 q 227 222 208 226 q 265 214 246 218 q 268 213 267 214 q 272 218 271 214 q 272 225 272 222 q 268 253 272 240 q 124 317 176 258 q 72 467 72 375 q 86 553 72 513 q 126 624 100 593 q 189 672 151 654 q 275 692 226 689 q 279 719 279 704 z "},"":{"ha":578,"x_min":69,"x_max":511,"o":"m 511 318 q 508 324 511 321 q 493 349 500 332 q 472 367 486 367 q 467 365 469 367 q 359 353 414 356 q 251 351 304 351 q 176 353 219 351 q 103 364 133 356 q 79 369 89 369 q 69 361 69 369 q 73 353 69 361 q 81 335 76 344 q 89 319 85 326 q 93 311 93 311 l 96 310 q 105 313 99 310 q 115 317 111 315 q 151 321 129 319 q 196 322 172 322 q 242 322 219 322 q 279 322 264 322 q 318 322 289 322 q 380 322 347 322 q 440 319 413 321 q 474 314 468 317 q 486 308 481 310 q 499 304 492 307 q 507 310 503 307 q 511 318 511 314 z "},"":{"ha":842,"x_min":69,"x_max":775,"o":"m 775 318 q 772 324 775 321 q 757 349 764 332 q 736 367 750 367 q 731 365 733 367 q 663 358 699 358 q 594 356 628 358 q 350 351 474 351 q 294 351 329 351 q 224 352 261 351 q 154 356 188 353 q 103 364 121 358 q 79 369 89 369 q 69 361 69 369 q 73 351 69 358 q 81 333 76 343 q 90 317 86 324 q 96 310 94 310 q 106 313 99 310 q 115 317 113 315 q 166 321 128 319 q 247 322 204 322 q 332 322 292 322 q 389 322 372 322 q 425 322 397 322 q 490 322 454 322 q 569 322 528 322 q 647 320 611 321 q 708 318 683 319 q 738 314 733 317 q 750 308 744 310 q 763 304 756 307 q 771 310 767 307 q 775 318 775 314 z "},"":{"ha":219,"x_min":36,"x_max":189,"o":"m 189 750 q 179 772 189 763 q 158 781 169 781 q 134 763 143 781 q 125 733 125 746 q 131 715 125 726 q 144 692 136 703 q 160 672 151 681 q 175 663 168 663 q 185 668 182 663 q 172 686 179 675 q 165 707 165 697 q 177 728 165 719 q 189 750 189 736 m 100 750 q 90 772 100 763 q 69 781 81 781 q 45 763 54 781 q 36 733 36 746 q 42 715 36 726 q 55 692 47 703 q 71 672 63 681 q 86 663 79 663 q 96 668 93 663 q 83 686 90 675 q 76 707 76 697 q 88 728 76 719 q 100 750 100 736 z "},"":{"ha":219,"x_min":35,"x_max":188,"o":"m 188 733 q 178 763 188 746 q 154 781 169 781 q 133 771 143 781 q 124 750 124 761 q 135 727 124 736 q 147 707 147 718 q 140 686 147 697 q 128 668 133 675 q 138 663 131 663 q 153 672 144 663 q 169 692 161 681 q 182 715 176 703 q 188 733 188 726 m 99 733 q 90 763 99 746 q 65 781 81 781 q 44 771 54 781 q 35 750 35 761 q 47 727 35 736 q 60 707 60 718 q 53 686 60 697 q 39 668 46 675 q 49 663 42 663 q 65 672 56 663 q 81 692 74 681 q 94 715 89 703 q 99 733 99 726 z "},"":{"ha":131,"x_min":36,"x_max":100,"o":"m 100 692 q 88 713 100 704 q 76 733 76 722 q 83 754 76 743 q 96 772 90 765 q 86 778 94 778 q 71 769 79 778 q 55 749 63 761 q 42 726 47 738 q 36 708 36 714 q 45 678 36 696 q 69 661 54 661 q 90 670 81 661 q 100 692 100 679 z "},"":{"ha":131,"x_min":35,"x_max":99,"o":"m 99 733 q 90 763 99 746 q 65 781 81 781 q 44 771 54 781 q 35 750 35 761 q 47 727 35 736 q 60 707 60 718 q 53 686 60 697 q 39 668 46 675 q 49 663 42 663 q 65 672 56 663 q 81 692 74 681 q 94 715 89 703 q 99 733 99 726 z "},"":{"ha":578,"x_min":69,"x_max":511,"o":"m 311 449 q 305 469 311 460 q 286 479 299 479 q 261 469 272 479 q 250 444 250 458 q 258 426 250 433 q 276 418 265 418 q 301 426 290 418 q 311 449 311 435 m 511 297 q 508 301 511 299 q 494 328 500 311 q 472 344 488 344 l 467 344 q 359 331 414 333 q 251 329 304 329 q 176 331 219 329 q 103 342 133 333 q 79 347 89 347 q 69 340 69 347 q 73 331 69 339 q 81 313 76 322 q 89 297 85 304 q 93 289 93 289 l 96 288 q 105 290 99 288 q 115 294 111 293 q 151 299 129 297 q 196 301 172 300 q 242 301 219 301 q 279 301 264 301 q 318 301 289 301 q 380 299 347 300 q 440 297 413 299 q 474 292 468 294 q 486 287 481 288 q 499 283 492 286 q 507 288 503 285 q 511 297 511 292 m 311 175 q 305 196 311 186 q 286 206 299 206 q 261 196 272 206 q 250 171 250 186 q 258 152 250 160 q 276 144 265 144 q 301 153 290 144 q 311 175 311 161 z "},"":{"ha":501,"x_min":7,"x_max":468,"o":"m 338 851 q 330 873 338 863 q 310 883 322 883 q 290 877 299 883 q 282 860 282 871 q 291 838 282 847 q 314 828 300 828 q 330 835 322 828 q 338 851 338 842 m 189 851 q 181 873 189 863 q 161 883 172 883 q 142 877 150 883 q 133 860 133 871 q 142 838 133 847 q 164 828 151 828 q 181 835 174 828 q 189 851 189 842 m 468 713 q 465 715 468 715 q 461 715 463 715 q 444 714 453 715 q 426 713 435 713 q 415 715 421 713 q 406 717 410 717 q 404 715 404 717 q 403 692 406 700 q 392 671 400 683 q 321 568 356 619 q 250 467 286 517 q 206 519 226 492 q 163 574 185 547 q 122 623 143 599 q 86 675 101 647 q 75 713 75 693 q 75 718 75 715 q 72 722 75 722 q 59 719 65 722 q 46 717 53 717 q 29 718 38 717 q 13 719 21 719 q 7 717 7 719 q 12 710 7 714 q 18 703 17 706 q 67 648 44 678 q 111 590 89 618 q 174 510 143 550 q 233 429 204 469 q 235 400 235 414 q 235 372 235 388 q 234 317 235 344 q 233 261 233 289 q 233 241 233 250 q 231 221 232 232 q 249 212 238 215 q 268 208 260 208 q 272 208 269 208 q 275 211 275 208 l 275 214 q 276 235 276 221 q 272 324 276 279 q 268 414 268 369 l 268 432 q 308 497 285 460 q 358 572 332 533 q 409 644 383 610 q 457 699 435 678 q 464 706 460 701 q 468 713 468 710 z "},"":{"ha":728,"x_min":19,"x_max":708,"o":"m 474 851 q 466 873 474 863 q 446 883 458 883 q 426 877 435 883 q 418 860 418 871 q 427 838 418 847 q 450 828 436 828 q 466 835 458 828 q 474 851 474 842 m 325 851 q 317 873 325 863 q 297 883 308 883 q 278 877 286 883 q 269 860 269 871 q 278 838 269 847 q 300 828 288 828 q 317 835 310 828 q 325 851 325 842 m 708 718 q 699 724 708 724 q 674 720 686 724 q 649 717 663 717 q 633 720 640 717 q 619 724 626 724 q 608 722 613 724 q 597 718 603 719 q 594 713 594 715 q 601 699 594 706 q 608 685 608 693 q 595 651 608 672 q 562 603 582 629 q 517 547 542 576 q 467 492 492 518 q 423 445 443 467 q 393 414 403 424 q 378 406 386 406 q 374 406 375 406 q 369 407 372 407 q 286 500 331 456 q 200 590 242 544 q 162 631 182 610 q 128 674 142 651 q 122 689 122 681 q 128 707 122 699 q 133 718 133 715 q 126 721 133 721 q 117 721 119 721 q 92 716 103 721 q 67 711 81 711 q 54 712 60 711 q 42 713 49 713 q 27 710 35 713 q 19 701 19 708 q 30 683 19 685 q 50 678 40 682 q 69 669 64 672 q 101 642 78 664 q 153 590 124 621 q 217 525 183 560 q 278 458 250 490 q 328 399 307 425 q 357 364 350 374 q 360 335 358 361 q 362 277 361 308 q 363 218 363 246 q 363 183 363 190 q 363 155 363 172 q 364 118 364 138 q 363 83 364 100 q 361 56 363 65 q 353 36 360 46 q 339 18 346 26 q 326 3 332 10 q 319 -4 319 -3 q 322 -8 319 -7 q 328 -8 325 -8 q 350 -3 339 -8 q 374 1 361 1 q 399 -1 386 1 q 424 -4 411 -4 q 433 6 433 -4 q 428 15 433 11 q 418 26 424 19 q 407 40 413 32 q 400 63 401 49 q 397 107 397 85 q 397 154 397 131 q 398 222 397 188 q 399 290 399 256 q 399 319 400 306 q 400 347 399 333 q 408 373 401 358 q 422 396 415 388 q 542 533 485 464 q 661 671 600 603 q 672 681 664 675 q 688 694 679 688 q 702 707 696 700 q 708 718 708 714 z "},"":{"ha":654,"x_min":-167,"x_max":601,"o":"m 601 608 q 590 630 596 619 q 585 654 585 640 q 585 674 585 664 q 588 693 586 683 q 571 707 582 707 q 543 700 558 707 q 513 693 528 693 q 489 693 501 693 q 465 696 476 693 q 394 712 429 706 q 319 718 358 718 q 117 645 194 718 q 26 449 39 572 l 15 449 q -59 450 -17 449 q -133 461 -101 451 q -157 467 -147 467 q -167 458 -167 467 q -163 448 -167 456 q -155 431 -160 440 q -146 414 -150 421 q -140 407 -142 407 q -131 410 -137 407 q -121 414 -124 413 q -92 417 -111 415 q -50 419 -72 418 q -7 419 -28 419 q 24 419 13 419 q 24 372 22 396 q 29 324 26 347 q -31 326 0 325 q -92 336 -62 328 q -115 342 -106 342 q -125 333 -125 342 q -122 323 -125 331 q -113 306 -118 315 q -104 289 -108 296 q -99 282 -100 282 q -89 285 -94 282 q -79 289 -83 288 q -22 294 -57 294 q 35 294 11 294 q 99 120 56 194 q 204 -12 143 46 q 340 -115 265 -69 q 499 -207 415 -161 q 529 -223 514 -215 q 561 -237 544 -231 l 564 -239 q 572 -223 571 -237 q 574 -204 574 -208 l 574 -196 q 539 -184 556 -192 q 506 -169 522 -176 q 378 -99 440 -137 q 258 -17 317 -61 q 138 123 185 40 q 71 294 90 206 l 85 294 q 124 294 94 294 q 185 294 153 294 q 245 291 218 293 q 279 286 272 289 q 292 281 286 282 q 304 276 297 279 q 313 283 308 279 q 317 290 317 286 q 314 296 317 293 q 299 322 306 304 q 278 339 292 339 q 272 338 275 339 q 169 326 222 328 q 65 324 117 324 q 58 397 58 363 q 59 408 58 403 q 60 419 60 414 q 94 419 68 419 q 152 419 122 419 q 207 416 182 418 q 238 411 232 414 q 250 406 244 407 q 263 401 256 404 q 271 408 267 404 q 275 415 275 411 q 272 421 275 418 q 257 447 264 429 q 236 464 250 464 q 231 463 233 464 q 147 453 190 456 q 63 450 104 451 q 89 541 69 499 q 140 615 108 583 q 213 666 171 647 q 308 685 256 685 q 408 676 361 685 q 503 646 454 668 q 523 636 514 640 q 542 625 532 632 q 562 608 549 619 q 583 596 575 596 q 601 608 596 596 z "},"":{"ha":243,"x_min":69,"x_max":174,"o":"m 174 463 q 169 467 174 467 q 140 492 151 481 q 114 522 128 504 q 139 552 129 543 q 168 576 149 561 q 172 582 172 578 q 159 590 172 586 q 143 594 146 594 q 125 583 133 594 q 109 563 117 569 q 90 544 101 556 q 78 534 88 542 q 69 522 69 526 q 72 517 69 519 q 78 511 75 514 q 104 488 93 499 q 126 461 115 476 q 143 450 133 450 q 160 454 147 450 q 174 463 174 458 z "},"":{"ha":243,"x_min":69,"x_max":174,"o":"m 174 529 q 165 541 174 533 q 153 551 156 549 q 133 569 142 563 q 117 590 125 576 q 100 601 108 601 q 83 597 96 601 q 69 589 69 593 q 74 583 69 588 q 103 559 92 571 q 128 529 115 547 q 103 499 113 507 q 74 474 93 492 l 69 469 q 83 461 69 465 q 99 457 96 457 q 117 468 110 457 q 139 494 128 483 q 164 518 150 506 q 170 524 167 521 q 174 529 174 526 z "},"":{"ha":675,"x_min":88,"x_max":593,"o":"m 593 217 q 588 252 590 235 q 583 288 585 269 q 578 411 581 350 q 575 535 575 472 q 576 596 575 565 q 579 657 576 626 q 585 682 581 665 q 589 706 589 699 q 579 715 589 715 l 575 714 q 567 715 572 715 q 538 712 551 715 q 511 706 525 708 q 476 701 503 703 q 419 700 450 700 q 361 700 389 700 q 324 700 333 700 q 283 700 308 700 q 233 700 260 700 q 183 701 207 700 q 147 704 160 701 q 131 711 140 710 q 114 713 122 713 q 93 710 99 713 q 88 692 88 707 q 92 672 88 681 q 100 651 97 663 q 103 629 101 643 q 105 601 104 615 q 106 572 106 586 q 106 549 106 558 q 100 535 106 538 q 94 525 94 532 q 104 508 94 511 q 114 401 111 456 q 119 293 117 347 q 127 142 124 218 q 131 -10 131 67 q 131 -36 131 -22 q 128 -62 131 -50 q 128 -72 128 -65 q 131 -86 129 -79 q 134 -99 132 -93 q 140 -104 136 -104 q 156 -91 147 -104 q 167 -72 164 -78 q 158 107 163 18 q 150 288 153 196 q 146 398 147 343 q 142 510 144 453 q 192 512 167 510 q 242 514 217 514 q 284 510 258 514 q 325 496 310 506 q 336 488 331 492 q 349 481 342 483 q 358 503 358 490 q 358 517 358 510 q 357 532 357 525 q 363 557 357 546 q 340 569 356 569 q 325 563 331 569 q 313 554 319 557 q 263 541 292 543 q 213 539 235 539 q 179 540 196 539 q 146 540 163 540 q 136 565 136 550 q 133 602 136 585 q 129 639 129 619 q 135 671 129 658 q 261 672 199 671 q 388 674 324 674 q 415 674 396 674 q 458 673 436 674 q 499 672 481 672 q 525 669 518 671 q 532 657 529 668 q 537 632 535 646 q 540 605 539 618 q 542 588 542 592 q 544 471 542 529 q 547 354 547 413 l 547 318 q 545 296 546 307 q 542 274 544 285 q 535 255 539 264 q 531 235 531 246 q 537 226 531 231 q 551 219 543 222 q 566 214 558 215 q 578 213 574 213 q 593 217 586 213 z "}}}
